<?xml version="1.0" encoding="utf-8" standalone="no"?>
<!DOCTYPE svg PUBLIC "-//W3C//DTD SVG 1.1//EN"
  "http://www.w3.org/Graphics/SVG/1.1/DTD/svg11.dtd">
<svg xmlns:xlink="http://www.w3.org/1999/xlink" width="856.8pt" height="422.829618pt" viewBox="0 0 856.8 422.829618" xmlns="http://www.w3.org/2000/svg" version="1.1">
 <metadata>
  <rdf:RDF xmlns:dc="http://purl.org/dc/elements/1.1/" xmlns:cc="http://creativecommons.org/ns#" xmlns:rdf="http://www.w3.org/1999/02/22-rdf-syntax-ns#">
   <cc:Work>
    <dc:type rdf:resource="http://purl.org/dc/dcmitype/StillImage"/>
    <dc:date>2026-03-19T00:09:36.827930</dc:date>
    <dc:format>image/svg+xml</dc:format>
    <dc:creator>
     <cc:Agent>
      <dc:title>Matplotlib v3.9.4, https://matplotlib.org/</dc:title>
     </cc:Agent>
    </dc:creator>
   </cc:Work>
  </rdf:RDF>
 </metadata>
 <defs>
  <style type="text/css">*{stroke-linejoin: round; stroke-linecap: butt}</style>
 </defs>
 <g id="figure_1">
  <g id="patch_1">
   <path d="M 0 422.829618 
L 856.8 422.829618 
L 856.8 0 
L 0 0 
z
" style="fill: #ffffff"/>
  </g>
  <g id="axes_1">
   <g id="patch_2">
    <path d="M 280.98 97.655357 
L 575.82 97.655357 
Q 580.032 97.655357 580.032 94.61293 
L 580.032 58.10381 
Q 580.032 55.061383 575.82 55.061383 
L 280.98 55.061383 
Q 276.768 55.061383 276.768 58.10381 
L 276.768 94.61293 
Q 276.768 97.655357 280.98 97.655357 
z
" clip-path="url(#pd1d6adf1ca)" style="fill: #f8f9fa; stroke: #aaaaaa; stroke-width: 0.8; stroke-linejoin: miter"/>
   </g>
   <g id="patch_3">
    <path d="M 280.98 163.06753 
L 575.82 163.06753 
Q 580.032 163.06753 580.032 160.025103 
L 580.032 126.55841 
Q 580.032 123.515983 575.82 123.515983 
L 280.98 123.515983 
Q 276.768 123.515983 276.768 126.55841 
L 276.768 160.025103 
Q 276.768 163.06753 280.98 163.06753 
z
" clip-path="url(#pd1d6adf1ca)" style="fill: #e3eef7; stroke: #aaaaaa; stroke-width: 0.8; stroke-linejoin: miter"/>
   </g>
   <g id="patch_4">
    <path d="M 57.744 236.08577 
L 293.616 236.08577 
Q 297.828 236.08577 297.828 233.043343 
L 297.828 199.57665 
Q 297.828 196.534223 293.616 196.534223 
L 57.744 196.534223 
Q 53.532 196.534223 53.532 199.57665 
L 53.532 233.043343 
Q 53.532 236.08577 57.744 236.08577 
z
" clip-path="url(#pd1d6adf1ca)" style="fill: #d4edda; stroke: #aaaaaa; stroke-width: 0.8; stroke-linejoin: miter"/>
   </g>
   <g id="patch_5">
    <path d="M 563.184 236.08577 
L 799.056 236.08577 
Q 803.268 236.08577 803.268 233.043343 
L 803.268 199.57665 
Q 803.268 196.534223 799.056 196.534223 
L 563.184 196.534223 
Q 558.972 196.534223 558.972 199.57665 
L 558.972 233.043343 
Q 558.972 236.08577 563.184 236.08577 
z
" clip-path="url(#pd1d6adf1ca)" style="fill: #cce5ff; stroke: #aaaaaa; stroke-width: 0.8; stroke-linejoin: miter"/>
   </g>
   <g id="patch_6">
    <path d="M 57.744 307.582797 
L 293.616 307.582797 
Q 297.828 307.582797 297.828 304.54037 
L 297.828 274.116103 
Q 297.828 271.073677 293.616 271.073677 
L 57.744 271.073677 
Q 53.532 271.073677 53.532 274.116103 
L 53.532 304.54037 
Q 53.532 307.582797 57.744 307.582797 
z
" clip-path="url(#pd1d6adf1ca)" style="fill: #c3e6cb; stroke: #aaaaaa; stroke-width: 0.8; stroke-linejoin: miter"/>
   </g>
   <g id="patch_7">
    <path d="M 563.184 307.582797 
L 799.056 307.582797 
Q 803.268 307.582797 803.268 304.54037 
L 803.268 274.116103 
Q 803.268 271.073677 799.056 271.073677 
L 563.184 271.073677 
Q 558.972 271.073677 558.972 274.116103 
L 558.972 304.54037 
Q 558.972 307.582797 563.184 307.582797 
z
" clip-path="url(#pd1d6adf1ca)" style="fill: #b8daff; stroke: #aaaaaa; stroke-width: 0.8; stroke-linejoin: miter"/>
   </g>
   <g id="patch_8">
    <path d="M 280.98 363.86769 
L 575.82 363.86769 
Q 580.032 363.86769 580.032 360.825263 
L 580.032 327.35857 
Q 580.032 324.316143 575.82 324.316143 
L 280.98 324.316143 
Q 276.768 324.316143 276.768 327.35857 
L 276.768 360.825263 
Q 276.768 363.86769 280.98 363.86769 
z
" clip-path="url(#pd1d6adf1ca)" style="fill: #fff3cd; stroke: #aaaaaa; stroke-width: 0.8; stroke-linejoin: miter"/>
   </g>
   <g id="patch_9">
    <path d="M 280.98 414.06773 
L 575.82 414.06773 
Q 580.032 414.06773 580.032 411.025303 
L 580.032 386.68589 
Q 580.032 383.643463 575.82 383.643463 
L 280.98 383.643463 
Q 276.768 383.643463 276.768 386.68589 
L 276.768 411.025303 
Q 276.768 414.06773 280.98 414.06773 
z
" clip-path="url(#pd1d6adf1ca)" style="fill: #d4edda; stroke: #aaaaaa; stroke-width: 0.8; stroke-linejoin: miter"/>
   </g>
   <g id="text_1">
    <!-- Clinical Safety Table (CSR source) -->
    <g style="fill: #1a1a2e" transform="translate(342.919688 71.504827) scale(0.09 -0.09)">
     <defs>
      <path id="DejaVuSans-Bold-43" d="M 4288 256 
Q 3956 84 3597 -3 
Q 3238 -91 2847 -91 
Q 1681 -91 1000 561 
Q 319 1213 319 2328 
Q 319 3447 1000 4098 
Q 1681 4750 2847 4750 
Q 3238 4750 3597 4662 
Q 3956 4575 4288 4403 
L 4288 3438 
Q 3953 3666 3628 3772 
Q 3303 3878 2944 3878 
Q 2300 3878 1931 3465 
Q 1563 3053 1563 2328 
Q 1563 1606 1931 1193 
Q 2300 781 2944 781 
Q 3303 781 3628 887 
Q 3953 994 4288 1222 
L 4288 256 
z
" transform="scale(0.015625)"/>
      <path id="DejaVuSans-Bold-6c" d="M 538 4863 
L 1656 4863 
L 1656 0 
L 538 0 
L 538 4863 
z
" transform="scale(0.015625)"/>
      <path id="DejaVuSans-Bold-69" d="M 538 3500 
L 1656 3500 
L 1656 0 
L 538 0 
L 538 3500 
z
M 538 4863 
L 1656 4863 
L 1656 3950 
L 538 3950 
L 538 4863 
z
" transform="scale(0.015625)"/>
      <path id="DejaVuSans-Bold-6e" d="M 4056 2131 
L 4056 0 
L 2931 0 
L 2931 347 
L 2931 1631 
Q 2931 2084 2911 2256 
Q 2891 2428 2841 2509 
Q 2775 2619 2662 2680 
Q 2550 2741 2406 2741 
Q 2056 2741 1856 2470 
Q 1656 2200 1656 1722 
L 1656 0 
L 538 0 
L 538 3500 
L 1656 3500 
L 1656 2988 
Q 1909 3294 2193 3439 
Q 2478 3584 2822 3584 
Q 3428 3584 3742 3212 
Q 4056 2841 4056 2131 
z
" transform="scale(0.015625)"/>
      <path id="DejaVuSans-Bold-63" d="M 3366 3391 
L 3366 2478 
Q 3138 2634 2908 2709 
Q 2678 2784 2431 2784 
Q 1963 2784 1702 2511 
Q 1441 2238 1441 1747 
Q 1441 1256 1702 982 
Q 1963 709 2431 709 
Q 2694 709 2930 787 
Q 3166 866 3366 1019 
L 3366 103 
Q 3103 6 2833 -42 
Q 2563 -91 2291 -91 
Q 1344 -91 809 395 
Q 275 881 275 1747 
Q 275 2613 809 3098 
Q 1344 3584 2291 3584 
Q 2566 3584 2833 3536 
Q 3100 3488 3366 3391 
z
" transform="scale(0.015625)"/>
      <path id="DejaVuSans-Bold-61" d="M 2106 1575 
Q 1756 1575 1579 1456 
Q 1403 1338 1403 1106 
Q 1403 894 1545 773 
Q 1688 653 1941 653 
Q 2256 653 2472 879 
Q 2688 1106 2688 1447 
L 2688 1575 
L 2106 1575 
z
M 3816 1997 
L 3816 0 
L 2688 0 
L 2688 519 
Q 2463 200 2181 54 
Q 1900 -91 1497 -91 
Q 953 -91 614 226 
Q 275 544 275 1050 
Q 275 1666 698 1953 
Q 1122 2241 2028 2241 
L 2688 2241 
L 2688 2328 
Q 2688 2594 2478 2717 
Q 2269 2841 1825 2841 
Q 1466 2841 1156 2769 
Q 847 2697 581 2553 
L 581 3406 
Q 941 3494 1303 3539 
Q 1666 3584 2028 3584 
Q 2975 3584 3395 3211 
Q 3816 2838 3816 1997 
z
" transform="scale(0.015625)"/>
      <path id="DejaVuSans-Bold-20" transform="scale(0.015625)"/>
      <path id="DejaVuSans-Bold-53" d="M 3834 4519 
L 3834 3531 
Q 3450 3703 3084 3790 
Q 2719 3878 2394 3878 
Q 1963 3878 1756 3759 
Q 1550 3641 1550 3391 
Q 1550 3203 1689 3098 
Q 1828 2994 2194 2919 
L 2706 2816 
Q 3484 2659 3812 2340 
Q 4141 2022 4141 1434 
Q 4141 663 3683 286 
Q 3225 -91 2284 -91 
Q 1841 -91 1394 -6 
Q 947 78 500 244 
L 500 1259 
Q 947 1022 1364 901 
Q 1781 781 2169 781 
Q 2563 781 2772 912 
Q 2981 1044 2981 1288 
Q 2981 1506 2839 1625 
Q 2697 1744 2272 1838 
L 1806 1941 
Q 1106 2091 782 2419 
Q 459 2747 459 3303 
Q 459 4000 909 4375 
Q 1359 4750 2203 4750 
Q 2588 4750 2994 4692 
Q 3400 4634 3834 4519 
z
" transform="scale(0.015625)"/>
      <path id="DejaVuSans-Bold-66" d="M 2841 4863 
L 2841 4128 
L 2222 4128 
Q 1984 4128 1890 4042 
Q 1797 3956 1797 3744 
L 1797 3500 
L 2753 3500 
L 2753 2700 
L 1797 2700 
L 1797 0 
L 678 0 
L 678 2700 
L 122 2700 
L 122 3500 
L 678 3500 
L 678 3744 
Q 678 4316 997 4589 
Q 1316 4863 1984 4863 
L 2841 4863 
z
" transform="scale(0.015625)"/>
      <path id="DejaVuSans-Bold-65" d="M 4031 1759 
L 4031 1441 
L 1416 1441 
Q 1456 1047 1700 850 
Q 1944 653 2381 653 
Q 2734 653 3104 758 
Q 3475 863 3866 1075 
L 3866 213 
Q 3469 63 3072 -14 
Q 2675 -91 2278 -91 
Q 1328 -91 801 392 
Q 275 875 275 1747 
Q 275 2603 792 3093 
Q 1309 3584 2216 3584 
Q 3041 3584 3536 3087 
Q 4031 2591 4031 1759 
z
M 2881 2131 
Q 2881 2450 2695 2645 
Q 2509 2841 2209 2841 
Q 1884 2841 1681 2658 
Q 1478 2475 1428 2131 
L 2881 2131 
z
" transform="scale(0.015625)"/>
      <path id="DejaVuSans-Bold-74" d="M 1759 4494 
L 1759 3500 
L 2913 3500 
L 2913 2700 
L 1759 2700 
L 1759 1216 
Q 1759 972 1856 886 
Q 1953 800 2241 800 
L 2816 800 
L 2816 0 
L 1856 0 
Q 1194 0 917 276 
Q 641 553 641 1216 
L 641 2700 
L 84 2700 
L 84 3500 
L 641 3500 
L 641 4494 
L 1759 4494 
z
" transform="scale(0.015625)"/>
      <path id="DejaVuSans-Bold-79" d="M 78 3500 
L 1197 3500 
L 2138 1125 
L 2938 3500 
L 4056 3500 
L 2584 -331 
Q 2363 -916 2067 -1148 
Q 1772 -1381 1288 -1381 
L 641 -1381 
L 641 -647 
L 991 -647 
Q 1275 -647 1404 -556 
Q 1534 -466 1606 -231 
L 1638 -134 
L 78 3500 
z
" transform="scale(0.015625)"/>
      <path id="DejaVuSans-Bold-54" d="M 31 4666 
L 4331 4666 
L 4331 3756 
L 2784 3756 
L 2784 0 
L 1581 0 
L 1581 3756 
L 31 3756 
L 31 4666 
z
" transform="scale(0.015625)"/>
      <path id="DejaVuSans-Bold-62" d="M 2400 722 
Q 2759 722 2948 984 
Q 3138 1247 3138 1747 
Q 3138 2247 2948 2509 
Q 2759 2772 2400 2772 
Q 2041 2772 1848 2508 
Q 1656 2244 1656 1747 
Q 1656 1250 1848 986 
Q 2041 722 2400 722 
z
M 1656 2988 
Q 1888 3294 2169 3439 
Q 2450 3584 2816 3584 
Q 3463 3584 3878 3070 
Q 4294 2556 4294 1747 
Q 4294 938 3878 423 
Q 3463 -91 2816 -91 
Q 2450 -91 2169 54 
Q 1888 200 1656 506 
L 1656 0 
L 538 0 
L 538 4863 
L 1656 4863 
L 1656 2988 
z
" transform="scale(0.015625)"/>
      <path id="DejaVuSans-Bold-28" d="M 2413 -844 
L 1484 -844 
Q 1006 -72 778 623 
Q 550 1319 550 2003 
Q 550 2688 779 3389 
Q 1009 4091 1484 4856 
L 2413 4856 
Q 2013 4116 1813 3408 
Q 1613 2700 1613 2009 
Q 1613 1319 1811 609 
Q 2009 -100 2413 -844 
z
" transform="scale(0.015625)"/>
      <path id="DejaVuSans-Bold-52" d="M 2297 2597 
Q 2675 2597 2839 2737 
Q 3003 2878 3003 3200 
Q 3003 3519 2839 3656 
Q 2675 3794 2297 3794 
L 1791 3794 
L 1791 2597 
L 2297 2597 
z
M 1791 1766 
L 1791 0 
L 588 0 
L 588 4666 
L 2425 4666 
Q 3347 4666 3776 4356 
Q 4206 4047 4206 3378 
Q 4206 2916 3982 2619 
Q 3759 2322 3309 2181 
Q 3556 2125 3751 1926 
Q 3947 1728 4147 1325 
L 4800 0 
L 3519 0 
L 2950 1159 
Q 2778 1509 2601 1637 
Q 2425 1766 2131 1766 
L 1791 1766 
z
" transform="scale(0.015625)"/>
      <path id="DejaVuSans-Bold-73" d="M 3272 3391 
L 3272 2541 
Q 2913 2691 2578 2766 
Q 2244 2841 1947 2841 
Q 1628 2841 1473 2761 
Q 1319 2681 1319 2516 
Q 1319 2381 1436 2309 
Q 1553 2238 1856 2203 
L 2053 2175 
Q 2913 2066 3209 1816 
Q 3506 1566 3506 1031 
Q 3506 472 3093 190 
Q 2681 -91 1863 -91 
Q 1516 -91 1145 -36 
Q 775 19 384 128 
L 384 978 
Q 719 816 1070 734 
Q 1422 653 1784 653 
Q 2113 653 2278 743 
Q 2444 834 2444 1013 
Q 2444 1163 2330 1236 
Q 2216 1309 1875 1350 
L 1678 1375 
Q 931 1469 631 1722 
Q 331 1975 331 2491 
Q 331 3047 712 3315 
Q 1094 3584 1881 3584 
Q 2191 3584 2531 3537 
Q 2872 3491 3272 3391 
z
" transform="scale(0.015625)"/>
      <path id="DejaVuSans-Bold-6f" d="M 2203 2784 
Q 1831 2784 1636 2517 
Q 1441 2250 1441 1747 
Q 1441 1244 1636 976 
Q 1831 709 2203 709 
Q 2569 709 2762 976 
Q 2956 1244 2956 1747 
Q 2956 2250 2762 2517 
Q 2569 2784 2203 2784 
z
M 2203 3584 
Q 3106 3584 3614 3096 
Q 4122 2609 4122 1747 
Q 4122 884 3614 396 
Q 3106 -91 2203 -91 
Q 1297 -91 786 396 
Q 275 884 275 1747 
Q 275 2609 786 3096 
Q 1297 3584 2203 3584 
z
" transform="scale(0.015625)"/>
      <path id="DejaVuSans-Bold-75" d="M 500 1363 
L 500 3500 
L 1625 3500 
L 1625 3150 
Q 1625 2866 1622 2436 
Q 1619 2006 1619 1863 
Q 1619 1441 1641 1255 
Q 1663 1069 1716 984 
Q 1784 875 1895 815 
Q 2006 756 2150 756 
Q 2500 756 2700 1025 
Q 2900 1294 2900 1772 
L 2900 3500 
L 4019 3500 
L 4019 0 
L 2900 0 
L 2900 506 
Q 2647 200 2364 54 
Q 2081 -91 1741 -91 
Q 1134 -91 817 281 
Q 500 653 500 1363 
z
" transform="scale(0.015625)"/>
      <path id="DejaVuSans-Bold-72" d="M 3138 2547 
Q 2991 2616 2845 2648 
Q 2700 2681 2553 2681 
Q 2122 2681 1889 2404 
Q 1656 2128 1656 1613 
L 1656 0 
L 538 0 
L 538 3500 
L 1656 3500 
L 1656 2925 
Q 1872 3269 2151 3426 
Q 2431 3584 2822 3584 
Q 2878 3584 2943 3579 
Q 3009 3575 3134 3559 
L 3138 2547 
z
" transform="scale(0.015625)"/>
      <path id="DejaVuSans-Bold-29" d="M 513 -844 
Q 913 -100 1113 609 
Q 1313 1319 1313 2009 
Q 1313 2700 1113 3408 
Q 913 4116 513 4856 
L 1441 4856 
Q 1916 4091 2145 3389 
Q 2375 2688 2375 2003 
Q 2375 1319 2147 623 
Q 1919 -72 1441 -844 
L 513 -844 
z
" transform="scale(0.015625)"/>
     </defs>
     <use xlink:href="#DejaVuSans-Bold-43"/>
     <use xlink:href="#DejaVuSans-Bold-6c" x="73.388672"/>
     <use xlink:href="#DejaVuSans-Bold-69" x="107.666016"/>
     <use xlink:href="#DejaVuSans-Bold-6e" x="141.943359"/>
     <use xlink:href="#DejaVuSans-Bold-69" x="213.134766"/>
     <use xlink:href="#DejaVuSans-Bold-63" x="247.412109"/>
     <use xlink:href="#DejaVuSans-Bold-61" x="306.689453"/>
     <use xlink:href="#DejaVuSans-Bold-6c" x="374.169922"/>
     <use xlink:href="#DejaVuSans-Bold-20" x="408.447266"/>
     <use xlink:href="#DejaVuSans-Bold-53" x="443.261719"/>
     <use xlink:href="#DejaVuSans-Bold-61" x="515.283203"/>
     <use xlink:href="#DejaVuSans-Bold-66" x="582.763672"/>
     <use xlink:href="#DejaVuSans-Bold-65" x="626.269531"/>
     <use xlink:href="#DejaVuSans-Bold-74" x="694.091797"/>
     <use xlink:href="#DejaVuSans-Bold-79" x="741.894531"/>
     <use xlink:href="#DejaVuSans-Bold-20" x="807.080078"/>
     <use xlink:href="#DejaVuSans-Bold-54" x="841.894531"/>
     <use xlink:href="#DejaVuSans-Bold-61" x="897.232422"/>
     <use xlink:href="#DejaVuSans-Bold-62" x="964.712891"/>
     <use xlink:href="#DejaVuSans-Bold-6c" x="1036.294922"/>
     <use xlink:href="#DejaVuSans-Bold-65" x="1070.572266"/>
     <use xlink:href="#DejaVuSans-Bold-20" x="1138.394531"/>
     <use xlink:href="#DejaVuSans-Bold-28" x="1173.208984"/>
     <use xlink:href="#DejaVuSans-Bold-43" x="1218.912109"/>
     <use xlink:href="#DejaVuSans-Bold-53" x="1294.175781"/>
     <use xlink:href="#DejaVuSans-Bold-52" x="1366.197266"/>
     <use xlink:href="#DejaVuSans-Bold-20" x="1443.199219"/>
     <use xlink:href="#DejaVuSans-Bold-73" x="1478.013672"/>
     <use xlink:href="#DejaVuSans-Bold-6f" x="1537.535156"/>
     <use xlink:href="#DejaVuSans-Bold-75" x="1606.236328"/>
     <use xlink:href="#DejaVuSans-Bold-72" x="1677.427734"/>
     <use xlink:href="#DejaVuSans-Bold-63" x="1726.744141"/>
     <use xlink:href="#DejaVuSans-Bold-65" x="1786.021484"/>
     <use xlink:href="#DejaVuSans-Bold-29" x="1853.84375"/>
    </g>
   </g>
   <g id="text_2">
    <!-- PDF / DOCX / Image / Plain text -->
    <g style="fill: #555555" transform="translate(373.616797 91.67661) scale(0.07 -0.07)">
     <defs>
      <path id="DejaVuSans-Oblique-50" d="M 1081 4666 
L 2541 4666 
Q 3178 4666 3512 4369 
Q 3847 4072 3847 3500 
Q 3847 2731 3353 2303 
Q 2859 1875 1966 1875 
L 1172 1875 
L 806 0 
L 172 0 
L 1081 4666 
z
M 1613 4147 
L 1275 2394 
L 2069 2394 
Q 2606 2394 2893 2669 
Q 3181 2944 3181 3456 
Q 3181 3784 2986 3965 
Q 2791 4147 2438 4147 
L 1613 4147 
z
" transform="scale(0.015625)"/>
      <path id="DejaVuSans-Oblique-44" d="M 1081 4666 
L 2438 4666 
Q 3519 4666 4070 4208 
Q 4622 3750 4622 2847 
Q 4622 2250 4412 1698 
Q 4203 1147 3834 769 
Q 3463 381 2891 190 
Q 2319 0 1538 0 
L 172 0 
L 1081 4666 
z
M 1613 4147 
L 909 519 
L 1734 519 
Q 2794 519 3375 1128 
Q 3956 1738 3956 2847 
Q 3956 3519 3581 3833 
Q 3206 4147 2406 4147 
L 1613 4147 
z
" transform="scale(0.015625)"/>
      <path id="DejaVuSans-Oblique-46" d="M 1081 4666 
L 3756 4666 
L 3653 4134 
L 1606 4134 
L 1338 2759 
L 3188 2759 
L 3084 2228 
L 1234 2228 
L 800 0 
L 172 0 
L 1081 4666 
z
" transform="scale(0.015625)"/>
      <path id="DejaVuSans-Oblique-20" transform="scale(0.015625)"/>
      <path id="DejaVuSans-Oblique-2f" d="M 2175 4666 
L 2731 4666 
L 84 -594 
L -469 -594 
L 2175 4666 
z
" transform="scale(0.015625)"/>
      <path id="DejaVuSans-Oblique-4f" d="M 2919 4238 
Q 2400 4238 2003 3986 
Q 1606 3734 1313 3219 
Q 1125 2891 1026 2522 
Q 928 2153 928 1778 
Q 928 1128 1239 775 
Q 1550 422 2119 422 
Q 2631 422 3032 676 
Q 3434 931 3719 1434 
Q 3909 1772 4009 2142 
Q 4109 2513 4109 2881 
Q 4109 3528 3796 3883 
Q 3484 4238 2919 4238 
z
M 2100 -91 
Q 1241 -91 748 418 
Q 256 928 256 1813 
Q 256 2319 448 2847 
Q 641 3375 978 3788 
Q 1375 4272 1862 4511 
Q 2350 4750 2938 4750 
Q 3794 4750 4287 4245 
Q 4781 3741 4781 2869 
Q 4781 2331 4593 1812 
Q 4406 1294 4056 872 
Q 3656 384 3173 146 
Q 2691 -91 2100 -91 
z
" transform="scale(0.015625)"/>
      <path id="DejaVuSans-Oblique-43" d="M 4447 4306 
L 4319 3641 
Q 4019 3944 3683 4091 
Q 3347 4238 2956 4238 
Q 2422 4238 2017 3981 
Q 1613 3725 1319 3200 
Q 1131 2863 1032 2486 
Q 934 2109 934 1728 
Q 934 1091 1264 756 
Q 1594 422 2222 422 
Q 2656 422 3056 561 
Q 3456 700 3834 978 
L 3688 231 
Q 3316 72 2936 -9 
Q 2556 -91 2175 -91 
Q 1278 -91 773 396 
Q 269 884 269 1753 
Q 269 2309 461 2846 
Q 653 3384 1013 3828 
Q 1394 4300 1883 4525 
Q 2372 4750 3022 4750 
Q 3422 4750 3780 4639 
Q 4138 4528 4447 4306 
z
" transform="scale(0.015625)"/>
      <path id="DejaVuSans-Oblique-58" d="M 878 4666 
L 1516 4666 
L 2316 2981 
L 3763 4666 
L 4500 4666 
L 2578 2438 
L 3738 0 
L 3103 0 
L 2163 1966 
L 459 0 
L -275 0 
L 1906 2509 
L 878 4666 
z
" transform="scale(0.015625)"/>
      <path id="DejaVuSans-Oblique-49" d="M 1081 4666 
L 1716 4666 
L 806 0 
L 172 0 
L 1081 4666 
z
" transform="scale(0.015625)"/>
      <path id="DejaVuSans-Oblique-6d" d="M 5747 2113 
L 5338 0 
L 4763 0 
L 5166 2094 
Q 5191 2228 5203 2325 
Q 5216 2422 5216 2491 
Q 5216 2772 5059 2928 
Q 4903 3084 4622 3084 
Q 4203 3084 3875 2770 
Q 3547 2456 3450 1953 
L 3066 0 
L 2491 0 
L 2900 2094 
Q 2925 2209 2937 2307 
Q 2950 2406 2950 2484 
Q 2950 2769 2794 2926 
Q 2638 3084 2363 3084 
Q 1938 3084 1609 2770 
Q 1281 2456 1184 1953 
L 800 0 
L 225 0 
L 909 3500 
L 1484 3500 
L 1375 2956 
Q 1609 3263 1923 3423 
Q 2238 3584 2597 3584 
Q 2978 3584 3223 3384 
Q 3469 3184 3519 2828 
Q 3781 3197 4126 3390 
Q 4472 3584 4856 3584 
Q 5306 3584 5551 3325 
Q 5797 3066 5797 2591 
Q 5797 2488 5784 2364 
Q 5772 2241 5747 2113 
z
" transform="scale(0.015625)"/>
      <path id="DejaVuSans-Oblique-61" d="M 3438 1997 
L 3047 0 
L 2472 0 
L 2578 531 
Q 2325 219 2001 64 
Q 1678 -91 1281 -91 
Q 834 -91 548 182 
Q 263 456 263 884 
Q 263 1497 752 1853 
Q 1241 2209 2100 2209 
L 2900 2209 
L 2931 2363 
Q 2938 2388 2941 2417 
Q 2944 2447 2944 2509 
Q 2944 2788 2717 2942 
Q 2491 3097 2081 3097 
Q 1800 3097 1504 3025 
Q 1209 2953 897 2809 
L 997 3341 
Q 1322 3463 1633 3523 
Q 1944 3584 2234 3584 
Q 2853 3584 3176 3315 
Q 3500 3047 3500 2534 
Q 3500 2431 3484 2292 
Q 3469 2153 3438 1997 
z
M 2816 1759 
L 2241 1759 
Q 1534 1759 1195 1570 
Q 856 1381 856 984 
Q 856 709 1029 553 
Q 1203 397 1509 397 
Q 1978 397 2328 733 
Q 2678 1069 2791 1631 
L 2816 1759 
z
" transform="scale(0.015625)"/>
      <path id="DejaVuSans-Oblique-67" d="M 3816 3500 
L 3219 434 
Q 3047 -456 2561 -893 
Q 2075 -1331 1253 -1331 
Q 950 -1331 690 -1286 
Q 431 -1241 206 -1147 
L 313 -588 
Q 525 -725 762 -790 
Q 1000 -856 1269 -856 
Q 1816 -856 2167 -557 
Q 2519 -259 2631 300 
L 2681 563 
Q 2441 288 2122 144 
Q 1803 0 1434 0 
Q 903 0 598 351 
Q 294 703 294 1319 
Q 294 1803 478 2267 
Q 663 2731 997 3091 
Q 1219 3328 1514 3456 
Q 1809 3584 2131 3584 
Q 2484 3584 2746 3420 
Q 3009 3256 3138 2956 
L 3238 3500 
L 3816 3500 
z
M 2950 2216 
Q 2950 2641 2750 2872 
Q 2550 3103 2181 3103 
Q 1953 3103 1747 3012 
Q 1541 2922 1394 2759 
Q 1156 2491 1023 2127 
Q 891 1763 891 1375 
Q 891 944 1092 712 
Q 1294 481 1672 481 
Q 2219 481 2584 976 
Q 2950 1472 2950 2216 
z
" transform="scale(0.015625)"/>
      <path id="DejaVuSans-Oblique-65" d="M 3078 2063 
Q 3088 2113 3092 2166 
Q 3097 2219 3097 2272 
Q 3097 2653 2873 2875 
Q 2650 3097 2266 3097 
Q 1838 3097 1509 2826 
Q 1181 2556 1013 2059 
L 3078 2063 
z
M 3578 1613 
L 903 1613 
Q 884 1494 878 1425 
Q 872 1356 872 1306 
Q 872 872 1139 634 
Q 1406 397 1894 397 
Q 2269 397 2603 481 
Q 2938 566 3225 728 
L 3116 159 
Q 2806 34 2476 -28 
Q 2147 -91 1806 -91 
Q 1078 -91 686 257 
Q 294 606 294 1247 
Q 294 1794 489 2264 
Q 684 2734 1063 3103 
Q 1306 3334 1642 3459 
Q 1978 3584 2356 3584 
Q 2950 3584 3301 3228 
Q 3653 2872 3653 2272 
Q 3653 2128 3634 1964 
Q 3616 1800 3578 1613 
z
" transform="scale(0.015625)"/>
      <path id="DejaVuSans-Oblique-6c" d="M 1172 4863 
L 1747 4863 
L 800 0 
L 225 0 
L 1172 4863 
z
" transform="scale(0.015625)"/>
      <path id="DejaVuSans-Oblique-69" d="M 1172 4863 
L 1747 4863 
L 1606 4134 
L 1031 4134 
L 1172 4863 
z
M 909 3500 
L 1484 3500 
L 800 0 
L 225 0 
L 909 3500 
z
" transform="scale(0.015625)"/>
      <path id="DejaVuSans-Oblique-6e" d="M 3566 2113 
L 3156 0 
L 2578 0 
L 2988 2091 
Q 3016 2238 3031 2350 
Q 3047 2463 3047 2528 
Q 3047 2791 2881 2937 
Q 2716 3084 2419 3084 
Q 1956 3084 1622 2776 
Q 1288 2469 1184 1941 
L 800 0 
L 225 0 
L 903 3500 
L 1478 3500 
L 1363 2950 
Q 1603 3253 1940 3418 
Q 2278 3584 2650 3584 
Q 3113 3584 3367 3334 
Q 3622 3084 3622 2631 
Q 3622 2519 3608 2391 
Q 3594 2263 3566 2113 
z
" transform="scale(0.015625)"/>
      <path id="DejaVuSans-Oblique-74" d="M 2706 3500 
L 2619 3053 
L 1472 3053 
L 1100 1153 
Q 1081 1047 1072 975 
Q 1063 903 1063 863 
Q 1063 663 1183 572 
Q 1303 481 1569 481 
L 2150 481 
L 2053 0 
L 1503 0 
Q 991 0 739 200 
Q 488 400 488 806 
Q 488 878 497 964 
Q 506 1050 525 1153 
L 897 3053 
L 409 3053 
L 500 3500 
L 978 3500 
L 1172 4494 
L 1747 4494 
L 1556 3500 
L 2706 3500 
z
" transform="scale(0.015625)"/>
      <path id="DejaVuSans-Oblique-78" d="M 3841 3500 
L 2234 1784 
L 3219 0 
L 2559 0 
L 1819 1388 
L 531 0 
L -166 0 
L 1556 1844 
L 641 3500 
L 1300 3500 
L 1972 2234 
L 3144 3500 
L 3841 3500 
z
" transform="scale(0.015625)"/>
     </defs>
     <use xlink:href="#DejaVuSans-Oblique-50"/>
     <use xlink:href="#DejaVuSans-Oblique-44" x="60.302734"/>
     <use xlink:href="#DejaVuSans-Oblique-46" x="137.304688"/>
     <use xlink:href="#DejaVuSans-Oblique-20" x="194.824219"/>
     <use xlink:href="#DejaVuSans-Oblique-2f" x="226.611328"/>
     <use xlink:href="#DejaVuSans-Oblique-20" x="260.302734"/>
     <use xlink:href="#DejaVuSans-Oblique-44" x="292.089844"/>
     <use xlink:href="#DejaVuSans-Oblique-4f" x="369.091797"/>
     <use xlink:href="#DejaVuSans-Oblique-43" x="447.802734"/>
     <use xlink:href="#DejaVuSans-Oblique-58" x="517.626953"/>
     <use xlink:href="#DejaVuSans-Oblique-20" x="586.132812"/>
     <use xlink:href="#DejaVuSans-Oblique-2f" x="617.919922"/>
     <use xlink:href="#DejaVuSans-Oblique-20" x="651.611328"/>
     <use xlink:href="#DejaVuSans-Oblique-49" x="683.398438"/>
     <use xlink:href="#DejaVuSans-Oblique-6d" x="712.890625"/>
     <use xlink:href="#DejaVuSans-Oblique-61" x="810.302734"/>
     <use xlink:href="#DejaVuSans-Oblique-67" x="871.582031"/>
     <use xlink:href="#DejaVuSans-Oblique-65" x="935.058594"/>
     <use xlink:href="#DejaVuSans-Oblique-20" x="996.582031"/>
     <use xlink:href="#DejaVuSans-Oblique-2f" x="1028.369141"/>
     <use xlink:href="#DejaVuSans-Oblique-20" x="1062.060547"/>
     <use xlink:href="#DejaVuSans-Oblique-50" x="1093.847656"/>
     <use xlink:href="#DejaVuSans-Oblique-6c" x="1154.150391"/>
     <use xlink:href="#DejaVuSans-Oblique-61" x="1181.933594"/>
     <use xlink:href="#DejaVuSans-Oblique-69" x="1243.212891"/>
     <use xlink:href="#DejaVuSans-Oblique-6e" x="1270.996094"/>
     <use xlink:href="#DejaVuSans-Oblique-20" x="1334.375"/>
     <use xlink:href="#DejaVuSans-Oblique-74" x="1366.162109"/>
     <use xlink:href="#DejaVuSans-Oblique-65" x="1405.371094"/>
     <use xlink:href="#DejaVuSans-Oblique-78" x="1466.894531"/>
     <use xlink:href="#DejaVuSans-Oblique-74" x="1526.074219"/>
    </g>
   </g>
   <g id="patch_10">
    <path d="M 428.4 96.614722 
Q 428.4 109.824997 428.4 121.693631 
" style="fill: none; stroke: #aaaaaa; stroke-width: 1.2; stroke-linecap: round"/>
    <path d="M 430.4 117.693631 
L 428.4 121.693631 
L 426.4 117.693631 
" style="fill: none; stroke: #aaaaaa; stroke-width: 1.2; stroke-linecap: round"/>
   </g>
   <g id="text_3">
    <!-- Arm Parser + Slot Extractor -->
    <g style="fill: #1a1a2e" transform="translate(358.048125 138.47337) scale(0.09 -0.09)">
     <defs>
      <path id="DejaVuSans-Bold-41" d="M 3419 850 
L 1538 850 
L 1241 0 
L 31 0 
L 1759 4666 
L 3194 4666 
L 4922 0 
L 3713 0 
L 3419 850 
z
M 1838 1716 
L 3116 1716 
L 2478 3572 
L 1838 1716 
z
" transform="scale(0.015625)"/>
      <path id="DejaVuSans-Bold-6d" d="M 3781 2919 
Q 3994 3244 4286 3414 
Q 4578 3584 4928 3584 
Q 5531 3584 5847 3212 
Q 6163 2841 6163 2131 
L 6163 0 
L 5038 0 
L 5038 1825 
Q 5041 1866 5042 1909 
Q 5044 1953 5044 2034 
Q 5044 2406 4934 2573 
Q 4825 2741 4581 2741 
Q 4263 2741 4089 2478 
Q 3916 2216 3909 1719 
L 3909 0 
L 2784 0 
L 2784 1825 
Q 2784 2406 2684 2573 
Q 2584 2741 2328 2741 
Q 2006 2741 1831 2477 
Q 1656 2213 1656 1722 
L 1656 0 
L 531 0 
L 531 3500 
L 1656 3500 
L 1656 2988 
Q 1863 3284 2130 3434 
Q 2397 3584 2719 3584 
Q 3081 3584 3359 3409 
Q 3638 3234 3781 2919 
z
" transform="scale(0.015625)"/>
      <path id="DejaVuSans-Bold-50" d="M 588 4666 
L 2584 4666 
Q 3475 4666 3951 4270 
Q 4428 3875 4428 3144 
Q 4428 2409 3951 2014 
Q 3475 1619 2584 1619 
L 1791 1619 
L 1791 0 
L 588 0 
L 588 4666 
z
M 1791 3794 
L 1791 2491 
L 2456 2491 
Q 2806 2491 2997 2661 
Q 3188 2831 3188 3144 
Q 3188 3456 2997 3625 
Q 2806 3794 2456 3794 
L 1791 3794 
z
" transform="scale(0.015625)"/>
      <path id="DejaVuSans-Bold-2b" d="M 3053 4013 
L 3053 2375 
L 4684 2375 
L 4684 1638 
L 3053 1638 
L 3053 0 
L 2309 0 
L 2309 1638 
L 678 1638 
L 678 2375 
L 2309 2375 
L 2309 4013 
L 3053 4013 
z
" transform="scale(0.015625)"/>
      <path id="DejaVuSans-Bold-45" d="M 588 4666 
L 3834 4666 
L 3834 3756 
L 1791 3756 
L 1791 2888 
L 3713 2888 
L 3713 1978 
L 1791 1978 
L 1791 909 
L 3903 909 
L 3903 0 
L 588 0 
L 588 4666 
z
" transform="scale(0.015625)"/>
      <path id="DejaVuSans-Bold-78" d="M 1422 1791 
L 159 3500 
L 1344 3500 
L 2059 2463 
L 2784 3500 
L 3969 3500 
L 2706 1797 
L 4031 0 
L 2847 0 
L 2059 1106 
L 1281 0 
L 97 0 
L 1422 1791 
z
" transform="scale(0.015625)"/>
     </defs>
     <use xlink:href="#DejaVuSans-Bold-41"/>
     <use xlink:href="#DejaVuSans-Bold-72" x="77.392578"/>
     <use xlink:href="#DejaVuSans-Bold-6d" x="126.708984"/>
     <use xlink:href="#DejaVuSans-Bold-20" x="230.908203"/>
     <use xlink:href="#DejaVuSans-Bold-50" x="265.722656"/>
     <use xlink:href="#DejaVuSans-Bold-61" x="336.388672"/>
     <use xlink:href="#DejaVuSans-Bold-72" x="403.869141"/>
     <use xlink:href="#DejaVuSans-Bold-73" x="453.185547"/>
     <use xlink:href="#DejaVuSans-Bold-65" x="512.707031"/>
     <use xlink:href="#DejaVuSans-Bold-72" x="580.529297"/>
     <use xlink:href="#DejaVuSans-Bold-20" x="629.845703"/>
     <use xlink:href="#DejaVuSans-Bold-2b" x="664.660156"/>
     <use xlink:href="#DejaVuSans-Bold-20" x="748.449219"/>
     <use xlink:href="#DejaVuSans-Bold-53" x="783.263672"/>
     <use xlink:href="#DejaVuSans-Bold-6c" x="855.285156"/>
     <use xlink:href="#DejaVuSans-Bold-6f" x="889.5625"/>
     <use xlink:href="#DejaVuSans-Bold-74" x="958.263672"/>
     <use xlink:href="#DejaVuSans-Bold-20" x="1006.066406"/>
     <use xlink:href="#DejaVuSans-Bold-45" x="1040.880859"/>
     <use xlink:href="#DejaVuSans-Bold-78" x="1109.191406"/>
     <use xlink:href="#DejaVuSans-Bold-74" x="1173.693359"/>
     <use xlink:href="#DejaVuSans-Bold-72" x="1221.496094"/>
     <use xlink:href="#DejaVuSans-Bold-61" x="1270.8125"/>
     <use xlink:href="#DejaVuSans-Bold-63" x="1338.292969"/>
     <use xlink:href="#DejaVuSans-Bold-74" x="1397.570312"/>
     <use xlink:href="#DejaVuSans-Bold-6f" x="1445.373047"/>
     <use xlink:href="#DejaVuSans-Bold-72" x="1514.074219"/>
    </g>
   </g>
   <g id="text_4">
    <!-- Identifies arms, N counts, row types -->
    <g style="fill: #555555" transform="translate(365.244141 158.609996) scale(0.07 -0.07)">
     <defs>
      <path id="DejaVuSans-Oblique-64" d="M 2675 525 
Q 2444 222 2128 65 
Q 1813 -91 1428 -91 
Q 903 -91 598 267 
Q 294 625 294 1247 
Q 294 1766 478 2236 
Q 663 2706 1013 3078 
Q 1244 3325 1534 3454 
Q 1825 3584 2144 3584 
Q 2481 3584 2739 3421 
Q 2997 3259 3138 2956 
L 3513 4863 
L 4091 4863 
L 3144 0 
L 2566 0 
L 2675 525 
z
M 891 1350 
Q 891 897 1095 644 
Q 1300 391 1663 391 
Q 1931 391 2161 520 
Q 2391 650 2566 903 
Q 2750 1166 2856 1509 
Q 2963 1853 2963 2188 
Q 2963 2622 2758 2865 
Q 2553 3109 2194 3109 
Q 1922 3109 1687 2981 
Q 1453 2853 1288 2613 
Q 1106 2353 998 2009 
Q 891 1666 891 1350 
z
" transform="scale(0.015625)"/>
      <path id="DejaVuSans-Oblique-66" d="M 3059 4863 
L 2969 4384 
L 2419 4384 
Q 2106 4384 1964 4261 
Q 1822 4138 1753 3809 
L 1691 3500 
L 2638 3500 
L 2553 3053 
L 1606 3053 
L 1013 0 
L 434 0 
L 1031 3053 
L 481 3053 
L 563 3500 
L 1113 3500 
L 1159 3744 
Q 1278 4363 1576 4613 
Q 1875 4863 2516 4863 
L 3059 4863 
z
" transform="scale(0.015625)"/>
      <path id="DejaVuSans-Oblique-73" d="M 3200 3397 
L 3091 2853 
Q 2863 2978 2609 3040 
Q 2356 3103 2088 3103 
Q 1634 3103 1373 2948 
Q 1113 2794 1113 2528 
Q 1113 2219 1719 2053 
Q 1766 2041 1788 2034 
L 1972 1978 
Q 2547 1819 2739 1644 
Q 2931 1469 2931 1166 
Q 2931 609 2489 259 
Q 2047 -91 1331 -91 
Q 1053 -91 747 -37 
Q 441 16 72 128 
L 184 722 
Q 500 559 806 475 
Q 1113 391 1394 391 
Q 1816 391 2080 572 
Q 2344 753 2344 1031 
Q 2344 1331 1650 1516 
L 1591 1531 
L 1394 1581 
Q 956 1697 753 1886 
Q 550 2075 550 2369 
Q 550 2928 970 3256 
Q 1391 3584 2113 3584 
Q 2397 3584 2667 3537 
Q 2938 3491 3200 3397 
z
" transform="scale(0.015625)"/>
      <path id="DejaVuSans-Oblique-72" d="M 2853 2969 
Q 2766 3016 2653 3041 
Q 2541 3066 2413 3066 
Q 1953 3066 1609 2717 
Q 1266 2369 1153 1784 
L 800 0 
L 225 0 
L 909 3500 
L 1484 3500 
L 1375 2956 
Q 1603 3259 1920 3421 
Q 2238 3584 2597 3584 
Q 2691 3584 2781 3573 
Q 2872 3563 2963 3538 
L 2853 2969 
z
" transform="scale(0.015625)"/>
      <path id="DejaVuSans-Oblique-2c" d="M 575 794 
L 1234 794 
L 1131 256 
L 422 -744 
L 19 -744 
L 469 256 
L 575 794 
z
" transform="scale(0.015625)"/>
      <path id="DejaVuSans-Oblique-4e" d="M 1081 4666 
L 1931 4666 
L 3219 666 
L 4000 4666 
L 4616 4666 
L 3706 0 
L 2853 0 
L 1569 4025 
L 788 0 
L 172 0 
L 1081 4666 
z
" transform="scale(0.015625)"/>
      <path id="DejaVuSans-Oblique-63" d="M 3431 3366 
L 3316 2797 
Q 3109 2947 2876 3022 
Q 2644 3097 2394 3097 
Q 2119 3097 1870 3000 
Q 1622 2903 1453 2725 
Q 1184 2453 1037 2087 
Q 891 1722 891 1331 
Q 891 859 1127 628 
Q 1363 397 1844 397 
Q 2081 397 2348 469 
Q 2616 541 2906 684 
L 2797 116 
Q 2547 13 2283 -39 
Q 2019 -91 1741 -91 
Q 1044 -91 669 257 
Q 294 606 294 1253 
Q 294 1797 489 2255 
Q 684 2713 1069 3078 
Q 1331 3328 1684 3456 
Q 2038 3584 2456 3584 
Q 2700 3584 2940 3529 
Q 3181 3475 3431 3366 
z
" transform="scale(0.015625)"/>
      <path id="DejaVuSans-Oblique-6f" d="M 1625 -91 
Q 1009 -91 651 289 
Q 294 669 294 1325 
Q 294 1706 417 2101 
Q 541 2497 738 2766 
Q 1047 3184 1428 3384 
Q 1809 3584 2291 3584 
Q 2888 3584 3255 3212 
Q 3622 2841 3622 2241 
Q 3622 1825 3500 1412 
Q 3378 1000 3181 728 
Q 2875 309 2494 109 
Q 2113 -91 1625 -91 
z
M 891 1344 
Q 891 869 1089 633 
Q 1288 397 1691 397 
Q 2269 397 2648 901 
Q 3028 1406 3028 2181 
Q 3028 2634 2825 2865 
Q 2622 3097 2228 3097 
Q 1903 3097 1650 2945 
Q 1397 2794 1197 2484 
Q 1050 2253 970 1956 
Q 891 1659 891 1344 
z
" transform="scale(0.015625)"/>
      <path id="DejaVuSans-Oblique-75" d="M 428 1388 
L 838 3500 
L 1416 3500 
L 1006 1409 
Q 975 1256 961 1147 
Q 947 1038 947 966 
Q 947 700 1109 554 
Q 1272 409 1569 409 
Q 2031 409 2368 721 
Q 2706 1034 2809 1563 
L 3194 3500 
L 3769 3500 
L 3091 0 
L 2516 0 
L 2631 550 
Q 2388 244 2052 76 
Q 1716 -91 1338 -91 
Q 878 -91 622 161 
Q 366 413 366 863 
Q 366 956 381 1097 
Q 397 1238 428 1388 
z
" transform="scale(0.015625)"/>
      <path id="DejaVuSans-Oblique-77" d="M 544 3500 
L 1113 3500 
L 1259 684 
L 2566 3500 
L 3231 3500 
L 3425 684 
L 4666 3500 
L 5241 3500 
L 3641 0 
L 2969 0 
L 2797 2900 
L 1459 0 
L 781 0 
L 544 3500 
z
" transform="scale(0.015625)"/>
      <path id="DejaVuSans-Oblique-79" d="M 1588 -325 
Q 1188 -997 936 -1164 
Q 684 -1331 294 -1331 
L -159 -1331 
L -63 -850 
L 269 -850 
Q 509 -850 678 -719 
Q 847 -588 1056 -206 
L 1234 128 
L 459 3500 
L 1069 3500 
L 1650 819 
L 3256 3500 
L 3859 3500 
L 1588 -325 
z
" transform="scale(0.015625)"/>
      <path id="DejaVuSans-Oblique-70" d="M 3175 2156 
Q 3175 2616 2975 2859 
Q 2775 3103 2400 3103 
Q 2144 3103 1911 2972 
Q 1678 2841 1497 2591 
Q 1319 2344 1212 1994 
Q 1106 1644 1106 1300 
Q 1106 863 1306 627 
Q 1506 391 1875 391 
Q 2147 391 2380 519 
Q 2613 647 2778 891 
Q 2956 1147 3065 1494 
Q 3175 1841 3175 2156 
z
M 1394 2969 
Q 1625 3272 1939 3428 
Q 2253 3584 2638 3584 
Q 3175 3584 3472 3232 
Q 3769 2881 3769 2247 
Q 3769 1728 3584 1258 
Q 3400 788 3053 416 
Q 2822 169 2531 39 
Q 2241 -91 1919 -91 
Q 1547 -91 1294 64 
Q 1041 219 916 525 
L 556 -1331 
L -19 -1331 
L 922 3500 
L 1497 3500 
L 1394 2969 
z
" transform="scale(0.015625)"/>
     </defs>
     <use xlink:href="#DejaVuSans-Oblique-49"/>
     <use xlink:href="#DejaVuSans-Oblique-64" x="29.492188"/>
     <use xlink:href="#DejaVuSans-Oblique-65" x="92.96875"/>
     <use xlink:href="#DejaVuSans-Oblique-6e" x="154.492188"/>
     <use xlink:href="#DejaVuSans-Oblique-74" x="217.871094"/>
     <use xlink:href="#DejaVuSans-Oblique-69" x="257.080078"/>
     <use xlink:href="#DejaVuSans-Oblique-66" x="284.863281"/>
     <use xlink:href="#DejaVuSans-Oblique-69" x="320.068359"/>
     <use xlink:href="#DejaVuSans-Oblique-65" x="347.851562"/>
     <use xlink:href="#DejaVuSans-Oblique-73" x="409.375"/>
     <use xlink:href="#DejaVuSans-Oblique-20" x="461.474609"/>
     <use xlink:href="#DejaVuSans-Oblique-61" x="493.261719"/>
     <use xlink:href="#DejaVuSans-Oblique-72" x="554.541016"/>
     <use xlink:href="#DejaVuSans-Oblique-6d" x="595.654297"/>
     <use xlink:href="#DejaVuSans-Oblique-73" x="693.066406"/>
     <use xlink:href="#DejaVuSans-Oblique-2c" x="745.166016"/>
     <use xlink:href="#DejaVuSans-Oblique-20" x="776.953125"/>
     <use xlink:href="#DejaVuSans-Oblique-4e" x="808.740234"/>
     <use xlink:href="#DejaVuSans-Oblique-20" x="883.544922"/>
     <use xlink:href="#DejaVuSans-Oblique-63" x="915.332031"/>
     <use xlink:href="#DejaVuSans-Oblique-6f" x="970.3125"/>
     <use xlink:href="#DejaVuSans-Oblique-75" x="1031.494141"/>
     <use xlink:href="#DejaVuSans-Oblique-6e" x="1094.873047"/>
     <use xlink:href="#DejaVuSans-Oblique-74" x="1158.251953"/>
     <use xlink:href="#DejaVuSans-Oblique-73" x="1197.460938"/>
     <use xlink:href="#DejaVuSans-Oblique-2c" x="1249.560547"/>
     <use xlink:href="#DejaVuSans-Oblique-20" x="1281.347656"/>
     <use xlink:href="#DejaVuSans-Oblique-72" x="1313.134766"/>
     <use xlink:href="#DejaVuSans-Oblique-6f" x="1354.248047"/>
     <use xlink:href="#DejaVuSans-Oblique-77" x="1415.429688"/>
     <use xlink:href="#DejaVuSans-Oblique-20" x="1497.216797"/>
     <use xlink:href="#DejaVuSans-Oblique-74" x="1529.003906"/>
     <use xlink:href="#DejaVuSans-Oblique-79" x="1568.212891"/>
     <use xlink:href="#DejaVuSans-Oblique-70" x="1627.392578"/>
     <use xlink:href="#DejaVuSans-Oblique-65" x="1690.869141"/>
     <use xlink:href="#DejaVuSans-Oblique-73" x="1752.392578"/>
    </g>
   </g>
   <g id="patch_11">
    <path d="M 279.087248 162.202563 
Q 228.328768 179.801304 178.837899 196.960545 
" style="fill: none; stroke: #aaaaaa; stroke-width: 1.2; stroke-linecap: round"/>
    <path d="M 183.272356 197.539852 
L 178.837899 196.960545 
L 181.962019 193.760564 
" style="fill: none; stroke: #aaaaaa; stroke-width: 1.2; stroke-linecap: round"/>
   </g>
   <g id="patch_12">
    <path d="M 577.712752 162.202563 
Q 628.471232 179.801304 677.962101 196.960545 
" style="fill: none; stroke: #aaaaaa; stroke-width: 1.2; stroke-linecap: round"/>
    <path d="M 674.837981 193.760564 
L 677.962101 196.960545 
L 673.527644 197.539852 
" style="fill: none; stroke: #aaaaaa; stroke-width: 1.2; stroke-linecap: round"/>
   </g>
   <g id="text_5">
    <!-- ML Deterministic Path -->
    <g style="fill: #155724" transform="translate(119.402578 211.49161) scale(0.09 -0.09)">
     <defs>
      <path id="DejaVuSans-Bold-4d" d="M 588 4666 
L 2119 4666 
L 3181 2169 
L 4250 4666 
L 5778 4666 
L 5778 0 
L 4641 0 
L 4641 3413 
L 3566 897 
L 2803 897 
L 1728 3413 
L 1728 0 
L 588 0 
L 588 4666 
z
" transform="scale(0.015625)"/>
      <path id="DejaVuSans-Bold-4c" d="M 588 4666 
L 1791 4666 
L 1791 909 
L 3903 909 
L 3903 0 
L 588 0 
L 588 4666 
z
" transform="scale(0.015625)"/>
      <path id="DejaVuSans-Bold-44" d="M 1791 3756 
L 1791 909 
L 2222 909 
Q 2959 909 3348 1275 
Q 3738 1641 3738 2338 
Q 3738 3031 3350 3393 
Q 2963 3756 2222 3756 
L 1791 3756 
z
M 588 4666 
L 1856 4666 
Q 2919 4666 3439 4514 
Q 3959 4363 4331 4000 
Q 4659 3684 4818 3271 
Q 4978 2859 4978 2338 
Q 4978 1809 4818 1395 
Q 4659 981 4331 666 
Q 3956 303 3431 151 
Q 2906 0 1856 0 
L 588 0 
L 588 4666 
z
" transform="scale(0.015625)"/>
      <path id="DejaVuSans-Bold-68" d="M 4056 2131 
L 4056 0 
L 2931 0 
L 2931 347 
L 2931 1625 
Q 2931 2084 2911 2256 
Q 2891 2428 2841 2509 
Q 2775 2619 2662 2680 
Q 2550 2741 2406 2741 
Q 2056 2741 1856 2470 
Q 1656 2200 1656 1722 
L 1656 0 
L 538 0 
L 538 4863 
L 1656 4863 
L 1656 2988 
Q 1909 3294 2193 3439 
Q 2478 3584 2822 3584 
Q 3428 3584 3742 3212 
Q 4056 2841 4056 2131 
z
" transform="scale(0.015625)"/>
     </defs>
     <use xlink:href="#DejaVuSans-Bold-4d"/>
     <use xlink:href="#DejaVuSans-Bold-4c" x="99.511719"/>
     <use xlink:href="#DejaVuSans-Bold-20" x="163.232422"/>
     <use xlink:href="#DejaVuSans-Bold-44" x="198.046875"/>
     <use xlink:href="#DejaVuSans-Bold-65" x="281.054688"/>
     <use xlink:href="#DejaVuSans-Bold-74" x="348.876953"/>
     <use xlink:href="#DejaVuSans-Bold-65" x="396.679688"/>
     <use xlink:href="#DejaVuSans-Bold-72" x="464.501953"/>
     <use xlink:href="#DejaVuSans-Bold-6d" x="513.818359"/>
     <use xlink:href="#DejaVuSans-Bold-69" x="618.017578"/>
     <use xlink:href="#DejaVuSans-Bold-6e" x="652.294922"/>
     <use xlink:href="#DejaVuSans-Bold-69" x="723.486328"/>
     <use xlink:href="#DejaVuSans-Bold-73" x="757.763672"/>
     <use xlink:href="#DejaVuSans-Bold-74" x="817.285156"/>
     <use xlink:href="#DejaVuSans-Bold-69" x="865.087891"/>
     <use xlink:href="#DejaVuSans-Bold-63" x="899.365234"/>
     <use xlink:href="#DejaVuSans-Bold-20" x="958.642578"/>
     <use xlink:href="#DejaVuSans-Bold-50" x="993.457031"/>
     <use xlink:href="#DejaVuSans-Bold-61" x="1064.123047"/>
     <use xlink:href="#DejaVuSans-Bold-74" x="1131.603516"/>
     <use xlink:href="#DejaVuSans-Bold-68" x="1179.40625"/>
    </g>
   </g>
   <g id="text_6">
    <!-- SlotFill + KNN retrieval + template -->
    <g style="fill: #555555" transform="translate(114.564531 231.628236) scale(0.07 -0.07)">
     <defs>
      <path id="DejaVuSans-Oblique-53" d="M 3859 4513 
L 3738 3897 
Q 3422 4066 3111 4152 
Q 2800 4238 2509 4238 
Q 1944 4238 1609 3991 
Q 1275 3744 1275 3334 
Q 1275 3109 1398 2989 
Q 1522 2869 2034 2731 
L 2413 2638 
Q 3053 2472 3303 2217 
Q 3553 1963 3553 1503 
Q 3553 797 2998 353 
Q 2444 -91 1538 -91 
Q 1166 -91 791 -17 
Q 416 56 38 206 
L 166 856 
Q 513 641 861 531 
Q 1209 422 1556 422 
Q 2147 422 2503 684 
Q 2859 947 2859 1369 
Q 2859 1650 2717 1795 
Q 2575 1941 2106 2059 
L 1728 2156 
Q 1081 2325 845 2545 
Q 609 2766 609 3163 
Q 609 3859 1145 4304 
Q 1681 4750 2541 4750 
Q 2875 4750 3203 4690 
Q 3531 4631 3859 4513 
z
" transform="scale(0.015625)"/>
      <path id="DejaVuSans-Oblique-2b" d="M 2944 4013 
L 2944 2272 
L 4684 2272 
L 4684 1741 
L 2944 1741 
L 2944 0 
L 2419 0 
L 2419 1741 
L 678 1741 
L 678 2272 
L 2419 2272 
L 2419 4013 
L 2944 4013 
z
" transform="scale(0.015625)"/>
      <path id="DejaVuSans-Oblique-4b" d="M 1081 4666 
L 1716 4666 
L 1331 2700 
L 3781 4666 
L 4622 4666 
L 1850 2438 
L 3878 0 
L 3109 0 
L 1247 2272 
L 806 0 
L 172 0 
L 1081 4666 
z
" transform="scale(0.015625)"/>
      <path id="DejaVuSans-Oblique-76" d="M 459 3500 
L 1069 3500 
L 1581 525 
L 3256 3500 
L 3866 3500 
L 1875 0 
L 1100 0 
L 459 3500 
z
" transform="scale(0.015625)"/>
     </defs>
     <use xlink:href="#DejaVuSans-Oblique-53"/>
     <use xlink:href="#DejaVuSans-Oblique-6c" x="63.476562"/>
     <use xlink:href="#DejaVuSans-Oblique-6f" x="91.259766"/>
     <use xlink:href="#DejaVuSans-Oblique-74" x="152.441406"/>
     <use xlink:href="#DejaVuSans-Oblique-46" x="191.650391"/>
     <use xlink:href="#DejaVuSans-Oblique-69" x="249.169922"/>
     <use xlink:href="#DejaVuSans-Oblique-6c" x="276.953125"/>
     <use xlink:href="#DejaVuSans-Oblique-6c" x="304.736328"/>
     <use xlink:href="#DejaVuSans-Oblique-20" x="332.519531"/>
     <use xlink:href="#DejaVuSans-Oblique-2b" x="364.306641"/>
     <use xlink:href="#DejaVuSans-Oblique-20" x="448.095703"/>
     <use xlink:href="#DejaVuSans-Oblique-4b" x="479.882812"/>
     <use xlink:href="#DejaVuSans-Oblique-4e" x="545.458984"/>
     <use xlink:href="#DejaVuSans-Oblique-4e" x="620.263672"/>
     <use xlink:href="#DejaVuSans-Oblique-20" x="695.068359"/>
     <use xlink:href="#DejaVuSans-Oblique-72" x="726.855469"/>
     <use xlink:href="#DejaVuSans-Oblique-65" x="767.96875"/>
     <use xlink:href="#DejaVuSans-Oblique-74" x="829.492188"/>
     <use xlink:href="#DejaVuSans-Oblique-72" x="868.701172"/>
     <use xlink:href="#DejaVuSans-Oblique-69" x="909.814453"/>
     <use xlink:href="#DejaVuSans-Oblique-65" x="937.597656"/>
     <use xlink:href="#DejaVuSans-Oblique-76" x="999.121094"/>
     <use xlink:href="#DejaVuSans-Oblique-61" x="1058.300781"/>
     <use xlink:href="#DejaVuSans-Oblique-6c" x="1119.580078"/>
     <use xlink:href="#DejaVuSans-Oblique-20" x="1147.363281"/>
     <use xlink:href="#DejaVuSans-Oblique-2b" x="1179.150391"/>
     <use xlink:href="#DejaVuSans-Oblique-20" x="1262.939453"/>
     <use xlink:href="#DejaVuSans-Oblique-74" x="1294.726562"/>
     <use xlink:href="#DejaVuSans-Oblique-65" x="1333.935547"/>
     <use xlink:href="#DejaVuSans-Oblique-6d" x="1395.458984"/>
     <use xlink:href="#DejaVuSans-Oblique-70" x="1492.871094"/>
     <use xlink:href="#DejaVuSans-Oblique-6c" x="1556.347656"/>
     <use xlink:href="#DejaVuSans-Oblique-61" x="1584.130859"/>
     <use xlink:href="#DejaVuSans-Oblique-74" x="1645.410156"/>
     <use xlink:href="#DejaVuSans-Oblique-65" x="1684.619141"/>
    </g>
   </g>
   <g id="patch_13">
    <path d="M 175.68 236.565606 
Q 175.68 252.819194 175.68 267.731141 
" style="fill: none; stroke: #aaaaaa; stroke-width: 1.2; stroke-linecap: round"/>
    <path d="M 177.68 263.731141 
L 175.68 267.731141 
L 173.68 263.731141 
" style="fill: none; stroke: #aaaaaa; stroke-width: 1.2; stroke-linecap: round"/>
   </g>
   <g id="text_7">
    <!-- DL Generation Path -->
    <g style="fill: #004085" transform="translate(631.566563 211.49161) scale(0.09 -0.09)">
     <defs>
      <path id="DejaVuSans-Bold-47" d="M 4781 347 
Q 4331 128 3847 18 
Q 3363 -91 2847 -91 
Q 1681 -91 1000 561 
Q 319 1213 319 2328 
Q 319 3456 1012 4103 
Q 1706 4750 2913 4750 
Q 3378 4750 3804 4662 
Q 4231 4575 4609 4403 
L 4609 3438 
Q 4219 3659 3833 3768 
Q 3447 3878 3059 3878 
Q 2341 3878 1952 3476 
Q 1563 3075 1563 2328 
Q 1563 1588 1938 1184 
Q 2313 781 3003 781 
Q 3191 781 3352 804 
Q 3513 828 3641 878 
L 3641 1784 
L 2906 1784 
L 2906 2591 
L 4781 2591 
L 4781 347 
z
" transform="scale(0.015625)"/>
     </defs>
     <use xlink:href="#DejaVuSans-Bold-44"/>
     <use xlink:href="#DejaVuSans-Bold-4c" x="83.007812"/>
     <use xlink:href="#DejaVuSans-Bold-20" x="146.728516"/>
     <use xlink:href="#DejaVuSans-Bold-47" x="181.542969"/>
     <use xlink:href="#DejaVuSans-Bold-65" x="263.623047"/>
     <use xlink:href="#DejaVuSans-Bold-6e" x="331.445312"/>
     <use xlink:href="#DejaVuSans-Bold-65" x="402.636719"/>
     <use xlink:href="#DejaVuSans-Bold-72" x="470.458984"/>
     <use xlink:href="#DejaVuSans-Bold-61" x="519.775391"/>
     <use xlink:href="#DejaVuSans-Bold-74" x="587.255859"/>
     <use xlink:href="#DejaVuSans-Bold-69" x="635.058594"/>
     <use xlink:href="#DejaVuSans-Bold-6f" x="669.335938"/>
     <use xlink:href="#DejaVuSans-Bold-6e" x="738.037109"/>
     <use xlink:href="#DejaVuSans-Bold-20" x="809.228516"/>
     <use xlink:href="#DejaVuSans-Bold-50" x="844.042969"/>
     <use xlink:href="#DejaVuSans-Bold-61" x="914.708984"/>
     <use xlink:href="#DejaVuSans-Bold-74" x="982.189453"/>
     <use xlink:href="#DejaVuSans-Bold-68" x="1029.992188"/>
    </g>
   </g>
   <g id="text_8">
    <!-- Flan-T5-XL + QLoRA adapter rewrite -->
    <g style="fill: #555555" transform="translate(617.769453 231.628236) scale(0.07 -0.07)">
     <defs>
      <path id="DejaVuSans-Oblique-2d" d="M 391 2009 
L 2075 2009 
L 1978 1497 
L 288 1497 
L 391 2009 
z
" transform="scale(0.015625)"/>
      <path id="DejaVuSans-Oblique-54" d="M 378 4666 
L 4325 4666 
L 4225 4134 
L 2559 4134 
L 1759 0 
L 1125 0 
L 1925 4134 
L 275 4134 
L 378 4666 
z
" transform="scale(0.015625)"/>
      <path id="DejaVuSans-Oblique-35" d="M 3719 4666 
L 3622 4141 
L 1691 4141 
L 1466 2988 
Q 1609 3034 1757 3056 
Q 1906 3078 2059 3078 
Q 2706 3078 3081 2731 
Q 3456 2384 3456 1791 
Q 3456 1375 3264 994 
Q 3072 613 2719 325 
Q 2469 125 2108 17 
Q 1747 -91 1319 -91 
Q 1038 -91 744 -41 
Q 450 9 128 109 
L 244 697 
Q 531 556 820 486 
Q 1109 416 1403 416 
Q 2013 416 2411 781 
Q 2809 1147 2809 1697 
Q 2809 2103 2548 2328 
Q 2288 2553 1819 2553 
Q 1572 2553 1305 2495 
Q 1038 2438 756 2322 
L 1209 4666 
L 3719 4666 
z
" transform="scale(0.015625)"/>
      <path id="DejaVuSans-Oblique-4c" d="M 1075 4666 
L 1709 4666 
L 909 525 
L 3181 525 
L 3078 0 
L 172 0 
L 1075 4666 
z
" transform="scale(0.015625)"/>
      <path id="DejaVuSans-Oblique-51" d="M 2309 -84 
Q 2275 -88 2237 -89 
Q 2200 -91 2125 -91 
Q 1250 -91 756 411 
Q 263 913 263 1797 
Q 263 2319 452 2844 
Q 641 3369 978 3788 
Q 1369 4269 1858 4509 
Q 2347 4750 2938 4750 
Q 3794 4750 4287 4245 
Q 4781 3741 4781 2869 
Q 4781 1928 4265 1147 
Q 3750 366 2919 44 
L 3553 -825 
L 2847 -825 
L 2309 -84 
z
M 2919 4238 
Q 2400 4238 2003 3986 
Q 1606 3734 1313 3219 
Q 1125 2891 1026 2522 
Q 928 2153 928 1778 
Q 928 1128 1239 775 
Q 1550 422 2119 422 
Q 2631 422 3032 676 
Q 3434 931 3719 1434 
Q 3909 1772 4009 2142 
Q 4109 2513 4109 2881 
Q 4109 3528 3796 3883 
Q 3484 4238 2919 4238 
z
" transform="scale(0.015625)"/>
      <path id="DejaVuSans-Oblique-52" d="M 1613 4147 
L 1294 2491 
L 2106 2491 
Q 2584 2491 2879 2755 
Q 3175 3019 3175 3444 
Q 3175 3784 2976 3965 
Q 2778 4147 2406 4147 
L 1613 4147 
z
M 2772 2241 
Q 2972 2194 3105 2009 
Q 3238 1825 3413 1275 
L 3809 0 
L 3144 0 
L 2778 1197 
Q 2638 1659 2453 1815 
Q 2269 1972 1888 1972 
L 1191 1972 
L 806 0 
L 172 0 
L 1081 4666 
L 2503 4666 
Q 3150 4666 3495 4373 
Q 3841 4081 3841 3531 
Q 3841 3044 3547 2687 
Q 3253 2331 2772 2241 
z
" transform="scale(0.015625)"/>
      <path id="DejaVuSans-Oblique-41" d="M 2356 4666 
L 3072 4666 
L 3938 0 
L 3278 0 
L 3084 1197 
L 984 1197 
L 325 0 
L -341 0 
L 2356 4666 
z
M 2584 4044 
L 1275 1722 
L 2988 1722 
L 2584 4044 
z
" transform="scale(0.015625)"/>
     </defs>
     <use xlink:href="#DejaVuSans-Oblique-46"/>
     <use xlink:href="#DejaVuSans-Oblique-6c" x="57.519531"/>
     <use xlink:href="#DejaVuSans-Oblique-61" x="85.302734"/>
     <use xlink:href="#DejaVuSans-Oblique-6e" x="146.582031"/>
     <use xlink:href="#DejaVuSans-Oblique-2d" x="209.960938"/>
     <use xlink:href="#DejaVuSans-Oblique-54" x="238.794922"/>
     <use xlink:href="#DejaVuSans-Oblique-35" x="299.878906"/>
     <use xlink:href="#DejaVuSans-Oblique-2d" x="363.501953"/>
     <use xlink:href="#DejaVuSans-Oblique-58" x="395.960938"/>
     <use xlink:href="#DejaVuSans-Oblique-4c" x="464.466797"/>
     <use xlink:href="#DejaVuSans-Oblique-20" x="520.179688"/>
     <use xlink:href="#DejaVuSans-Oblique-2b" x="551.966797"/>
     <use xlink:href="#DejaVuSans-Oblique-20" x="635.755859"/>
     <use xlink:href="#DejaVuSans-Oblique-51" x="667.542969"/>
     <use xlink:href="#DejaVuSans-Oblique-4c" x="746.253906"/>
     <use xlink:href="#DejaVuSans-Oblique-6f" x="801.966797"/>
     <use xlink:href="#DejaVuSans-Oblique-52" x="863.148438"/>
     <use xlink:href="#DejaVuSans-Oblique-41" x="932.630859"/>
     <use xlink:href="#DejaVuSans-Oblique-20" x="1001.039062"/>
     <use xlink:href="#DejaVuSans-Oblique-61" x="1032.826172"/>
     <use xlink:href="#DejaVuSans-Oblique-64" x="1094.105469"/>
     <use xlink:href="#DejaVuSans-Oblique-61" x="1157.582031"/>
     <use xlink:href="#DejaVuSans-Oblique-70" x="1218.861328"/>
     <use xlink:href="#DejaVuSans-Oblique-74" x="1282.337891"/>
     <use xlink:href="#DejaVuSans-Oblique-65" x="1321.546875"/>
     <use xlink:href="#DejaVuSans-Oblique-72" x="1383.070312"/>
     <use xlink:href="#DejaVuSans-Oblique-20" x="1424.183594"/>
     <use xlink:href="#DejaVuSans-Oblique-72" x="1455.970703"/>
     <use xlink:href="#DejaVuSans-Oblique-65" x="1497.083984"/>
     <use xlink:href="#DejaVuSans-Oblique-77" x="1558.607422"/>
     <use xlink:href="#DejaVuSans-Oblique-72" x="1640.394531"/>
     <use xlink:href="#DejaVuSans-Oblique-69" x="1681.507812"/>
     <use xlink:href="#DejaVuSans-Oblique-74" x="1709.291016"/>
     <use xlink:href="#DejaVuSans-Oblique-65" x="1748.5"/>
    </g>
   </g>
   <g id="patch_14">
    <path d="M 681.12 236.565606 
Q 681.12 252.819194 681.12 267.731141 
" style="fill: none; stroke: #aaaaaa; stroke-width: 1.2; stroke-linecap: round"/>
    <path d="M 683.12 263.731141 
L 681.12 267.731141 
L 679.12 263.731141 
" style="fill: none; stroke: #aaaaaa; stroke-width: 1.2; stroke-linecap: round"/>
   </g>
   <g id="text_9">
    <!-- ML Candidate Summary -->
    <g style="fill: #155724" transform="translate(115.422188 284.474694) scale(0.09 -0.09)">
     <defs>
      <path id="DejaVuSans-Bold-64" d="M 2919 2988 
L 2919 4863 
L 4044 4863 
L 4044 0 
L 2919 0 
L 2919 506 
Q 2688 197 2409 53 
Q 2131 -91 1766 -91 
Q 1119 -91 703 423 
Q 288 938 288 1747 
Q 288 2556 703 3070 
Q 1119 3584 1766 3584 
Q 2128 3584 2408 3439 
Q 2688 3294 2919 2988 
z
M 2181 722 
Q 2541 722 2730 984 
Q 2919 1247 2919 1747 
Q 2919 2247 2730 2509 
Q 2541 2772 2181 2772 
Q 1825 2772 1636 2509 
Q 1447 2247 1447 1747 
Q 1447 1247 1636 984 
Q 1825 722 2181 722 
z
" transform="scale(0.015625)"/>
     </defs>
     <use xlink:href="#DejaVuSans-Bold-4d"/>
     <use xlink:href="#DejaVuSans-Bold-4c" x="99.511719"/>
     <use xlink:href="#DejaVuSans-Bold-20" x="163.232422"/>
     <use xlink:href="#DejaVuSans-Bold-43" x="198.046875"/>
     <use xlink:href="#DejaVuSans-Bold-61" x="271.435547"/>
     <use xlink:href="#DejaVuSans-Bold-6e" x="338.916016"/>
     <use xlink:href="#DejaVuSans-Bold-64" x="410.107422"/>
     <use xlink:href="#DejaVuSans-Bold-69" x="481.689453"/>
     <use xlink:href="#DejaVuSans-Bold-64" x="515.966797"/>
     <use xlink:href="#DejaVuSans-Bold-61" x="587.548828"/>
     <use xlink:href="#DejaVuSans-Bold-74" x="655.029297"/>
     <use xlink:href="#DejaVuSans-Bold-65" x="702.832031"/>
     <use xlink:href="#DejaVuSans-Bold-20" x="770.654297"/>
     <use xlink:href="#DejaVuSans-Bold-53" x="805.46875"/>
     <use xlink:href="#DejaVuSans-Bold-75" x="877.490234"/>
     <use xlink:href="#DejaVuSans-Bold-6d" x="948.681641"/>
     <use xlink:href="#DejaVuSans-Bold-6d" x="1052.880859"/>
     <use xlink:href="#DejaVuSans-Bold-61" x="1157.080078"/>
     <use xlink:href="#DejaVuSans-Bold-72" x="1224.560547"/>
     <use xlink:href="#DejaVuSans-Bold-79" x="1273.876953"/>
    </g>
   </g>
   <g id="text_10">
    <!-- Slot-verified, template-grounded -->
    <g style="fill: #555555" transform="translate(118.369687 304.646476) scale(0.07 -0.07)">
     <use xlink:href="#DejaVuSans-Oblique-53"/>
     <use xlink:href="#DejaVuSans-Oblique-6c" x="63.476562"/>
     <use xlink:href="#DejaVuSans-Oblique-6f" x="91.259766"/>
     <use xlink:href="#DejaVuSans-Oblique-74" x="152.441406"/>
     <use xlink:href="#DejaVuSans-Oblique-2d" x="191.650391"/>
     <use xlink:href="#DejaVuSans-Oblique-76" x="227.734375"/>
     <use xlink:href="#DejaVuSans-Oblique-65" x="286.914062"/>
     <use xlink:href="#DejaVuSans-Oblique-72" x="348.4375"/>
     <use xlink:href="#DejaVuSans-Oblique-69" x="389.550781"/>
     <use xlink:href="#DejaVuSans-Oblique-66" x="417.333984"/>
     <use xlink:href="#DejaVuSans-Oblique-69" x="452.539062"/>
     <use xlink:href="#DejaVuSans-Oblique-65" x="480.322266"/>
     <use xlink:href="#DejaVuSans-Oblique-64" x="541.845703"/>
     <use xlink:href="#DejaVuSans-Oblique-2c" x="605.322266"/>
     <use xlink:href="#DejaVuSans-Oblique-20" x="637.109375"/>
     <use xlink:href="#DejaVuSans-Oblique-74" x="668.896484"/>
     <use xlink:href="#DejaVuSans-Oblique-65" x="708.105469"/>
     <use xlink:href="#DejaVuSans-Oblique-6d" x="769.628906"/>
     <use xlink:href="#DejaVuSans-Oblique-70" x="867.041016"/>
     <use xlink:href="#DejaVuSans-Oblique-6c" x="930.517578"/>
     <use xlink:href="#DejaVuSans-Oblique-61" x="958.300781"/>
     <use xlink:href="#DejaVuSans-Oblique-74" x="1019.580078"/>
     <use xlink:href="#DejaVuSans-Oblique-65" x="1058.789062"/>
     <use xlink:href="#DejaVuSans-Oblique-2d" x="1120.3125"/>
     <use xlink:href="#DejaVuSans-Oblique-67" x="1156.396484"/>
     <use xlink:href="#DejaVuSans-Oblique-72" x="1219.873047"/>
     <use xlink:href="#DejaVuSans-Oblique-6f" x="1260.986328"/>
     <use xlink:href="#DejaVuSans-Oblique-75" x="1322.167969"/>
     <use xlink:href="#DejaVuSans-Oblique-6e" x="1385.546875"/>
     <use xlink:href="#DejaVuSans-Oblique-64" x="1448.925781"/>
     <use xlink:href="#DejaVuSans-Oblique-65" x="1512.402344"/>
     <use xlink:href="#DejaVuSans-Oblique-64" x="1573.925781"/>
    </g>
   </g>
   <g id="text_11">
    <!-- DL Rewrite Candidate -->
    <g style="fill: #004085" transform="translate(625.976719 284.50985) scale(0.09 -0.09)">
     <defs>
      <path id="DejaVuSans-Bold-77" d="M 225 3500 
L 1313 3500 
L 1900 1088 
L 2491 3500 
L 3425 3500 
L 4013 1113 
L 4603 3500 
L 5691 3500 
L 4769 0 
L 3547 0 
L 2956 2406 
L 2369 0 
L 1147 0 
L 225 3500 
z
" transform="scale(0.015625)"/>
     </defs>
     <use xlink:href="#DejaVuSans-Bold-44"/>
     <use xlink:href="#DejaVuSans-Bold-4c" x="83.007812"/>
     <use xlink:href="#DejaVuSans-Bold-20" x="146.728516"/>
     <use xlink:href="#DejaVuSans-Bold-52" x="181.542969"/>
     <use xlink:href="#DejaVuSans-Bold-65" x="258.544922"/>
     <use xlink:href="#DejaVuSans-Bold-77" x="326.367188"/>
     <use xlink:href="#DejaVuSans-Bold-72" x="418.75"/>
     <use xlink:href="#DejaVuSans-Bold-69" x="468.066406"/>
     <use xlink:href="#DejaVuSans-Bold-74" x="502.34375"/>
     <use xlink:href="#DejaVuSans-Bold-65" x="550.146484"/>
     <use xlink:href="#DejaVuSans-Bold-20" x="617.96875"/>
     <use xlink:href="#DejaVuSans-Bold-43" x="652.783203"/>
     <use xlink:href="#DejaVuSans-Bold-61" x="726.171875"/>
     <use xlink:href="#DejaVuSans-Bold-6e" x="793.652344"/>
     <use xlink:href="#DejaVuSans-Bold-64" x="864.84375"/>
     <use xlink:href="#DejaVuSans-Bold-69" x="936.425781"/>
     <use xlink:href="#DejaVuSans-Bold-64" x="970.703125"/>
     <use xlink:href="#DejaVuSans-Bold-61" x="1042.285156"/>
     <use xlink:href="#DejaVuSans-Bold-74" x="1109.765625"/>
     <use xlink:href="#DejaVuSans-Bold-65" x="1157.568359"/>
    </g>
   </g>
   <g id="text_12">
    <!-- Higher fluency, unverified -->
    <g style="fill: #555555" transform="translate(635.974375 304.646476) scale(0.07 -0.07)">
     <defs>
      <path id="DejaVuSans-Oblique-48" d="M 1081 4666 
L 1716 4666 
L 1344 2753 
L 3634 2753 
L 4006 4666 
L 4641 4666 
L 3731 0 
L 3097 0 
L 3531 2222 
L 1241 2222 
L 806 0 
L 172 0 
L 1081 4666 
z
" transform="scale(0.015625)"/>
      <path id="DejaVuSans-Oblique-68" d="M 3566 2113 
L 3156 0 
L 2578 0 
L 2988 2091 
Q 3016 2238 3031 2350 
Q 3047 2463 3047 2528 
Q 3047 2791 2881 2937 
Q 2716 3084 2419 3084 
Q 1956 3084 1617 2771 
Q 1278 2459 1178 1941 
L 800 0 
L 225 0 
L 1172 4863 
L 1747 4863 
L 1375 2950 
Q 1594 3244 1934 3414 
Q 2275 3584 2650 3584 
Q 3113 3584 3367 3334 
Q 3622 3084 3622 2631 
Q 3622 2519 3608 2391 
Q 3594 2263 3566 2113 
z
" transform="scale(0.015625)"/>
     </defs>
     <use xlink:href="#DejaVuSans-Oblique-48"/>
     <use xlink:href="#DejaVuSans-Oblique-69" x="75.195312"/>
     <use xlink:href="#DejaVuSans-Oblique-67" x="102.978516"/>
     <use xlink:href="#DejaVuSans-Oblique-68" x="166.455078"/>
     <use xlink:href="#DejaVuSans-Oblique-65" x="229.833984"/>
     <use xlink:href="#DejaVuSans-Oblique-72" x="291.357422"/>
     <use xlink:href="#DejaVuSans-Oblique-20" x="332.470703"/>
     <use xlink:href="#DejaVuSans-Oblique-66" x="364.257812"/>
     <use xlink:href="#DejaVuSans-Oblique-6c" x="399.462891"/>
     <use xlink:href="#DejaVuSans-Oblique-75" x="427.246094"/>
     <use xlink:href="#DejaVuSans-Oblique-65" x="490.625"/>
     <use xlink:href="#DejaVuSans-Oblique-6e" x="552.148438"/>
     <use xlink:href="#DejaVuSans-Oblique-63" x="615.527344"/>
     <use xlink:href="#DejaVuSans-Oblique-79" x="670.507812"/>
     <use xlink:href="#DejaVuSans-Oblique-2c" x="721.9375"/>
     <use xlink:href="#DejaVuSans-Oblique-20" x="753.724609"/>
     <use xlink:href="#DejaVuSans-Oblique-75" x="785.511719"/>
     <use xlink:href="#DejaVuSans-Oblique-6e" x="848.890625"/>
     <use xlink:href="#DejaVuSans-Oblique-76" x="912.269531"/>
     <use xlink:href="#DejaVuSans-Oblique-65" x="971.449219"/>
     <use xlink:href="#DejaVuSans-Oblique-72" x="1032.972656"/>
     <use xlink:href="#DejaVuSans-Oblique-69" x="1074.085938"/>
     <use xlink:href="#DejaVuSans-Oblique-66" x="1101.869141"/>
     <use xlink:href="#DejaVuSans-Oblique-69" x="1137.074219"/>
     <use xlink:href="#DejaVuSans-Oblique-65" x="1164.857422"/>
     <use xlink:href="#DejaVuSans-Oblique-64" x="1226.380859"/>
    </g>
   </g>
   <g id="patch_15">
    <path d="M 295.239204 290.500715 
Q 323.101341 310.626192 349.875889 329.966078 
" style="fill: none; stroke: #aaaaaa; stroke-width: 1.2; stroke-linecap: round"/>
    <path d="M 347.804418 326.002619 
L 349.875889 329.966078 
L 345.462239 329.24518 
" style="fill: none; stroke: #aaaaaa; stroke-width: 1.2; stroke-linecap: round"/>
   </g>
   <g id="patch_16">
    <path d="M 561.560796 290.500715 
Q 533.698659 310.626192 506.924111 329.966078 
" style="fill: none; stroke: #aaaaaa; stroke-width: 1.2; stroke-linecap: round"/>
    <path d="M 511.337761 329.24518 
L 506.924111 329.966078 
L 508.995582 326.002619 
" style="fill: none; stroke: #aaaaaa; stroke-width: 1.2; stroke-linecap: round"/>
   </g>
   <g id="text_13">
    <!-- Hallucination Guardian (Verification Gate) -->
    <g style="fill: #856404" transform="translate(321.723984 339.27353) scale(0.09 -0.09)">
     <defs>
      <path id="DejaVuSans-Bold-48" d="M 588 4666 
L 1791 4666 
L 1791 2888 
L 3566 2888 
L 3566 4666 
L 4769 4666 
L 4769 0 
L 3566 0 
L 3566 1978 
L 1791 1978 
L 1791 0 
L 588 0 
L 588 4666 
z
" transform="scale(0.015625)"/>
      <path id="DejaVuSans-Bold-56" d="M 31 4666 
L 1241 4666 
L 2478 1222 
L 3713 4666 
L 4922 4666 
L 3194 0 
L 1759 0 
L 31 4666 
z
" transform="scale(0.015625)"/>
     </defs>
     <use xlink:href="#DejaVuSans-Bold-48"/>
     <use xlink:href="#DejaVuSans-Bold-61" x="83.691406"/>
     <use xlink:href="#DejaVuSans-Bold-6c" x="151.171875"/>
     <use xlink:href="#DejaVuSans-Bold-6c" x="185.449219"/>
     <use xlink:href="#DejaVuSans-Bold-75" x="219.726562"/>
     <use xlink:href="#DejaVuSans-Bold-63" x="290.917969"/>
     <use xlink:href="#DejaVuSans-Bold-69" x="350.195312"/>
     <use xlink:href="#DejaVuSans-Bold-6e" x="384.472656"/>
     <use xlink:href="#DejaVuSans-Bold-61" x="455.664062"/>
     <use xlink:href="#DejaVuSans-Bold-74" x="523.144531"/>
     <use xlink:href="#DejaVuSans-Bold-69" x="570.947266"/>
     <use xlink:href="#DejaVuSans-Bold-6f" x="605.224609"/>
     <use xlink:href="#DejaVuSans-Bold-6e" x="673.925781"/>
     <use xlink:href="#DejaVuSans-Bold-20" x="745.117188"/>
     <use xlink:href="#DejaVuSans-Bold-47" x="779.931641"/>
     <use xlink:href="#DejaVuSans-Bold-75" x="862.011719"/>
     <use xlink:href="#DejaVuSans-Bold-61" x="933.203125"/>
     <use xlink:href="#DejaVuSans-Bold-72" x="1000.683594"/>
     <use xlink:href="#DejaVuSans-Bold-64" x="1050"/>
     <use xlink:href="#DejaVuSans-Bold-69" x="1121.582031"/>
     <use xlink:href="#DejaVuSans-Bold-61" x="1155.859375"/>
     <use xlink:href="#DejaVuSans-Bold-6e" x="1223.339844"/>
     <use xlink:href="#DejaVuSans-Bold-20" x="1294.53125"/>
     <use xlink:href="#DejaVuSans-Bold-28" x="1329.345703"/>
     <use xlink:href="#DejaVuSans-Bold-56" x="1375.048828"/>
     <use xlink:href="#DejaVuSans-Bold-65" x="1446.941406"/>
     <use xlink:href="#DejaVuSans-Bold-72" x="1514.763672"/>
     <use xlink:href="#DejaVuSans-Bold-69" x="1564.080078"/>
     <use xlink:href="#DejaVuSans-Bold-66" x="1598.357422"/>
     <use xlink:href="#DejaVuSans-Bold-69" x="1641.863281"/>
     <use xlink:href="#DejaVuSans-Bold-63" x="1676.140625"/>
     <use xlink:href="#DejaVuSans-Bold-61" x="1735.417969"/>
     <use xlink:href="#DejaVuSans-Bold-74" x="1802.898438"/>
     <use xlink:href="#DejaVuSans-Bold-69" x="1850.701172"/>
     <use xlink:href="#DejaVuSans-Bold-6f" x="1884.978516"/>
     <use xlink:href="#DejaVuSans-Bold-6e" x="1953.679688"/>
     <use xlink:href="#DejaVuSans-Bold-20" x="2024.871094"/>
     <use xlink:href="#DejaVuSans-Bold-47" x="2059.685547"/>
     <use xlink:href="#DejaVuSans-Bold-61" x="2141.765625"/>
     <use xlink:href="#DejaVuSans-Bold-74" x="2209.246094"/>
     <use xlink:href="#DejaVuSans-Bold-65" x="2257.048828"/>
     <use xlink:href="#DejaVuSans-Bold-29" x="2324.871094"/>
    </g>
   </g>
   <g id="text_14">
    <!-- NAR check | ACR check | SWOS | NDI threshold -->
    <g style="fill: #555555" transform="translate(346.076719 359.328125) scale(0.07 -0.07)">
     <defs>
      <path id="DejaVuSans-Oblique-6b" d="M 1172 4863 
L 1747 4863 
L 1197 2028 
L 3169 3500 
L 3916 3500 
L 1716 1825 
L 3322 0 
L 2625 0 
L 1131 1709 
L 800 0 
L 225 0 
L 1172 4863 
z
" transform="scale(0.015625)"/>
      <path id="DejaVuSans-Oblique-7c" d="M 1344 4891 
L 1344 -1509 
L 813 -1509 
L 813 4891 
L 1344 4891 
z
" transform="scale(0.015625)"/>
      <path id="DejaVuSans-Oblique-57" d="M 616 4666 
L 1228 4666 
L 1453 697 
L 3213 4666 
L 3916 4666 
L 4147 697 
L 5888 4666 
L 6528 4666 
L 4453 0 
L 3659 0 
L 3444 3891 
L 1697 0 
L 903 0 
L 616 4666 
z
" transform="scale(0.015625)"/>
     </defs>
     <use xlink:href="#DejaVuSans-Oblique-4e"/>
     <use xlink:href="#DejaVuSans-Oblique-41" x="74.804688"/>
     <use xlink:href="#DejaVuSans-Oblique-52" x="143.212891"/>
     <use xlink:href="#DejaVuSans-Oblique-20" x="212.695312"/>
     <use xlink:href="#DejaVuSans-Oblique-63" x="244.482422"/>
     <use xlink:href="#DejaVuSans-Oblique-68" x="299.462891"/>
     <use xlink:href="#DejaVuSans-Oblique-65" x="362.841797"/>
     <use xlink:href="#DejaVuSans-Oblique-63" x="424.365234"/>
     <use xlink:href="#DejaVuSans-Oblique-6b" x="479.345703"/>
     <use xlink:href="#DejaVuSans-Oblique-20" x="537.255859"/>
     <use xlink:href="#DejaVuSans-Oblique-7c" x="569.042969"/>
     <use xlink:href="#DejaVuSans-Oblique-20" x="602.734375"/>
     <use xlink:href="#DejaVuSans-Oblique-41" x="634.521484"/>
     <use xlink:href="#DejaVuSans-Oblique-43" x="702.929688"/>
     <use xlink:href="#DejaVuSans-Oblique-52" x="772.753906"/>
     <use xlink:href="#DejaVuSans-Oblique-20" x="842.236328"/>
     <use xlink:href="#DejaVuSans-Oblique-63" x="874.023438"/>
     <use xlink:href="#DejaVuSans-Oblique-68" x="929.003906"/>
     <use xlink:href="#DejaVuSans-Oblique-65" x="992.382812"/>
     <use xlink:href="#DejaVuSans-Oblique-63" x="1053.90625"/>
     <use xlink:href="#DejaVuSans-Oblique-6b" x="1108.886719"/>
     <use xlink:href="#DejaVuSans-Oblique-20" x="1166.796875"/>
     <use xlink:href="#DejaVuSans-Oblique-7c" x="1198.583984"/>
     <use xlink:href="#DejaVuSans-Oblique-20" x="1232.275391"/>
     <use xlink:href="#DejaVuSans-Oblique-53" x="1264.0625"/>
     <use xlink:href="#DejaVuSans-Oblique-57" x="1327.539062"/>
     <use xlink:href="#DejaVuSans-Oblique-4f" x="1426.416016"/>
     <use xlink:href="#DejaVuSans-Oblique-53" x="1505.126953"/>
     <use xlink:href="#DejaVuSans-Oblique-20" x="1568.603516"/>
     <use xlink:href="#DejaVuSans-Oblique-7c" x="1600.390625"/>
     <use xlink:href="#DejaVuSans-Oblique-20" x="1634.082031"/>
     <use xlink:href="#DejaVuSans-Oblique-4e" x="1665.869141"/>
     <use xlink:href="#DejaVuSans-Oblique-44" x="1740.673828"/>
     <use xlink:href="#DejaVuSans-Oblique-49" x="1817.675781"/>
     <use xlink:href="#DejaVuSans-Oblique-20" x="1847.167969"/>
     <use xlink:href="#DejaVuSans-Oblique-74" x="1878.955078"/>
     <use xlink:href="#DejaVuSans-Oblique-68" x="1918.164062"/>
     <use xlink:href="#DejaVuSans-Oblique-72" x="1981.542969"/>
     <use xlink:href="#DejaVuSans-Oblique-65" x="2022.65625"/>
     <use xlink:href="#DejaVuSans-Oblique-73" x="2084.179688"/>
     <use xlink:href="#DejaVuSans-Oblique-68" x="2136.279297"/>
     <use xlink:href="#DejaVuSans-Oblique-6f" x="2199.658203"/>
     <use xlink:href="#DejaVuSans-Oblique-6c" x="2260.839844"/>
     <use xlink:href="#DejaVuSans-Oblique-64" x="2288.623047"/>
    </g>
   </g>
   <g id="patch_17">
    <path d="M 428.4 363.131001 
Q 428.4 377.559302 428.4 390.645962 
" style="fill: none; stroke: #aaaaaa; stroke-width: 1.2; stroke-linecap: round"/>
    <path d="M 430.4 386.645962 
L 428.4 390.645962 
L 426.4 386.645962 
" style="fill: none; stroke: #aaaaaa; stroke-width: 1.2; stroke-linecap: round"/>
   </g>
   <g id="patch_18">
    <path d="M 552.766344 359.472058 
Q 428.399788 369.952561 305.147317 380.33918 
" style="fill: none; stroke-dasharray: 3.7,1.6; stroke-dashoffset: 0; stroke: #d62828; stroke-linecap: round"/>
    <path d="M 309.301136 381.996222 
L 305.147317 380.33918 
L 308.965242 378.01035 
" style="fill: none; stroke-dasharray: 3.7,1.6; stroke-dashoffset: 0; stroke: #d62828; stroke-linecap: round"/>
   </g>
   <g id="text_15">
    <!-- fail → ML fallback -->
    <g style="fill: #d62828" transform="translate(495.792 373.299213) scale(0.07 -0.07)">
     <defs>
      <path id="DejaVuSans-Oblique-2192" d="M 5050 2147 
L 5050 1866 
L 3822 638 
L 3447 1013 
L 4175 1741 
L 366 1741 
L 366 2272 
L 4175 2272 
L 3447 3000 
L 3822 3375 
L 5050 2147 
z
" transform="scale(0.015625)"/>
      <path id="DejaVuSans-Oblique-4d" d="M 1081 4666 
L 2028 4666 
L 2572 1522 
L 4378 4666 
L 5350 4666 
L 4441 0 
L 3828 0 
L 4622 4091 
L 2791 897 
L 2175 897 
L 1581 4103 
L 788 0 
L 172 0 
L 1081 4666 
z
" transform="scale(0.015625)"/>
      <path id="DejaVuSans-Oblique-62" d="M 3169 2138 
Q 3169 2591 2961 2847 
Q 2753 3103 2388 3103 
Q 2122 3103 1889 2973 
Q 1656 2844 1484 2597 
Q 1303 2338 1198 1995 
Q 1094 1653 1094 1313 
Q 1094 881 1298 636 
Q 1503 391 1863 391 
Q 2134 391 2365 517 
Q 2597 644 2772 891 
Q 2950 1147 3059 1487 
Q 3169 1828 3169 2138 
z
M 1381 2969 
Q 1594 3256 1914 3420 
Q 2234 3584 2584 3584 
Q 3122 3584 3439 3221 
Q 3756 2859 3756 2241 
Q 3756 1734 3570 1259 
Q 3384 784 3041 416 
Q 2816 172 2522 40 
Q 2228 -91 1906 -91 
Q 1566 -91 1316 65 
Q 1066 222 909 531 
L 806 0 
L 231 0 
L 1178 4863 
L 1753 4863 
L 1381 2969 
z
" transform="scale(0.015625)"/>
     </defs>
     <use xlink:href="#DejaVuSans-Oblique-66"/>
     <use xlink:href="#DejaVuSans-Oblique-61" x="35.205078"/>
     <use xlink:href="#DejaVuSans-Oblique-69" x="96.484375"/>
     <use xlink:href="#DejaVuSans-Oblique-6c" x="124.267578"/>
     <use xlink:href="#DejaVuSans-Oblique-20" x="152.050781"/>
     <use xlink:href="#DejaVuSans-Oblique-2192" x="183.837891"/>
     <use xlink:href="#DejaVuSans-Oblique-20" x="267.626953"/>
     <use xlink:href="#DejaVuSans-Oblique-4d" x="299.414062"/>
     <use xlink:href="#DejaVuSans-Oblique-4c" x="385.693359"/>
     <use xlink:href="#DejaVuSans-Oblique-20" x="441.40625"/>
     <use xlink:href="#DejaVuSans-Oblique-66" x="473.193359"/>
     <use xlink:href="#DejaVuSans-Oblique-61" x="508.398438"/>
     <use xlink:href="#DejaVuSans-Oblique-6c" x="569.677734"/>
     <use xlink:href="#DejaVuSans-Oblique-6c" x="597.460938"/>
     <use xlink:href="#DejaVuSans-Oblique-62" x="625.244141"/>
     <use xlink:href="#DejaVuSans-Oblique-61" x="688.720703"/>
     <use xlink:href="#DejaVuSans-Oblique-63" x="750"/>
     <use xlink:href="#DejaVuSans-Oblique-6b" x="804.980469"/>
    </g>
   </g>
   <g id="text_16">
    <!-- Verified Summary Output -->
    <g style="fill: #155724" transform="translate(363.677344 394.002054) scale(0.09 -0.09)">
     <defs>
      <path id="DejaVuSans-Bold-4f" d="M 2719 3878 
Q 2169 3878 1866 3472 
Q 1563 3066 1563 2328 
Q 1563 1594 1866 1187 
Q 2169 781 2719 781 
Q 3272 781 3575 1187 
Q 3878 1594 3878 2328 
Q 3878 3066 3575 3472 
Q 3272 3878 2719 3878 
z
M 2719 4750 
Q 3844 4750 4481 4106 
Q 5119 3463 5119 2328 
Q 5119 1197 4481 553 
Q 3844 -91 2719 -91 
Q 1597 -91 958 553 
Q 319 1197 319 2328 
Q 319 3463 958 4106 
Q 1597 4750 2719 4750 
z
" transform="scale(0.015625)"/>
      <path id="DejaVuSans-Bold-70" d="M 1656 506 
L 1656 -1331 
L 538 -1331 
L 538 3500 
L 1656 3500 
L 1656 2988 
Q 1888 3294 2169 3439 
Q 2450 3584 2816 3584 
Q 3463 3584 3878 3070 
Q 4294 2556 4294 1747 
Q 4294 938 3878 423 
Q 3463 -91 2816 -91 
Q 2450 -91 2169 54 
Q 1888 200 1656 506 
z
M 2400 2772 
Q 2041 2772 1848 2508 
Q 1656 2244 1656 1747 
Q 1656 1250 1848 986 
Q 2041 722 2400 722 
Q 2759 722 2948 984 
Q 3138 1247 3138 1747 
Q 3138 2247 2948 2509 
Q 2759 2772 2400 2772 
z
" transform="scale(0.015625)"/>
     </defs>
     <use xlink:href="#DejaVuSans-Bold-56"/>
     <use xlink:href="#DejaVuSans-Bold-65" x="71.892578"/>
     <use xlink:href="#DejaVuSans-Bold-72" x="139.714844"/>
     <use xlink:href="#DejaVuSans-Bold-69" x="189.03125"/>
     <use xlink:href="#DejaVuSans-Bold-66" x="223.308594"/>
     <use xlink:href="#DejaVuSans-Bold-69" x="266.814453"/>
     <use xlink:href="#DejaVuSans-Bold-65" x="301.091797"/>
     <use xlink:href="#DejaVuSans-Bold-64" x="368.914062"/>
     <use xlink:href="#DejaVuSans-Bold-20" x="440.496094"/>
     <use xlink:href="#DejaVuSans-Bold-53" x="475.310547"/>
     <use xlink:href="#DejaVuSans-Bold-75" x="547.332031"/>
     <use xlink:href="#DejaVuSans-Bold-6d" x="618.523438"/>
     <use xlink:href="#DejaVuSans-Bold-6d" x="722.722656"/>
     <use xlink:href="#DejaVuSans-Bold-61" x="826.921875"/>
     <use xlink:href="#DejaVuSans-Bold-72" x="894.402344"/>
     <use xlink:href="#DejaVuSans-Bold-79" x="943.71875"/>
     <use xlink:href="#DejaVuSans-Bold-20" x="1008.904297"/>
     <use xlink:href="#DejaVuSans-Bold-4f" x="1043.71875"/>
     <use xlink:href="#DejaVuSans-Bold-75" x="1128.728516"/>
     <use xlink:href="#DejaVuSans-Bold-74" x="1199.919922"/>
     <use xlink:href="#DejaVuSans-Bold-70" x="1247.722656"/>
     <use xlink:href="#DejaVuSans-Bold-75" x="1319.304688"/>
     <use xlink:href="#DejaVuSans-Bold-74" x="1390.496094"/>
    </g>
   </g>
   <g id="text_17">
    <!-- JSON: text + NAR + warnings + latency -->
    <g style="fill: #555555" transform="translate(358.836953 414.173836) scale(0.07 -0.07)">
     <defs>
      <path id="DejaVuSans-Oblique-4a" d="M 1069 4666 
L 1703 4666 
L 856 325 
Q 691 -522 298 -901 
Q -94 -1281 -800 -1281 
L -1050 -1281 
L -947 -750 
L -750 -750 
Q -328 -750 -109 -509 
Q 109 -269 225 325 
L 1069 4666 
z
" transform="scale(0.015625)"/>
      <path id="DejaVuSans-Oblique-3a" d="M 978 3309 
L 1638 3309 
L 1484 2516 
L 825 2516 
L 978 3309 
z
M 488 794 
L 1147 794 
L 991 0 
L 331 0 
L 488 794 
z
" transform="scale(0.015625)"/>
     </defs>
     <use xlink:href="#DejaVuSans-Oblique-4a"/>
     <use xlink:href="#DejaVuSans-Oblique-53" x="29.492188"/>
     <use xlink:href="#DejaVuSans-Oblique-4f" x="92.96875"/>
     <use xlink:href="#DejaVuSans-Oblique-4e" x="171.679688"/>
     <use xlink:href="#DejaVuSans-Oblique-3a" x="246.484375"/>
     <use xlink:href="#DejaVuSans-Oblique-20" x="280.175781"/>
     <use xlink:href="#DejaVuSans-Oblique-74" x="311.962891"/>
     <use xlink:href="#DejaVuSans-Oblique-65" x="351.171875"/>
     <use xlink:href="#DejaVuSans-Oblique-78" x="412.695312"/>
     <use xlink:href="#DejaVuSans-Oblique-74" x="471.875"/>
     <use xlink:href="#DejaVuSans-Oblique-20" x="511.083984"/>
     <use xlink:href="#DejaVuSans-Oblique-2b" x="542.871094"/>
     <use xlink:href="#DejaVuSans-Oblique-20" x="626.660156"/>
     <use xlink:href="#DejaVuSans-Oblique-4e" x="658.447266"/>
     <use xlink:href="#DejaVuSans-Oblique-41" x="733.251953"/>
     <use xlink:href="#DejaVuSans-Oblique-52" x="801.660156"/>
     <use xlink:href="#DejaVuSans-Oblique-20" x="871.142578"/>
     <use xlink:href="#DejaVuSans-Oblique-2b" x="902.929688"/>
     <use xlink:href="#DejaVuSans-Oblique-20" x="986.71875"/>
     <use xlink:href="#DejaVuSans-Oblique-77" x="1018.505859"/>
     <use xlink:href="#DejaVuSans-Oblique-61" x="1100.292969"/>
     <use xlink:href="#DejaVuSans-Oblique-72" x="1161.572266"/>
     <use xlink:href="#DejaVuSans-Oblique-6e" x="1202.685547"/>
     <use xlink:href="#DejaVuSans-Oblique-69" x="1266.064453"/>
     <use xlink:href="#DejaVuSans-Oblique-6e" x="1293.847656"/>
     <use xlink:href="#DejaVuSans-Oblique-67" x="1357.226562"/>
     <use xlink:href="#DejaVuSans-Oblique-73" x="1420.703125"/>
     <use xlink:href="#DejaVuSans-Oblique-20" x="1472.802734"/>
     <use xlink:href="#DejaVuSans-Oblique-2b" x="1504.589844"/>
     <use xlink:href="#DejaVuSans-Oblique-20" x="1588.378906"/>
     <use xlink:href="#DejaVuSans-Oblique-6c" x="1620.166016"/>
     <use xlink:href="#DejaVuSans-Oblique-61" x="1647.949219"/>
     <use xlink:href="#DejaVuSans-Oblique-74" x="1709.228516"/>
     <use xlink:href="#DejaVuSans-Oblique-65" x="1748.4375"/>
     <use xlink:href="#DejaVuSans-Oblique-6e" x="1809.960938"/>
     <use xlink:href="#DejaVuSans-Oblique-63" x="1873.339844"/>
     <use xlink:href="#DejaVuSans-Oblique-79" x="1928.320312"/>
    </g>
   </g>
   <g id="text_18">
    <!-- Figure 1: Hybrid Clinical Safety Summarization Architecture -->
    <g transform="translate(225.499687 16.318125) scale(0.12 -0.12)">
     <defs>
      <path id="DejaVuSans-Bold-46" d="M 588 4666 
L 3834 4666 
L 3834 3756 
L 1791 3756 
L 1791 2888 
L 3713 2888 
L 3713 1978 
L 1791 1978 
L 1791 0 
L 588 0 
L 588 4666 
z
" transform="scale(0.015625)"/>
      <path id="DejaVuSans-Bold-67" d="M 2919 594 
Q 2688 288 2409 144 
Q 2131 0 1766 0 
Q 1125 0 706 504 
Q 288 1009 288 1791 
Q 288 2575 706 3076 
Q 1125 3578 1766 3578 
Q 2131 3578 2409 3434 
Q 2688 3291 2919 2981 
L 2919 3500 
L 4044 3500 
L 4044 353 
Q 4044 -491 3511 -936 
Q 2978 -1381 1966 -1381 
Q 1638 -1381 1331 -1331 
Q 1025 -1281 716 -1178 
L 716 -306 
Q 1009 -475 1290 -558 
Q 1572 -641 1856 -641 
Q 2406 -641 2662 -400 
Q 2919 -159 2919 353 
L 2919 594 
z
M 2181 2772 
Q 1834 2772 1640 2515 
Q 1447 2259 1447 1791 
Q 1447 1309 1634 1061 
Q 1822 813 2181 813 
Q 2531 813 2725 1069 
Q 2919 1325 2919 1791 
Q 2919 2259 2725 2515 
Q 2531 2772 2181 2772 
z
" transform="scale(0.015625)"/>
      <path id="DejaVuSans-Bold-31" d="M 750 831 
L 1813 831 
L 1813 3847 
L 722 3622 
L 722 4441 
L 1806 4666 
L 2950 4666 
L 2950 831 
L 4013 831 
L 4013 0 
L 750 0 
L 750 831 
z
" transform="scale(0.015625)"/>
      <path id="DejaVuSans-Bold-3a" d="M 716 3500 
L 1844 3500 
L 1844 2291 
L 716 2291 
L 716 3500 
z
M 716 1209 
L 1844 1209 
L 1844 0 
L 716 0 
L 716 1209 
z
" transform="scale(0.015625)"/>
      <path id="DejaVuSans-Bold-7a" d="M 366 3500 
L 3419 3500 
L 3419 2719 
L 1575 800 
L 3419 800 
L 3419 0 
L 288 0 
L 288 781 
L 2131 2700 
L 366 2700 
L 366 3500 
z
" transform="scale(0.015625)"/>
     </defs>
     <use xlink:href="#DejaVuSans-Bold-46"/>
     <use xlink:href="#DejaVuSans-Bold-69" x="68.310547"/>
     <use xlink:href="#DejaVuSans-Bold-67" x="102.587891"/>
     <use xlink:href="#DejaVuSans-Bold-75" x="174.169922"/>
     <use xlink:href="#DejaVuSans-Bold-72" x="245.361328"/>
     <use xlink:href="#DejaVuSans-Bold-65" x="294.677734"/>
     <use xlink:href="#DejaVuSans-Bold-20" x="362.5"/>
     <use xlink:href="#DejaVuSans-Bold-31" x="397.314453"/>
     <use xlink:href="#DejaVuSans-Bold-3a" x="466.894531"/>
     <use xlink:href="#DejaVuSans-Bold-20" x="506.884766"/>
     <use xlink:href="#DejaVuSans-Bold-48" x="541.699219"/>
     <use xlink:href="#DejaVuSans-Bold-79" x="625.390625"/>
     <use xlink:href="#DejaVuSans-Bold-62" x="690.576172"/>
     <use xlink:href="#DejaVuSans-Bold-72" x="762.158203"/>
     <use xlink:href="#DejaVuSans-Bold-69" x="811.474609"/>
     <use xlink:href="#DejaVuSans-Bold-64" x="845.751953"/>
     <use xlink:href="#DejaVuSans-Bold-20" x="917.333984"/>
     <use xlink:href="#DejaVuSans-Bold-43" x="952.148438"/>
     <use xlink:href="#DejaVuSans-Bold-6c" x="1025.537109"/>
     <use xlink:href="#DejaVuSans-Bold-69" x="1059.814453"/>
     <use xlink:href="#DejaVuSans-Bold-6e" x="1094.091797"/>
     <use xlink:href="#DejaVuSans-Bold-69" x="1165.283203"/>
     <use xlink:href="#DejaVuSans-Bold-63" x="1199.560547"/>
     <use xlink:href="#DejaVuSans-Bold-61" x="1258.837891"/>
     <use xlink:href="#DejaVuSans-Bold-6c" x="1326.318359"/>
     <use xlink:href="#DejaVuSans-Bold-20" x="1360.595703"/>
     <use xlink:href="#DejaVuSans-Bold-53" x="1395.410156"/>
     <use xlink:href="#DejaVuSans-Bold-61" x="1467.431641"/>
     <use xlink:href="#DejaVuSans-Bold-66" x="1534.912109"/>
     <use xlink:href="#DejaVuSans-Bold-65" x="1578.417969"/>
     <use xlink:href="#DejaVuSans-Bold-74" x="1646.240234"/>
     <use xlink:href="#DejaVuSans-Bold-79" x="1694.042969"/>
     <use xlink:href="#DejaVuSans-Bold-20" x="1759.228516"/>
     <use xlink:href="#DejaVuSans-Bold-53" x="1794.042969"/>
     <use xlink:href="#DejaVuSans-Bold-75" x="1866.064453"/>
     <use xlink:href="#DejaVuSans-Bold-6d" x="1937.255859"/>
     <use xlink:href="#DejaVuSans-Bold-6d" x="2041.455078"/>
     <use xlink:href="#DejaVuSans-Bold-61" x="2145.654297"/>
     <use xlink:href="#DejaVuSans-Bold-72" x="2213.134766"/>
     <use xlink:href="#DejaVuSans-Bold-69" x="2262.451172"/>
     <use xlink:href="#DejaVuSans-Bold-7a" x="2296.728516"/>
     <use xlink:href="#DejaVuSans-Bold-61" x="2354.931641"/>
     <use xlink:href="#DejaVuSans-Bold-74" x="2422.412109"/>
     <use xlink:href="#DejaVuSans-Bold-69" x="2470.214844"/>
     <use xlink:href="#DejaVuSans-Bold-6f" x="2504.492188"/>
     <use xlink:href="#DejaVuSans-Bold-6e" x="2573.193359"/>
     <use xlink:href="#DejaVuSans-Bold-20" x="2644.384766"/>
     <use xlink:href="#DejaVuSans-Bold-41" x="2679.199219"/>
     <use xlink:href="#DejaVuSans-Bold-72" x="2756.591797"/>
     <use xlink:href="#DejaVuSans-Bold-63" x="2805.908203"/>
     <use xlink:href="#DejaVuSans-Bold-68" x="2865.185547"/>
     <use xlink:href="#DejaVuSans-Bold-69" x="2936.376953"/>
     <use xlink:href="#DejaVuSans-Bold-74" x="2970.654297"/>
     <use xlink:href="#DejaVuSans-Bold-65" x="3018.457031"/>
     <use xlink:href="#DejaVuSans-Bold-63" x="3086.279297"/>
     <use xlink:href="#DejaVuSans-Bold-74" x="3145.556641"/>
     <use xlink:href="#DejaVuSans-Bold-75" x="3193.359375"/>
     <use xlink:href="#DejaVuSans-Bold-72" x="3264.550781"/>
     <use xlink:href="#DejaVuSans-Bold-65" x="3313.867188"/>
    </g>
    <!-- Deterministic ML core with DL rewrite path and verification gate -->
    <g transform="translate(209.428125 29.84925) scale(0.12 -0.12)">
     <defs>
      <path id="DejaVuSans-Bold-76" d="M 97 3500 
L 1216 3500 
L 2088 1081 
L 2956 3500 
L 4078 3500 
L 2700 0 
L 1472 0 
L 97 3500 
z
" transform="scale(0.015625)"/>
     </defs>
     <use xlink:href="#DejaVuSans-Bold-44"/>
     <use xlink:href="#DejaVuSans-Bold-65" x="83.007812"/>
     <use xlink:href="#DejaVuSans-Bold-74" x="150.830078"/>
     <use xlink:href="#DejaVuSans-Bold-65" x="198.632812"/>
     <use xlink:href="#DejaVuSans-Bold-72" x="266.455078"/>
     <use xlink:href="#DejaVuSans-Bold-6d" x="315.771484"/>
     <use xlink:href="#DejaVuSans-Bold-69" x="419.970703"/>
     <use xlink:href="#DejaVuSans-Bold-6e" x="454.248047"/>
     <use xlink:href="#DejaVuSans-Bold-69" x="525.439453"/>
     <use xlink:href="#DejaVuSans-Bold-73" x="559.716797"/>
     <use xlink:href="#DejaVuSans-Bold-74" x="619.238281"/>
     <use xlink:href="#DejaVuSans-Bold-69" x="667.041016"/>
     <use xlink:href="#DejaVuSans-Bold-63" x="701.318359"/>
     <use xlink:href="#DejaVuSans-Bold-20" x="760.595703"/>
     <use xlink:href="#DejaVuSans-Bold-4d" x="795.410156"/>
     <use xlink:href="#DejaVuSans-Bold-4c" x="894.921875"/>
     <use xlink:href="#DejaVuSans-Bold-20" x="958.642578"/>
     <use xlink:href="#DejaVuSans-Bold-63" x="993.457031"/>
     <use xlink:href="#DejaVuSans-Bold-6f" x="1052.734375"/>
     <use xlink:href="#DejaVuSans-Bold-72" x="1121.435547"/>
     <use xlink:href="#DejaVuSans-Bold-65" x="1170.751953"/>
     <use xlink:href="#DejaVuSans-Bold-20" x="1238.574219"/>
     <use xlink:href="#DejaVuSans-Bold-77" x="1273.388672"/>
     <use xlink:href="#DejaVuSans-Bold-69" x="1365.771484"/>
     <use xlink:href="#DejaVuSans-Bold-74" x="1400.048828"/>
     <use xlink:href="#DejaVuSans-Bold-68" x="1447.851562"/>
     <use xlink:href="#DejaVuSans-Bold-20" x="1519.042969"/>
     <use xlink:href="#DejaVuSans-Bold-44" x="1553.857422"/>
     <use xlink:href="#DejaVuSans-Bold-4c" x="1636.865234"/>
     <use xlink:href="#DejaVuSans-Bold-20" x="1700.585938"/>
     <use xlink:href="#DejaVuSans-Bold-72" x="1735.400391"/>
     <use xlink:href="#DejaVuSans-Bold-65" x="1784.716797"/>
     <use xlink:href="#DejaVuSans-Bold-77" x="1852.539062"/>
     <use xlink:href="#DejaVuSans-Bold-72" x="1944.921875"/>
     <use xlink:href="#DejaVuSans-Bold-69" x="1994.238281"/>
     <use xlink:href="#DejaVuSans-Bold-74" x="2028.515625"/>
     <use xlink:href="#DejaVuSans-Bold-65" x="2076.318359"/>
     <use xlink:href="#DejaVuSans-Bold-20" x="2144.140625"/>
     <use xlink:href="#DejaVuSans-Bold-70" x="2178.955078"/>
     <use xlink:href="#DejaVuSans-Bold-61" x="2250.537109"/>
     <use xlink:href="#DejaVuSans-Bold-74" x="2318.017578"/>
     <use xlink:href="#DejaVuSans-Bold-68" x="2365.820312"/>
     <use xlink:href="#DejaVuSans-Bold-20" x="2437.011719"/>
     <use xlink:href="#DejaVuSans-Bold-61" x="2471.826172"/>
     <use xlink:href="#DejaVuSans-Bold-6e" x="2539.306641"/>
     <use xlink:href="#DejaVuSans-Bold-64" x="2610.498047"/>
     <use xlink:href="#DejaVuSans-Bold-20" x="2682.080078"/>
     <use xlink:href="#DejaVuSans-Bold-76" x="2716.894531"/>
     <use xlink:href="#DejaVuSans-Bold-65" x="2782.080078"/>
     <use xlink:href="#DejaVuSans-Bold-72" x="2849.902344"/>
     <use xlink:href="#DejaVuSans-Bold-69" x="2899.21875"/>
     <use xlink:href="#DejaVuSans-Bold-66" x="2933.496094"/>
     <use xlink:href="#DejaVuSans-Bold-69" x="2977.001953"/>
     <use xlink:href="#DejaVuSans-Bold-63" x="3011.279297"/>
     <use xlink:href="#DejaVuSans-Bold-61" x="3070.556641"/>
     <use xlink:href="#DejaVuSans-Bold-74" x="3138.037109"/>
     <use xlink:href="#DejaVuSans-Bold-69" x="3185.839844"/>
     <use xlink:href="#DejaVuSans-Bold-6f" x="3220.117188"/>
     <use xlink:href="#DejaVuSans-Bold-6e" x="3288.818359"/>
     <use xlink:href="#DejaVuSans-Bold-20" x="3360.009766"/>
     <use xlink:href="#DejaVuSans-Bold-67" x="3394.824219"/>
     <use xlink:href="#DejaVuSans-Bold-61" x="3466.40625"/>
     <use xlink:href="#DejaVuSans-Bold-74" x="3533.886719"/>
     <use xlink:href="#DejaVuSans-Bold-65" x="3581.689453"/>
    </g>
   </g>
  </g>
 </g>
 <defs>
  <clipPath id="pd1d6adf1ca">
   <rect x="7.2" y="39.84925" width="842.4" height="365.0912"/>
  </clipPath>
 </defs>
</svg>
