<?xml version="1.0" encoding="utf-8" standalone="no"?>
<!DOCTYPE svg PUBLIC "-//W3C//DTD SVG 1.1//EN"
  "http://www.w3.org/Graphics/SVG/1.1/DTD/svg11.dtd">
<svg xmlns:xlink="http://www.w3.org/1999/xlink" width="789.883664pt" height="355.348437pt" viewBox="0 0 789.883664 355.348437" xmlns="http://www.w3.org/2000/svg" version="1.1">
 <metadata>
  <rdf:RDF xmlns:dc="http://purl.org/dc/elements/1.1/" xmlns:cc="http://creativecommons.org/ns#" xmlns:rdf="http://www.w3.org/1999/02/22-rdf-syntax-ns#">
   <cc:Work>
    <dc:type rdf:resource="http://purl.org/dc/dcmitype/StillImage"/>
    <dc:date>2026-03-16T11:41:12.384204</dc:date>
    <dc:format>image/svg+xml</dc:format>
    <dc:creator>
     <cc:Agent>
      <dc:title>Matplotlib v3.9.4, https://matplotlib.org/</dc:title>
     </cc:Agent>
    </dc:creator>
   </cc:Work>
  </rdf:RDF>
 </metadata>
 <defs>
  <style type="text/css">*{stroke-linejoin: round; stroke-linecap: butt}</style>
 </defs>
 <g id="figure_1">
  <g id="patch_1">
   <path d="M 0 355.348437 
L 789.883664 355.348437 
L 789.883664 0 
L 0 0 
z
" style="fill: #ffffff"/>
  </g>
  <g id="axes_1">
   <g id="patch_2">
    <path d="M 46.190938 314.76 
L 375.232484 314.76 
L 375.232484 76.096 
L 46.190938 76.096 
z
" style="fill: #ffffff"/>
   </g>
   <g id="matplotlib.axis_1">
    <g id="xtick_1">
     <g id="line2d_1">
      <defs>
       <path id="m9ff04734bd" d="M 0 0 
L 0 3.5 
" style="stroke: #444444; stroke-width: 0.8"/>
      </defs>
      <g>
       <use xlink:href="#m9ff04734bd" x="46.190938" y="314.76" style="fill: #444444; stroke: #444444; stroke-width: 0.8"/>
      </g>
     </g>
     <g id="text_1">
      <!-- 0 -->
      <g style="fill: #444444" transform="translate(43.327813 328.598594) scale(0.09 -0.09)">
       <defs>
        <path id="DejaVuSans-30" d="M 2034 4250 
Q 1547 4250 1301 3770 
Q 1056 3291 1056 2328 
Q 1056 1369 1301 889 
Q 1547 409 2034 409 
Q 2525 409 2770 889 
Q 3016 1369 3016 2328 
Q 3016 3291 2770 3770 
Q 2525 4250 2034 4250 
z
M 2034 4750 
Q 2819 4750 3233 4129 
Q 3647 3509 3647 2328 
Q 3647 1150 3233 529 
Q 2819 -91 2034 -91 
Q 1250 -91 836 529 
Q 422 1150 422 2328 
Q 422 3509 836 4129 
Q 1250 4750 2034 4750 
z
" transform="scale(0.015625)"/>
       </defs>
       <use xlink:href="#DejaVuSans-30"/>
      </g>
     </g>
    </g>
    <g id="xtick_2">
     <g id="line2d_2">
      <g>
       <use xlink:href="#m9ff04734bd" x="111.273575" y="314.76" style="fill: #444444; stroke: #444444; stroke-width: 0.8"/>
      </g>
     </g>
     <g id="text_2">
      <!-- 2000 -->
      <g style="fill: #444444" transform="translate(99.821075 328.598594) scale(0.09 -0.09)">
       <defs>
        <path id="DejaVuSans-32" d="M 1228 531 
L 3431 531 
L 3431 0 
L 469 0 
L 469 531 
Q 828 903 1448 1529 
Q 2069 2156 2228 2338 
Q 2531 2678 2651 2914 
Q 2772 3150 2772 3378 
Q 2772 3750 2511 3984 
Q 2250 4219 1831 4219 
Q 1534 4219 1204 4116 
Q 875 4013 500 3803 
L 500 4441 
Q 881 4594 1212 4672 
Q 1544 4750 1819 4750 
Q 2544 4750 2975 4387 
Q 3406 4025 3406 3419 
Q 3406 3131 3298 2873 
Q 3191 2616 2906 2266 
Q 2828 2175 2409 1742 
Q 1991 1309 1228 531 
z
" transform="scale(0.015625)"/>
       </defs>
       <use xlink:href="#DejaVuSans-32"/>
       <use xlink:href="#DejaVuSans-30" x="63.623047"/>
       <use xlink:href="#DejaVuSans-30" x="127.246094"/>
       <use xlink:href="#DejaVuSans-30" x="190.869141"/>
      </g>
     </g>
    </g>
    <g id="xtick_3">
     <g id="line2d_3">
      <g>
       <use xlink:href="#m9ff04734bd" x="176.356213" y="314.76" style="fill: #444444; stroke: #444444; stroke-width: 0.8"/>
      </g>
     </g>
     <g id="text_3">
      <!-- 4000 -->
      <g style="fill: #444444" transform="translate(164.903713 328.598594) scale(0.09 -0.09)">
       <defs>
        <path id="DejaVuSans-34" d="M 2419 4116 
L 825 1625 
L 2419 1625 
L 2419 4116 
z
M 2253 4666 
L 3047 4666 
L 3047 1625 
L 3713 1625 
L 3713 1100 
L 3047 1100 
L 3047 0 
L 2419 0 
L 2419 1100 
L 313 1100 
L 313 1709 
L 2253 4666 
z
" transform="scale(0.015625)"/>
       </defs>
       <use xlink:href="#DejaVuSans-34"/>
       <use xlink:href="#DejaVuSans-30" x="63.623047"/>
       <use xlink:href="#DejaVuSans-30" x="127.246094"/>
       <use xlink:href="#DejaVuSans-30" x="190.869141"/>
      </g>
     </g>
    </g>
    <g id="xtick_4">
     <g id="line2d_4">
      <g>
       <use xlink:href="#m9ff04734bd" x="241.438851" y="314.76" style="fill: #444444; stroke: #444444; stroke-width: 0.8"/>
      </g>
     </g>
     <g id="text_4">
      <!-- 6000 -->
      <g style="fill: #444444" transform="translate(229.986351 328.598594) scale(0.09 -0.09)">
       <defs>
        <path id="DejaVuSans-36" d="M 2113 2584 
Q 1688 2584 1439 2293 
Q 1191 2003 1191 1497 
Q 1191 994 1439 701 
Q 1688 409 2113 409 
Q 2538 409 2786 701 
Q 3034 994 3034 1497 
Q 3034 2003 2786 2293 
Q 2538 2584 2113 2584 
z
M 3366 4563 
L 3366 3988 
Q 3128 4100 2886 4159 
Q 2644 4219 2406 4219 
Q 1781 4219 1451 3797 
Q 1122 3375 1075 2522 
Q 1259 2794 1537 2939 
Q 1816 3084 2150 3084 
Q 2853 3084 3261 2657 
Q 3669 2231 3669 1497 
Q 3669 778 3244 343 
Q 2819 -91 2113 -91 
Q 1303 -91 875 529 
Q 447 1150 447 2328 
Q 447 3434 972 4092 
Q 1497 4750 2381 4750 
Q 2619 4750 2861 4703 
Q 3103 4656 3366 4563 
z
" transform="scale(0.015625)"/>
       </defs>
       <use xlink:href="#DejaVuSans-36"/>
       <use xlink:href="#DejaVuSans-30" x="63.623047"/>
       <use xlink:href="#DejaVuSans-30" x="127.246094"/>
       <use xlink:href="#DejaVuSans-30" x="190.869141"/>
      </g>
     </g>
    </g>
    <g id="xtick_5">
     <g id="line2d_5">
      <g>
       <use xlink:href="#m9ff04734bd" x="306.521489" y="314.76" style="fill: #444444; stroke: #444444; stroke-width: 0.8"/>
      </g>
     </g>
     <g id="text_5">
      <!-- 8000 -->
      <g style="fill: #444444" transform="translate(295.068989 328.598594) scale(0.09 -0.09)">
       <defs>
        <path id="DejaVuSans-38" d="M 2034 2216 
Q 1584 2216 1326 1975 
Q 1069 1734 1069 1313 
Q 1069 891 1326 650 
Q 1584 409 2034 409 
Q 2484 409 2743 651 
Q 3003 894 3003 1313 
Q 3003 1734 2745 1975 
Q 2488 2216 2034 2216 
z
M 1403 2484 
Q 997 2584 770 2862 
Q 544 3141 544 3541 
Q 544 4100 942 4425 
Q 1341 4750 2034 4750 
Q 2731 4750 3128 4425 
Q 3525 4100 3525 3541 
Q 3525 3141 3298 2862 
Q 3072 2584 2669 2484 
Q 3125 2378 3379 2068 
Q 3634 1759 3634 1313 
Q 3634 634 3220 271 
Q 2806 -91 2034 -91 
Q 1263 -91 848 271 
Q 434 634 434 1313 
Q 434 1759 690 2068 
Q 947 2378 1403 2484 
z
M 1172 3481 
Q 1172 3119 1398 2916 
Q 1625 2713 2034 2713 
Q 2441 2713 2670 2916 
Q 2900 3119 2900 3481 
Q 2900 3844 2670 4047 
Q 2441 4250 2034 4250 
Q 1625 4250 1398 4047 
Q 1172 3844 1172 3481 
z
" transform="scale(0.015625)"/>
       </defs>
       <use xlink:href="#DejaVuSans-38"/>
       <use xlink:href="#DejaVuSans-30" x="63.623047"/>
       <use xlink:href="#DejaVuSans-30" x="127.246094"/>
       <use xlink:href="#DejaVuSans-30" x="190.869141"/>
      </g>
     </g>
    </g>
    <g id="xtick_6">
     <g id="line2d_6">
      <g>
       <use xlink:href="#m9ff04734bd" x="371.604127" y="314.76" style="fill: #444444; stroke: #444444; stroke-width: 0.8"/>
      </g>
     </g>
     <g id="text_6">
      <!-- 10000 -->
      <g style="fill: #444444" transform="translate(357.288502 328.598594) scale(0.09 -0.09)">
       <defs>
        <path id="DejaVuSans-31" d="M 794 531 
L 1825 531 
L 1825 4091 
L 703 3866 
L 703 4441 
L 1819 4666 
L 2450 4666 
L 2450 531 
L 3481 531 
L 3481 0 
L 794 0 
L 794 531 
z
" transform="scale(0.015625)"/>
       </defs>
       <use xlink:href="#DejaVuSans-31"/>
       <use xlink:href="#DejaVuSans-30" x="63.623047"/>
       <use xlink:href="#DejaVuSans-30" x="127.246094"/>
       <use xlink:href="#DejaVuSans-30" x="190.869141"/>
       <use xlink:href="#DejaVuSans-30" x="254.492188"/>
      </g>
     </g>
    </g>
    <g id="text_7">
     <!-- Training corpus size (number of table-summary pairs) -->
     <g style="fill: #333333" transform="translate(76.361711 346.06875) scale(0.1 -0.1)">
      <defs>
       <path id="DejaVuSans-54" d="M -19 4666 
L 3928 4666 
L 3928 4134 
L 2272 4134 
L 2272 0 
L 1638 0 
L 1638 4134 
L -19 4134 
L -19 4666 
z
" transform="scale(0.015625)"/>
       <path id="DejaVuSans-72" d="M 2631 2963 
Q 2534 3019 2420 3045 
Q 2306 3072 2169 3072 
Q 1681 3072 1420 2755 
Q 1159 2438 1159 1844 
L 1159 0 
L 581 0 
L 581 3500 
L 1159 3500 
L 1159 2956 
Q 1341 3275 1631 3429 
Q 1922 3584 2338 3584 
Q 2397 3584 2469 3576 
Q 2541 3569 2628 3553 
L 2631 2963 
z
" transform="scale(0.015625)"/>
       <path id="DejaVuSans-61" d="M 2194 1759 
Q 1497 1759 1228 1600 
Q 959 1441 959 1056 
Q 959 750 1161 570 
Q 1363 391 1709 391 
Q 2188 391 2477 730 
Q 2766 1069 2766 1631 
L 2766 1759 
L 2194 1759 
z
M 3341 1997 
L 3341 0 
L 2766 0 
L 2766 531 
Q 2569 213 2275 61 
Q 1981 -91 1556 -91 
Q 1019 -91 701 211 
Q 384 513 384 1019 
Q 384 1609 779 1909 
Q 1175 2209 1959 2209 
L 2766 2209 
L 2766 2266 
Q 2766 2663 2505 2880 
Q 2244 3097 1772 3097 
Q 1472 3097 1187 3025 
Q 903 2953 641 2809 
L 641 3341 
Q 956 3463 1253 3523 
Q 1550 3584 1831 3584 
Q 2591 3584 2966 3190 
Q 3341 2797 3341 1997 
z
" transform="scale(0.015625)"/>
       <path id="DejaVuSans-69" d="M 603 3500 
L 1178 3500 
L 1178 0 
L 603 0 
L 603 3500 
z
M 603 4863 
L 1178 4863 
L 1178 4134 
L 603 4134 
L 603 4863 
z
" transform="scale(0.015625)"/>
       <path id="DejaVuSans-6e" d="M 3513 2113 
L 3513 0 
L 2938 0 
L 2938 2094 
Q 2938 2591 2744 2837 
Q 2550 3084 2163 3084 
Q 1697 3084 1428 2787 
Q 1159 2491 1159 1978 
L 1159 0 
L 581 0 
L 581 3500 
L 1159 3500 
L 1159 2956 
Q 1366 3272 1645 3428 
Q 1925 3584 2291 3584 
Q 2894 3584 3203 3211 
Q 3513 2838 3513 2113 
z
" transform="scale(0.015625)"/>
       <path id="DejaVuSans-67" d="M 2906 1791 
Q 2906 2416 2648 2759 
Q 2391 3103 1925 3103 
Q 1463 3103 1205 2759 
Q 947 2416 947 1791 
Q 947 1169 1205 825 
Q 1463 481 1925 481 
Q 2391 481 2648 825 
Q 2906 1169 2906 1791 
z
M 3481 434 
Q 3481 -459 3084 -895 
Q 2688 -1331 1869 -1331 
Q 1566 -1331 1297 -1286 
Q 1028 -1241 775 -1147 
L 775 -588 
Q 1028 -725 1275 -790 
Q 1522 -856 1778 -856 
Q 2344 -856 2625 -561 
Q 2906 -266 2906 331 
L 2906 616 
Q 2728 306 2450 153 
Q 2172 0 1784 0 
Q 1141 0 747 490 
Q 353 981 353 1791 
Q 353 2603 747 3093 
Q 1141 3584 1784 3584 
Q 2172 3584 2450 3431 
Q 2728 3278 2906 2969 
L 2906 3500 
L 3481 3500 
L 3481 434 
z
" transform="scale(0.015625)"/>
       <path id="DejaVuSans-20" transform="scale(0.015625)"/>
       <path id="DejaVuSans-63" d="M 3122 3366 
L 3122 2828 
Q 2878 2963 2633 3030 
Q 2388 3097 2138 3097 
Q 1578 3097 1268 2742 
Q 959 2388 959 1747 
Q 959 1106 1268 751 
Q 1578 397 2138 397 
Q 2388 397 2633 464 
Q 2878 531 3122 666 
L 3122 134 
Q 2881 22 2623 -34 
Q 2366 -91 2075 -91 
Q 1284 -91 818 406 
Q 353 903 353 1747 
Q 353 2603 823 3093 
Q 1294 3584 2113 3584 
Q 2378 3584 2631 3529 
Q 2884 3475 3122 3366 
z
" transform="scale(0.015625)"/>
       <path id="DejaVuSans-6f" d="M 1959 3097 
Q 1497 3097 1228 2736 
Q 959 2375 959 1747 
Q 959 1119 1226 758 
Q 1494 397 1959 397 
Q 2419 397 2687 759 
Q 2956 1122 2956 1747 
Q 2956 2369 2687 2733 
Q 2419 3097 1959 3097 
z
M 1959 3584 
Q 2709 3584 3137 3096 
Q 3566 2609 3566 1747 
Q 3566 888 3137 398 
Q 2709 -91 1959 -91 
Q 1206 -91 779 398 
Q 353 888 353 1747 
Q 353 2609 779 3096 
Q 1206 3584 1959 3584 
z
" transform="scale(0.015625)"/>
       <path id="DejaVuSans-70" d="M 1159 525 
L 1159 -1331 
L 581 -1331 
L 581 3500 
L 1159 3500 
L 1159 2969 
Q 1341 3281 1617 3432 
Q 1894 3584 2278 3584 
Q 2916 3584 3314 3078 
Q 3713 2572 3713 1747 
Q 3713 922 3314 415 
Q 2916 -91 2278 -91 
Q 1894 -91 1617 61 
Q 1341 213 1159 525 
z
M 3116 1747 
Q 3116 2381 2855 2742 
Q 2594 3103 2138 3103 
Q 1681 3103 1420 2742 
Q 1159 2381 1159 1747 
Q 1159 1113 1420 752 
Q 1681 391 2138 391 
Q 2594 391 2855 752 
Q 3116 1113 3116 1747 
z
" transform="scale(0.015625)"/>
       <path id="DejaVuSans-75" d="M 544 1381 
L 544 3500 
L 1119 3500 
L 1119 1403 
Q 1119 906 1312 657 
Q 1506 409 1894 409 
Q 2359 409 2629 706 
Q 2900 1003 2900 1516 
L 2900 3500 
L 3475 3500 
L 3475 0 
L 2900 0 
L 2900 538 
Q 2691 219 2414 64 
Q 2138 -91 1772 -91 
Q 1169 -91 856 284 
Q 544 659 544 1381 
z
M 1991 3584 
L 1991 3584 
z
" transform="scale(0.015625)"/>
       <path id="DejaVuSans-73" d="M 2834 3397 
L 2834 2853 
Q 2591 2978 2328 3040 
Q 2066 3103 1784 3103 
Q 1356 3103 1142 2972 
Q 928 2841 928 2578 
Q 928 2378 1081 2264 
Q 1234 2150 1697 2047 
L 1894 2003 
Q 2506 1872 2764 1633 
Q 3022 1394 3022 966 
Q 3022 478 2636 193 
Q 2250 -91 1575 -91 
Q 1294 -91 989 -36 
Q 684 19 347 128 
L 347 722 
Q 666 556 975 473 
Q 1284 391 1588 391 
Q 1994 391 2212 530 
Q 2431 669 2431 922 
Q 2431 1156 2273 1281 
Q 2116 1406 1581 1522 
L 1381 1569 
Q 847 1681 609 1914 
Q 372 2147 372 2553 
Q 372 3047 722 3315 
Q 1072 3584 1716 3584 
Q 2034 3584 2315 3537 
Q 2597 3491 2834 3397 
z
" transform="scale(0.015625)"/>
       <path id="DejaVuSans-7a" d="M 353 3500 
L 3084 3500 
L 3084 2975 
L 922 459 
L 3084 459 
L 3084 0 
L 275 0 
L 275 525 
L 2438 3041 
L 353 3041 
L 353 3500 
z
" transform="scale(0.015625)"/>
       <path id="DejaVuSans-65" d="M 3597 1894 
L 3597 1613 
L 953 1613 
Q 991 1019 1311 708 
Q 1631 397 2203 397 
Q 2534 397 2845 478 
Q 3156 559 3463 722 
L 3463 178 
Q 3153 47 2828 -22 
Q 2503 -91 2169 -91 
Q 1331 -91 842 396 
Q 353 884 353 1716 
Q 353 2575 817 3079 
Q 1281 3584 2069 3584 
Q 2775 3584 3186 3129 
Q 3597 2675 3597 1894 
z
M 3022 2063 
Q 3016 2534 2758 2815 
Q 2500 3097 2075 3097 
Q 1594 3097 1305 2825 
Q 1016 2553 972 2059 
L 3022 2063 
z
" transform="scale(0.015625)"/>
       <path id="DejaVuSans-28" d="M 1984 4856 
Q 1566 4138 1362 3434 
Q 1159 2731 1159 2009 
Q 1159 1288 1364 580 
Q 1569 -128 1984 -844 
L 1484 -844 
Q 1016 -109 783 600 
Q 550 1309 550 2009 
Q 550 2706 781 3412 
Q 1013 4119 1484 4856 
L 1984 4856 
z
" transform="scale(0.015625)"/>
       <path id="DejaVuSans-6d" d="M 3328 2828 
Q 3544 3216 3844 3400 
Q 4144 3584 4550 3584 
Q 5097 3584 5394 3201 
Q 5691 2819 5691 2113 
L 5691 0 
L 5113 0 
L 5113 2094 
Q 5113 2597 4934 2840 
Q 4756 3084 4391 3084 
Q 3944 3084 3684 2787 
Q 3425 2491 3425 1978 
L 3425 0 
L 2847 0 
L 2847 2094 
Q 2847 2600 2669 2842 
Q 2491 3084 2119 3084 
Q 1678 3084 1418 2786 
Q 1159 2488 1159 1978 
L 1159 0 
L 581 0 
L 581 3500 
L 1159 3500 
L 1159 2956 
Q 1356 3278 1631 3431 
Q 1906 3584 2284 3584 
Q 2666 3584 2933 3390 
Q 3200 3197 3328 2828 
z
" transform="scale(0.015625)"/>
       <path id="DejaVuSans-62" d="M 3116 1747 
Q 3116 2381 2855 2742 
Q 2594 3103 2138 3103 
Q 1681 3103 1420 2742 
Q 1159 2381 1159 1747 
Q 1159 1113 1420 752 
Q 1681 391 2138 391 
Q 2594 391 2855 752 
Q 3116 1113 3116 1747 
z
M 1159 2969 
Q 1341 3281 1617 3432 
Q 1894 3584 2278 3584 
Q 2916 3584 3314 3078 
Q 3713 2572 3713 1747 
Q 3713 922 3314 415 
Q 2916 -91 2278 -91 
Q 1894 -91 1617 61 
Q 1341 213 1159 525 
L 1159 0 
L 581 0 
L 581 4863 
L 1159 4863 
L 1159 2969 
z
" transform="scale(0.015625)"/>
       <path id="DejaVuSans-66" d="M 2375 4863 
L 2375 4384 
L 1825 4384 
Q 1516 4384 1395 4259 
Q 1275 4134 1275 3809 
L 1275 3500 
L 2222 3500 
L 2222 3053 
L 1275 3053 
L 1275 0 
L 697 0 
L 697 3053 
L 147 3053 
L 147 3500 
L 697 3500 
L 697 3744 
Q 697 4328 969 4595 
Q 1241 4863 1831 4863 
L 2375 4863 
z
" transform="scale(0.015625)"/>
       <path id="DejaVuSans-74" d="M 1172 4494 
L 1172 3500 
L 2356 3500 
L 2356 3053 
L 1172 3053 
L 1172 1153 
Q 1172 725 1289 603 
Q 1406 481 1766 481 
L 2356 481 
L 2356 0 
L 1766 0 
Q 1100 0 847 248 
Q 594 497 594 1153 
L 594 3053 
L 172 3053 
L 172 3500 
L 594 3500 
L 594 4494 
L 1172 4494 
z
" transform="scale(0.015625)"/>
       <path id="DejaVuSans-6c" d="M 603 4863 
L 1178 4863 
L 1178 0 
L 603 0 
L 603 4863 
z
" transform="scale(0.015625)"/>
       <path id="DejaVuSans-2d" d="M 313 2009 
L 1997 2009 
L 1997 1497 
L 313 1497 
L 313 2009 
z
" transform="scale(0.015625)"/>
       <path id="DejaVuSans-79" d="M 2059 -325 
Q 1816 -950 1584 -1140 
Q 1353 -1331 966 -1331 
L 506 -1331 
L 506 -850 
L 844 -850 
Q 1081 -850 1212 -737 
Q 1344 -625 1503 -206 
L 1606 56 
L 191 3500 
L 800 3500 
L 1894 763 
L 2988 3500 
L 3597 3500 
L 2059 -325 
z
" transform="scale(0.015625)"/>
       <path id="DejaVuSans-29" d="M 513 4856 
L 1013 4856 
Q 1481 4119 1714 3412 
Q 1947 2706 1947 2009 
Q 1947 1309 1714 600 
Q 1481 -109 1013 -844 
L 513 -844 
Q 928 -128 1133 580 
Q 1338 1288 1338 2009 
Q 1338 2731 1133 3434 
Q 928 4138 513 4856 
z
" transform="scale(0.015625)"/>
      </defs>
      <use xlink:href="#DejaVuSans-54"/>
      <use xlink:href="#DejaVuSans-72" x="46.333984"/>
      <use xlink:href="#DejaVuSans-61" x="87.447266"/>
      <use xlink:href="#DejaVuSans-69" x="148.726562"/>
      <use xlink:href="#DejaVuSans-6e" x="176.509766"/>
      <use xlink:href="#DejaVuSans-69" x="239.888672"/>
      <use xlink:href="#DejaVuSans-6e" x="267.671875"/>
      <use xlink:href="#DejaVuSans-67" x="331.050781"/>
      <use xlink:href="#DejaVuSans-20" x="394.527344"/>
      <use xlink:href="#DejaVuSans-63" x="426.314453"/>
      <use xlink:href="#DejaVuSans-6f" x="481.294922"/>
      <use xlink:href="#DejaVuSans-72" x="542.476562"/>
      <use xlink:href="#DejaVuSans-70" x="583.589844"/>
      <use xlink:href="#DejaVuSans-75" x="647.066406"/>
      <use xlink:href="#DejaVuSans-73" x="710.445312"/>
      <use xlink:href="#DejaVuSans-20" x="762.544922"/>
      <use xlink:href="#DejaVuSans-73" x="794.332031"/>
      <use xlink:href="#DejaVuSans-69" x="846.431641"/>
      <use xlink:href="#DejaVuSans-7a" x="874.214844"/>
      <use xlink:href="#DejaVuSans-65" x="926.705078"/>
      <use xlink:href="#DejaVuSans-20" x="988.228516"/>
      <use xlink:href="#DejaVuSans-28" x="1020.015625"/>
      <use xlink:href="#DejaVuSans-6e" x="1059.029297"/>
      <use xlink:href="#DejaVuSans-75" x="1122.408203"/>
      <use xlink:href="#DejaVuSans-6d" x="1185.787109"/>
      <use xlink:href="#DejaVuSans-62" x="1283.199219"/>
      <use xlink:href="#DejaVuSans-65" x="1346.675781"/>
      <use xlink:href="#DejaVuSans-72" x="1408.199219"/>
      <use xlink:href="#DejaVuSans-20" x="1449.3125"/>
      <use xlink:href="#DejaVuSans-6f" x="1481.099609"/>
      <use xlink:href="#DejaVuSans-66" x="1542.28125"/>
      <use xlink:href="#DejaVuSans-20" x="1577.486328"/>
      <use xlink:href="#DejaVuSans-74" x="1609.273438"/>
      <use xlink:href="#DejaVuSans-61" x="1648.482422"/>
      <use xlink:href="#DejaVuSans-62" x="1709.761719"/>
      <use xlink:href="#DejaVuSans-6c" x="1773.238281"/>
      <use xlink:href="#DejaVuSans-65" x="1801.021484"/>
      <use xlink:href="#DejaVuSans-2d" x="1862.544922"/>
      <use xlink:href="#DejaVuSans-73" x="1898.628906"/>
      <use xlink:href="#DejaVuSans-75" x="1950.728516"/>
      <use xlink:href="#DejaVuSans-6d" x="2014.107422"/>
      <use xlink:href="#DejaVuSans-6d" x="2111.519531"/>
      <use xlink:href="#DejaVuSans-61" x="2208.931641"/>
      <use xlink:href="#DejaVuSans-72" x="2270.210938"/>
      <use xlink:href="#DejaVuSans-79" x="2311.324219"/>
      <use xlink:href="#DejaVuSans-20" x="2370.503906"/>
      <use xlink:href="#DejaVuSans-70" x="2402.291016"/>
      <use xlink:href="#DejaVuSans-61" x="2465.767578"/>
      <use xlink:href="#DejaVuSans-69" x="2527.046875"/>
      <use xlink:href="#DejaVuSans-72" x="2554.830078"/>
      <use xlink:href="#DejaVuSans-73" x="2595.943359"/>
      <use xlink:href="#DejaVuSans-29" x="2648.042969"/>
     </g>
    </g>
   </g>
   <g id="matplotlib.axis_2">
    <g id="ytick_1">
     <g id="line2d_7">
      <defs>
       <path id="ma7dac9a0ee" d="M 0 0 
L -3.5 0 
" style="stroke: #444444; stroke-width: 0.8"/>
      </defs>
      <g>
       <use xlink:href="#ma7dac9a0ee" x="46.190938" y="314.76" style="fill: #444444; stroke: #444444; stroke-width: 0.8"/>
      </g>
     </g>
     <g id="text_8">
      <!-- 0.6 -->
      <g style="fill: #444444" transform="translate(24.878125 318.179297) scale(0.09 -0.09)">
       <defs>
        <path id="DejaVuSans-2e" d="M 684 794 
L 1344 794 
L 1344 0 
L 684 0 
L 684 794 
z
" transform="scale(0.015625)"/>
       </defs>
       <use xlink:href="#DejaVuSans-30"/>
       <use xlink:href="#DejaVuSans-2e" x="63.623047"/>
       <use xlink:href="#DejaVuSans-36" x="95.410156"/>
      </g>
     </g>
    </g>
    <g id="ytick_2">
     <g id="line2d_8">
      <g>
       <use xlink:href="#ma7dac9a0ee" x="46.190938" y="261.723556" style="fill: #444444; stroke: #444444; stroke-width: 0.8"/>
      </g>
     </g>
     <g id="text_9">
      <!-- 0.7 -->
      <g style="fill: #444444" transform="translate(24.878125 265.142852) scale(0.09 -0.09)">
       <defs>
        <path id="DejaVuSans-37" d="M 525 4666 
L 3525 4666 
L 3525 4397 
L 1831 0 
L 1172 0 
L 2766 4134 
L 525 4134 
L 525 4666 
z
" transform="scale(0.015625)"/>
       </defs>
       <use xlink:href="#DejaVuSans-30"/>
       <use xlink:href="#DejaVuSans-2e" x="63.623047"/>
       <use xlink:href="#DejaVuSans-37" x="95.410156"/>
      </g>
     </g>
    </g>
    <g id="ytick_3">
     <g id="line2d_9">
      <g>
       <use xlink:href="#ma7dac9a0ee" x="46.190938" y="208.687111" style="fill: #444444; stroke: #444444; stroke-width: 0.8"/>
      </g>
     </g>
     <g id="text_10">
      <!-- 0.8 -->
      <g style="fill: #444444" transform="translate(24.878125 212.106408) scale(0.09 -0.09)">
       <use xlink:href="#DejaVuSans-30"/>
       <use xlink:href="#DejaVuSans-2e" x="63.623047"/>
       <use xlink:href="#DejaVuSans-38" x="95.410156"/>
      </g>
     </g>
    </g>
    <g id="ytick_4">
     <g id="line2d_10">
      <g>
       <use xlink:href="#ma7dac9a0ee" x="46.190938" y="155.650667" style="fill: #444444; stroke: #444444; stroke-width: 0.8"/>
      </g>
     </g>
     <g id="text_11">
      <!-- 0.9 -->
      <g style="fill: #444444" transform="translate(24.878125 159.069964) scale(0.09 -0.09)">
       <defs>
        <path id="DejaVuSans-39" d="M 703 97 
L 703 672 
Q 941 559 1184 500 
Q 1428 441 1663 441 
Q 2288 441 2617 861 
Q 2947 1281 2994 2138 
Q 2813 1869 2534 1725 
Q 2256 1581 1919 1581 
Q 1219 1581 811 2004 
Q 403 2428 403 3163 
Q 403 3881 828 4315 
Q 1253 4750 1959 4750 
Q 2769 4750 3195 4129 
Q 3622 3509 3622 2328 
Q 3622 1225 3098 567 
Q 2575 -91 1691 -91 
Q 1453 -91 1209 -44 
Q 966 3 703 97 
z
M 1959 2075 
Q 2384 2075 2632 2365 
Q 2881 2656 2881 3163 
Q 2881 3666 2632 3958 
Q 2384 4250 1959 4250 
Q 1534 4250 1286 3958 
Q 1038 3666 1038 3163 
Q 1038 2656 1286 2365 
Q 1534 2075 1959 2075 
z
" transform="scale(0.015625)"/>
       </defs>
       <use xlink:href="#DejaVuSans-30"/>
       <use xlink:href="#DejaVuSans-2e" x="63.623047"/>
       <use xlink:href="#DejaVuSans-39" x="95.410156"/>
      </g>
     </g>
    </g>
    <g id="ytick_5">
     <g id="line2d_11">
      <g>
       <use xlink:href="#ma7dac9a0ee" x="46.190938" y="102.614222" style="fill: #444444; stroke: #444444; stroke-width: 0.8"/>
      </g>
     </g>
     <g id="text_12">
      <!-- 1.0 -->
      <g style="fill: #444444" transform="translate(24.878125 106.033519) scale(0.09 -0.09)">
       <use xlink:href="#DejaVuSans-31"/>
       <use xlink:href="#DejaVuSans-2e" x="63.623047"/>
       <use xlink:href="#DejaVuSans-30" x="95.410156"/>
      </g>
     </g>
    </g>
    <g id="text_13">
     <!-- Numeric Accuracy Rate (NAR) -->
     <g style="fill: #333333" transform="translate(14.798437 270.072531) rotate(-90) scale(0.1 -0.1)">
      <defs>
       <path id="DejaVuSans-4e" d="M 628 4666 
L 1478 4666 
L 3547 763 
L 3547 4666 
L 4159 4666 
L 4159 0 
L 3309 0 
L 1241 3903 
L 1241 0 
L 628 0 
L 628 4666 
z
" transform="scale(0.015625)"/>
       <path id="DejaVuSans-41" d="M 2188 4044 
L 1331 1722 
L 3047 1722 
L 2188 4044 
z
M 1831 4666 
L 2547 4666 
L 4325 0 
L 3669 0 
L 3244 1197 
L 1141 1197 
L 716 0 
L 50 0 
L 1831 4666 
z
" transform="scale(0.015625)"/>
       <path id="DejaVuSans-52" d="M 2841 2188 
Q 3044 2119 3236 1894 
Q 3428 1669 3622 1275 
L 4263 0 
L 3584 0 
L 2988 1197 
Q 2756 1666 2539 1819 
Q 2322 1972 1947 1972 
L 1259 1972 
L 1259 0 
L 628 0 
L 628 4666 
L 2053 4666 
Q 2853 4666 3247 4331 
Q 3641 3997 3641 3322 
Q 3641 2881 3436 2590 
Q 3231 2300 2841 2188 
z
M 1259 4147 
L 1259 2491 
L 2053 2491 
Q 2509 2491 2742 2702 
Q 2975 2913 2975 3322 
Q 2975 3731 2742 3939 
Q 2509 4147 2053 4147 
L 1259 4147 
z
" transform="scale(0.015625)"/>
      </defs>
      <use xlink:href="#DejaVuSans-4e"/>
      <use xlink:href="#DejaVuSans-75" x="74.804688"/>
      <use xlink:href="#DejaVuSans-6d" x="138.183594"/>
      <use xlink:href="#DejaVuSans-65" x="235.595703"/>
      <use xlink:href="#DejaVuSans-72" x="297.119141"/>
      <use xlink:href="#DejaVuSans-69" x="338.232422"/>
      <use xlink:href="#DejaVuSans-63" x="366.015625"/>
      <use xlink:href="#DejaVuSans-20" x="420.996094"/>
      <use xlink:href="#DejaVuSans-41" x="452.783203"/>
      <use xlink:href="#DejaVuSans-63" x="519.441406"/>
      <use xlink:href="#DejaVuSans-63" x="574.421875"/>
      <use xlink:href="#DejaVuSans-75" x="629.402344"/>
      <use xlink:href="#DejaVuSans-72" x="692.78125"/>
      <use xlink:href="#DejaVuSans-61" x="733.894531"/>
      <use xlink:href="#DejaVuSans-63" x="795.173828"/>
      <use xlink:href="#DejaVuSans-79" x="850.154297"/>
      <use xlink:href="#DejaVuSans-20" x="909.333984"/>
      <use xlink:href="#DejaVuSans-52" x="941.121094"/>
      <use xlink:href="#DejaVuSans-61" x="1008.353516"/>
      <use xlink:href="#DejaVuSans-74" x="1069.632812"/>
      <use xlink:href="#DejaVuSans-65" x="1108.841797"/>
      <use xlink:href="#DejaVuSans-20" x="1170.365234"/>
      <use xlink:href="#DejaVuSans-28" x="1202.152344"/>
      <use xlink:href="#DejaVuSans-4e" x="1241.166016"/>
      <use xlink:href="#DejaVuSans-41" x="1315.970703"/>
      <use xlink:href="#DejaVuSans-52" x="1384.378906"/>
      <use xlink:href="#DejaVuSans-29" x="1453.861328"/>
     </g>
    </g>
   </g>
   <g id="line2d_12">
    <path d="M 359.563839 314.76 
L 359.563839 76.096 
" clip-path="url(#p1077ca2886)" style="fill: none; stroke-dasharray: 4.44,1.92; stroke-dashoffset: 0; stroke: #ffb703; stroke-opacity: 0.8; stroke-width: 1.2"/>
   </g>
   <g id="patch_3">
    <path d="M 46.190938 314.76 
L 46.190938 76.096 
" style="fill: none; stroke: #cccccc; stroke-width: 0.8; stroke-linejoin: miter; stroke-linecap: square"/>
   </g>
   <g id="patch_4">
    <path d="M 46.190938 314.76 
L 375.232484 314.76 
" style="fill: none; stroke: #cccccc; stroke-width: 0.8; stroke-linejoin: miter; stroke-linecap: square"/>
   </g>
   <g id="PolyCollection_1">
    <defs>
     <path id="m494dad4feb" d="M 49.445069 -127.583608 
L 49.445069 -95.867815 
L 54.326267 -104.271285 
L 62.461597 -107.574538 
L 78.732256 -128.45441 
L 111.273575 -158.02666 
L 176.356213 -180.441202 
L 273.98017 -181.308803 
L 359.563839 -189.635507 
L 359.563839 -211.242555 
L 359.563839 -211.242555 
L 273.98017 -205.705567 
L 176.356213 -208.020153 
L 111.273575 -187.727068 
L 78.732256 -159.215547 
L 62.461597 -138.866041 
L 54.326267 -135.827969 
L 49.445069 -127.583608 
z
" style="stroke: #2e86ab; stroke-opacity: 0.2"/>
    </defs>
    <g clip-path="url(#p1077ca2886)">
     <use xlink:href="#m494dad4feb" x="0" y="355.348437" style="fill: #2e86ab; fill-opacity: 0.2; stroke: #2e86ab; stroke-opacity: 0.2"/>
    </g>
   </g>
   <g id="text_14">
    <!-- Numeric Accuracy Rate (NAR) -->
    <g style="fill: #1a1a2e" transform="translate(118.73968 53.692469) scale(0.11 -0.11)">
     <defs>
      <path id="DejaVuSans-Bold-4e" d="M 588 4666 
L 1931 4666 
L 3628 1466 
L 3628 4666 
L 4769 4666 
L 4769 0 
L 3425 0 
L 1728 3200 
L 1728 0 
L 588 0 
L 588 4666 
z
" transform="scale(0.015625)"/>
      <path id="DejaVuSans-Bold-75" d="M 500 1363 
L 500 3500 
L 1625 3500 
L 1625 3150 
Q 1625 2866 1622 2436 
Q 1619 2006 1619 1863 
Q 1619 1441 1641 1255 
Q 1663 1069 1716 984 
Q 1784 875 1895 815 
Q 2006 756 2150 756 
Q 2500 756 2700 1025 
Q 2900 1294 2900 1772 
L 2900 3500 
L 4019 3500 
L 4019 0 
L 2900 0 
L 2900 506 
Q 2647 200 2364 54 
Q 2081 -91 1741 -91 
Q 1134 -91 817 281 
Q 500 653 500 1363 
z
" transform="scale(0.015625)"/>
      <path id="DejaVuSans-Bold-6d" d="M 3781 2919 
Q 3994 3244 4286 3414 
Q 4578 3584 4928 3584 
Q 5531 3584 5847 3212 
Q 6163 2841 6163 2131 
L 6163 0 
L 5038 0 
L 5038 1825 
Q 5041 1866 5042 1909 
Q 5044 1953 5044 2034 
Q 5044 2406 4934 2573 
Q 4825 2741 4581 2741 
Q 4263 2741 4089 2478 
Q 3916 2216 3909 1719 
L 3909 0 
L 2784 0 
L 2784 1825 
Q 2784 2406 2684 2573 
Q 2584 2741 2328 2741 
Q 2006 2741 1831 2477 
Q 1656 2213 1656 1722 
L 1656 0 
L 531 0 
L 531 3500 
L 1656 3500 
L 1656 2988 
Q 1863 3284 2130 3434 
Q 2397 3584 2719 3584 
Q 3081 3584 3359 3409 
Q 3638 3234 3781 2919 
z
" transform="scale(0.015625)"/>
      <path id="DejaVuSans-Bold-65" d="M 4031 1759 
L 4031 1441 
L 1416 1441 
Q 1456 1047 1700 850 
Q 1944 653 2381 653 
Q 2734 653 3104 758 
Q 3475 863 3866 1075 
L 3866 213 
Q 3469 63 3072 -14 
Q 2675 -91 2278 -91 
Q 1328 -91 801 392 
Q 275 875 275 1747 
Q 275 2603 792 3093 
Q 1309 3584 2216 3584 
Q 3041 3584 3536 3087 
Q 4031 2591 4031 1759 
z
M 2881 2131 
Q 2881 2450 2695 2645 
Q 2509 2841 2209 2841 
Q 1884 2841 1681 2658 
Q 1478 2475 1428 2131 
L 2881 2131 
z
" transform="scale(0.015625)"/>
      <path id="DejaVuSans-Bold-72" d="M 3138 2547 
Q 2991 2616 2845 2648 
Q 2700 2681 2553 2681 
Q 2122 2681 1889 2404 
Q 1656 2128 1656 1613 
L 1656 0 
L 538 0 
L 538 3500 
L 1656 3500 
L 1656 2925 
Q 1872 3269 2151 3426 
Q 2431 3584 2822 3584 
Q 2878 3584 2943 3579 
Q 3009 3575 3134 3559 
L 3138 2547 
z
" transform="scale(0.015625)"/>
      <path id="DejaVuSans-Bold-69" d="M 538 3500 
L 1656 3500 
L 1656 0 
L 538 0 
L 538 3500 
z
M 538 4863 
L 1656 4863 
L 1656 3950 
L 538 3950 
L 538 4863 
z
" transform="scale(0.015625)"/>
      <path id="DejaVuSans-Bold-63" d="M 3366 3391 
L 3366 2478 
Q 3138 2634 2908 2709 
Q 2678 2784 2431 2784 
Q 1963 2784 1702 2511 
Q 1441 2238 1441 1747 
Q 1441 1256 1702 982 
Q 1963 709 2431 709 
Q 2694 709 2930 787 
Q 3166 866 3366 1019 
L 3366 103 
Q 3103 6 2833 -42 
Q 2563 -91 2291 -91 
Q 1344 -91 809 395 
Q 275 881 275 1747 
Q 275 2613 809 3098 
Q 1344 3584 2291 3584 
Q 2566 3584 2833 3536 
Q 3100 3488 3366 3391 
z
" transform="scale(0.015625)"/>
      <path id="DejaVuSans-Bold-20" transform="scale(0.015625)"/>
      <path id="DejaVuSans-Bold-41" d="M 3419 850 
L 1538 850 
L 1241 0 
L 31 0 
L 1759 4666 
L 3194 4666 
L 4922 0 
L 3713 0 
L 3419 850 
z
M 1838 1716 
L 3116 1716 
L 2478 3572 
L 1838 1716 
z
" transform="scale(0.015625)"/>
      <path id="DejaVuSans-Bold-61" d="M 2106 1575 
Q 1756 1575 1579 1456 
Q 1403 1338 1403 1106 
Q 1403 894 1545 773 
Q 1688 653 1941 653 
Q 2256 653 2472 879 
Q 2688 1106 2688 1447 
L 2688 1575 
L 2106 1575 
z
M 3816 1997 
L 3816 0 
L 2688 0 
L 2688 519 
Q 2463 200 2181 54 
Q 1900 -91 1497 -91 
Q 953 -91 614 226 
Q 275 544 275 1050 
Q 275 1666 698 1953 
Q 1122 2241 2028 2241 
L 2688 2241 
L 2688 2328 
Q 2688 2594 2478 2717 
Q 2269 2841 1825 2841 
Q 1466 2841 1156 2769 
Q 847 2697 581 2553 
L 581 3406 
Q 941 3494 1303 3539 
Q 1666 3584 2028 3584 
Q 2975 3584 3395 3211 
Q 3816 2838 3816 1997 
z
" transform="scale(0.015625)"/>
      <path id="DejaVuSans-Bold-79" d="M 78 3500 
L 1197 3500 
L 2138 1125 
L 2938 3500 
L 4056 3500 
L 2584 -331 
Q 2363 -916 2067 -1148 
Q 1772 -1381 1288 -1381 
L 641 -1381 
L 641 -647 
L 991 -647 
Q 1275 -647 1404 -556 
Q 1534 -466 1606 -231 
L 1638 -134 
L 78 3500 
z
" transform="scale(0.015625)"/>
      <path id="DejaVuSans-Bold-52" d="M 2297 2597 
Q 2675 2597 2839 2737 
Q 3003 2878 3003 3200 
Q 3003 3519 2839 3656 
Q 2675 3794 2297 3794 
L 1791 3794 
L 1791 2597 
L 2297 2597 
z
M 1791 1766 
L 1791 0 
L 588 0 
L 588 4666 
L 2425 4666 
Q 3347 4666 3776 4356 
Q 4206 4047 4206 3378 
Q 4206 2916 3982 2619 
Q 3759 2322 3309 2181 
Q 3556 2125 3751 1926 
Q 3947 1728 4147 1325 
L 4800 0 
L 3519 0 
L 2950 1159 
Q 2778 1509 2601 1637 
Q 2425 1766 2131 1766 
L 1791 1766 
z
" transform="scale(0.015625)"/>
      <path id="DejaVuSans-Bold-74" d="M 1759 4494 
L 1759 3500 
L 2913 3500 
L 2913 2700 
L 1759 2700 
L 1759 1216 
Q 1759 972 1856 886 
Q 1953 800 2241 800 
L 2816 800 
L 2816 0 
L 1856 0 
Q 1194 0 917 276 
Q 641 553 641 1216 
L 641 2700 
L 84 2700 
L 84 3500 
L 641 3500 
L 641 4494 
L 1759 4494 
z
" transform="scale(0.015625)"/>
      <path id="DejaVuSans-Bold-28" d="M 2413 -844 
L 1484 -844 
Q 1006 -72 778 623 
Q 550 1319 550 2003 
Q 550 2688 779 3389 
Q 1009 4091 1484 4856 
L 2413 4856 
Q 2013 4116 1813 3408 
Q 1613 2700 1613 2009 
Q 1613 1319 1811 609 
Q 2009 -100 2413 -844 
z
" transform="scale(0.015625)"/>
      <path id="DejaVuSans-Bold-29" d="M 513 -844 
Q 913 -100 1113 609 
Q 1313 1319 1313 2009 
Q 1313 2700 1113 3408 
Q 913 4116 513 4856 
L 1441 4856 
Q 1916 4091 2145 3389 
Q 2375 2688 2375 2003 
Q 2375 1319 2147 623 
Q 1919 -72 1441 -844 
L 513 -844 
z
" transform="scale(0.015625)"/>
     </defs>
     <use xlink:href="#DejaVuSans-Bold-4e"/>
     <use xlink:href="#DejaVuSans-Bold-75" x="83.691406"/>
     <use xlink:href="#DejaVuSans-Bold-6d" x="154.882812"/>
     <use xlink:href="#DejaVuSans-Bold-65" x="259.082031"/>
     <use xlink:href="#DejaVuSans-Bold-72" x="326.904297"/>
     <use xlink:href="#DejaVuSans-Bold-69" x="376.220703"/>
     <use xlink:href="#DejaVuSans-Bold-63" x="410.498047"/>
     <use xlink:href="#DejaVuSans-Bold-20" x="469.775391"/>
     <use xlink:href="#DejaVuSans-Bold-41" x="504.589844"/>
     <use xlink:href="#DejaVuSans-Bold-63" x="581.982422"/>
     <use xlink:href="#DejaVuSans-Bold-63" x="641.259766"/>
     <use xlink:href="#DejaVuSans-Bold-75" x="700.537109"/>
     <use xlink:href="#DejaVuSans-Bold-72" x="771.728516"/>
     <use xlink:href="#DejaVuSans-Bold-61" x="821.044922"/>
     <use xlink:href="#DejaVuSans-Bold-63" x="888.525391"/>
     <use xlink:href="#DejaVuSans-Bold-79" x="947.802734"/>
     <use xlink:href="#DejaVuSans-Bold-20" x="1012.988281"/>
     <use xlink:href="#DejaVuSans-Bold-52" x="1047.802734"/>
     <use xlink:href="#DejaVuSans-Bold-61" x="1124.804688"/>
     <use xlink:href="#DejaVuSans-Bold-74" x="1192.285156"/>
     <use xlink:href="#DejaVuSans-Bold-65" x="1240.087891"/>
     <use xlink:href="#DejaVuSans-Bold-20" x="1307.910156"/>
     <use xlink:href="#DejaVuSans-Bold-28" x="1342.724609"/>
     <use xlink:href="#DejaVuSans-Bold-4e" x="1388.427734"/>
     <use xlink:href="#DejaVuSans-Bold-41" x="1472.119141"/>
     <use xlink:href="#DejaVuSans-Bold-52" x="1549.511719"/>
     <use xlink:href="#DejaVuSans-Bold-29" x="1626.513672"/>
    </g>
    <!-- [ILLUSTRATIVE — run scripts/run_loo_eval.py for real data] -->
    <g style="fill: #1a1a2e" transform="translate(29.339758 66.096) scale(0.11 -0.11)">
     <defs>
      <path id="DejaVuSans-Bold-5b" d="M 550 4863 
L 2491 4863 
L 2491 4159 
L 1613 4159 
L 1613 -141 
L 2491 -141 
L 2491 -844 
L 550 -844 
L 550 4863 
z
" transform="scale(0.015625)"/>
      <path id="DejaVuSans-Bold-49" d="M 588 4666 
L 1791 4666 
L 1791 0 
L 588 0 
L 588 4666 
z
" transform="scale(0.015625)"/>
      <path id="DejaVuSans-Bold-4c" d="M 588 4666 
L 1791 4666 
L 1791 909 
L 3903 909 
L 3903 0 
L 588 0 
L 588 4666 
z
" transform="scale(0.015625)"/>
      <path id="DejaVuSans-Bold-55" d="M 588 4666 
L 1791 4666 
L 1791 1869 
Q 1791 1291 1980 1042 
Q 2169 794 2597 794 
Q 3028 794 3217 1042 
Q 3406 1291 3406 1869 
L 3406 4666 
L 4609 4666 
L 4609 1869 
Q 4609 878 4112 393 
Q 3616 -91 2597 -91 
Q 1581 -91 1084 393 
Q 588 878 588 1869 
L 588 4666 
z
" transform="scale(0.015625)"/>
      <path id="DejaVuSans-Bold-53" d="M 3834 4519 
L 3834 3531 
Q 3450 3703 3084 3790 
Q 2719 3878 2394 3878 
Q 1963 3878 1756 3759 
Q 1550 3641 1550 3391 
Q 1550 3203 1689 3098 
Q 1828 2994 2194 2919 
L 2706 2816 
Q 3484 2659 3812 2340 
Q 4141 2022 4141 1434 
Q 4141 663 3683 286 
Q 3225 -91 2284 -91 
Q 1841 -91 1394 -6 
Q 947 78 500 244 
L 500 1259 
Q 947 1022 1364 901 
Q 1781 781 2169 781 
Q 2563 781 2772 912 
Q 2981 1044 2981 1288 
Q 2981 1506 2839 1625 
Q 2697 1744 2272 1838 
L 1806 1941 
Q 1106 2091 782 2419 
Q 459 2747 459 3303 
Q 459 4000 909 4375 
Q 1359 4750 2203 4750 
Q 2588 4750 2994 4692 
Q 3400 4634 3834 4519 
z
" transform="scale(0.015625)"/>
      <path id="DejaVuSans-Bold-54" d="M 31 4666 
L 4331 4666 
L 4331 3756 
L 2784 3756 
L 2784 0 
L 1581 0 
L 1581 3756 
L 31 3756 
L 31 4666 
z
" transform="scale(0.015625)"/>
      <path id="DejaVuSans-Bold-56" d="M 31 4666 
L 1241 4666 
L 2478 1222 
L 3713 4666 
L 4922 4666 
L 3194 0 
L 1759 0 
L 31 4666 
z
" transform="scale(0.015625)"/>
      <path id="DejaVuSans-Bold-45" d="M 588 4666 
L 3834 4666 
L 3834 3756 
L 1791 3756 
L 1791 2888 
L 3713 2888 
L 3713 1978 
L 1791 1978 
L 1791 909 
L 3903 909 
L 3903 0 
L 588 0 
L 588 4666 
z
" transform="scale(0.015625)"/>
      <path id="DejaVuSans-Bold-2014" d="M 344 2156 
L 6056 2156 
L 6056 1350 
L 344 1350 
L 344 2156 
z
" transform="scale(0.015625)"/>
      <path id="DejaVuSans-Bold-6e" d="M 4056 2131 
L 4056 0 
L 2931 0 
L 2931 347 
L 2931 1631 
Q 2931 2084 2911 2256 
Q 2891 2428 2841 2509 
Q 2775 2619 2662 2680 
Q 2550 2741 2406 2741 
Q 2056 2741 1856 2470 
Q 1656 2200 1656 1722 
L 1656 0 
L 538 0 
L 538 3500 
L 1656 3500 
L 1656 2988 
Q 1909 3294 2193 3439 
Q 2478 3584 2822 3584 
Q 3428 3584 3742 3212 
Q 4056 2841 4056 2131 
z
" transform="scale(0.015625)"/>
      <path id="DejaVuSans-Bold-73" d="M 3272 3391 
L 3272 2541 
Q 2913 2691 2578 2766 
Q 2244 2841 1947 2841 
Q 1628 2841 1473 2761 
Q 1319 2681 1319 2516 
Q 1319 2381 1436 2309 
Q 1553 2238 1856 2203 
L 2053 2175 
Q 2913 2066 3209 1816 
Q 3506 1566 3506 1031 
Q 3506 472 3093 190 
Q 2681 -91 1863 -91 
Q 1516 -91 1145 -36 
Q 775 19 384 128 
L 384 978 
Q 719 816 1070 734 
Q 1422 653 1784 653 
Q 2113 653 2278 743 
Q 2444 834 2444 1013 
Q 2444 1163 2330 1236 
Q 2216 1309 1875 1350 
L 1678 1375 
Q 931 1469 631 1722 
Q 331 1975 331 2491 
Q 331 3047 712 3315 
Q 1094 3584 1881 3584 
Q 2191 3584 2531 3537 
Q 2872 3491 3272 3391 
z
" transform="scale(0.015625)"/>
      <path id="DejaVuSans-Bold-70" d="M 1656 506 
L 1656 -1331 
L 538 -1331 
L 538 3500 
L 1656 3500 
L 1656 2988 
Q 1888 3294 2169 3439 
Q 2450 3584 2816 3584 
Q 3463 3584 3878 3070 
Q 4294 2556 4294 1747 
Q 4294 938 3878 423 
Q 3463 -91 2816 -91 
Q 2450 -91 2169 54 
Q 1888 200 1656 506 
z
M 2400 2772 
Q 2041 2772 1848 2508 
Q 1656 2244 1656 1747 
Q 1656 1250 1848 986 
Q 2041 722 2400 722 
Q 2759 722 2948 984 
Q 3138 1247 3138 1747 
Q 3138 2247 2948 2509 
Q 2759 2772 2400 2772 
z
" transform="scale(0.015625)"/>
      <path id="DejaVuSans-Bold-2f" d="M 1644 4666 
L 2338 4666 
L 691 -594 
L 0 -594 
L 1644 4666 
z
" transform="scale(0.015625)"/>
      <path id="DejaVuSans-Bold-5f" d="M 3200 -916 
L 3200 -1509 
L 0 -1509 
L 0 -916 
L 3200 -916 
z
" transform="scale(0.015625)"/>
      <path id="DejaVuSans-Bold-6c" d="M 538 4863 
L 1656 4863 
L 1656 0 
L 538 0 
L 538 4863 
z
" transform="scale(0.015625)"/>
      <path id="DejaVuSans-Bold-6f" d="M 2203 2784 
Q 1831 2784 1636 2517 
Q 1441 2250 1441 1747 
Q 1441 1244 1636 976 
Q 1831 709 2203 709 
Q 2569 709 2762 976 
Q 2956 1244 2956 1747 
Q 2956 2250 2762 2517 
Q 2569 2784 2203 2784 
z
M 2203 3584 
Q 3106 3584 3614 3096 
Q 4122 2609 4122 1747 
Q 4122 884 3614 396 
Q 3106 -91 2203 -91 
Q 1297 -91 786 396 
Q 275 884 275 1747 
Q 275 2609 786 3096 
Q 1297 3584 2203 3584 
z
" transform="scale(0.015625)"/>
      <path id="DejaVuSans-Bold-76" d="M 97 3500 
L 1216 3500 
L 2088 1081 
L 2956 3500 
L 4078 3500 
L 2700 0 
L 1472 0 
L 97 3500 
z
" transform="scale(0.015625)"/>
      <path id="DejaVuSans-Bold-2e" d="M 653 1209 
L 1778 1209 
L 1778 0 
L 653 0 
L 653 1209 
z
" transform="scale(0.015625)"/>
      <path id="DejaVuSans-Bold-66" d="M 2841 4863 
L 2841 4128 
L 2222 4128 
Q 1984 4128 1890 4042 
Q 1797 3956 1797 3744 
L 1797 3500 
L 2753 3500 
L 2753 2700 
L 1797 2700 
L 1797 0 
L 678 0 
L 678 2700 
L 122 2700 
L 122 3500 
L 678 3500 
L 678 3744 
Q 678 4316 997 4589 
Q 1316 4863 1984 4863 
L 2841 4863 
z
" transform="scale(0.015625)"/>
      <path id="DejaVuSans-Bold-64" d="M 2919 2988 
L 2919 4863 
L 4044 4863 
L 4044 0 
L 2919 0 
L 2919 506 
Q 2688 197 2409 53 
Q 2131 -91 1766 -91 
Q 1119 -91 703 423 
Q 288 938 288 1747 
Q 288 2556 703 3070 
Q 1119 3584 1766 3584 
Q 2128 3584 2408 3439 
Q 2688 3294 2919 2988 
z
M 2181 722 
Q 2541 722 2730 984 
Q 2919 1247 2919 1747 
Q 2919 2247 2730 2509 
Q 2541 2772 2181 2772 
Q 1825 2772 1636 2509 
Q 1447 2247 1447 1747 
Q 1447 1247 1636 984 
Q 1825 722 2181 722 
z
" transform="scale(0.015625)"/>
      <path id="DejaVuSans-Bold-5d" d="M 2375 -844 
L 434 -844 
L 434 -141 
L 1313 -141 
L 1313 4159 
L 434 4159 
L 434 4863 
L 2375 4863 
L 2375 -844 
z
" transform="scale(0.015625)"/>
     </defs>
     <use xlink:href="#DejaVuSans-Bold-5b"/>
     <use xlink:href="#DejaVuSans-Bold-49" x="45.703125"/>
     <use xlink:href="#DejaVuSans-Bold-4c" x="82.910156"/>
     <use xlink:href="#DejaVuSans-Bold-4c" x="146.630859"/>
     <use xlink:href="#DejaVuSans-Bold-55" x="206.726562"/>
     <use xlink:href="#DejaVuSans-Bold-53" x="287.927734"/>
     <use xlink:href="#DejaVuSans-Bold-54" x="359.949219"/>
     <use xlink:href="#DejaVuSans-Bold-52" x="428.162109"/>
     <use xlink:href="#DejaVuSans-Bold-41" x="505.164062"/>
     <use xlink:href="#DejaVuSans-Bold-54" x="574.806641"/>
     <use xlink:href="#DejaVuSans-Bold-49" x="643.019531"/>
     <use xlink:href="#DejaVuSans-Bold-56" x="680.226562"/>
     <use xlink:href="#DejaVuSans-Bold-45" x="757.619141"/>
     <use xlink:href="#DejaVuSans-Bold-20" x="825.929688"/>
     <use xlink:href="#DejaVuSans-Bold-2014" x="860.744141"/>
     <use xlink:href="#DejaVuSans-Bold-20" x="960.744141"/>
     <use xlink:href="#DejaVuSans-Bold-72" x="995.558594"/>
     <use xlink:href="#DejaVuSans-Bold-75" x="1044.875"/>
     <use xlink:href="#DejaVuSans-Bold-6e" x="1116.066406"/>
     <use xlink:href="#DejaVuSans-Bold-20" x="1187.257812"/>
     <use xlink:href="#DejaVuSans-Bold-73" x="1222.072266"/>
     <use xlink:href="#DejaVuSans-Bold-63" x="1281.59375"/>
     <use xlink:href="#DejaVuSans-Bold-72" x="1340.871094"/>
     <use xlink:href="#DejaVuSans-Bold-69" x="1390.1875"/>
     <use xlink:href="#DejaVuSans-Bold-70" x="1424.464844"/>
     <use xlink:href="#DejaVuSans-Bold-74" x="1496.046875"/>
     <use xlink:href="#DejaVuSans-Bold-73" x="1543.849609"/>
     <use xlink:href="#DejaVuSans-Bold-2f" x="1603.371094"/>
     <use xlink:href="#DejaVuSans-Bold-72" x="1639.894531"/>
     <use xlink:href="#DejaVuSans-Bold-75" x="1689.210938"/>
     <use xlink:href="#DejaVuSans-Bold-6e" x="1760.402344"/>
     <use xlink:href="#DejaVuSans-Bold-5f" x="1831.59375"/>
     <use xlink:href="#DejaVuSans-Bold-6c" x="1881.59375"/>
     <use xlink:href="#DejaVuSans-Bold-6f" x="1915.871094"/>
     <use xlink:href="#DejaVuSans-Bold-6f" x="1984.572266"/>
     <use xlink:href="#DejaVuSans-Bold-5f" x="2053.273438"/>
     <use xlink:href="#DejaVuSans-Bold-65" x="2103.273438"/>
     <use xlink:href="#DejaVuSans-Bold-76" x="2171.095703"/>
     <use xlink:href="#DejaVuSans-Bold-61" x="2236.28125"/>
     <use xlink:href="#DejaVuSans-Bold-6c" x="2303.761719"/>
     <use xlink:href="#DejaVuSans-Bold-2e" x="2338.039062"/>
     <use xlink:href="#DejaVuSans-Bold-70" x="2376.027344"/>
     <use xlink:href="#DejaVuSans-Bold-79" x="2447.609375"/>
     <use xlink:href="#DejaVuSans-Bold-20" x="2512.794922"/>
     <use xlink:href="#DejaVuSans-Bold-66" x="2547.609375"/>
     <use xlink:href="#DejaVuSans-Bold-6f" x="2591.115234"/>
     <use xlink:href="#DejaVuSans-Bold-72" x="2659.816406"/>
     <use xlink:href="#DejaVuSans-Bold-20" x="2709.132812"/>
     <use xlink:href="#DejaVuSans-Bold-72" x="2743.947266"/>
     <use xlink:href="#DejaVuSans-Bold-65" x="2793.263672"/>
     <use xlink:href="#DejaVuSans-Bold-61" x="2861.085938"/>
     <use xlink:href="#DejaVuSans-Bold-6c" x="2928.566406"/>
     <use xlink:href="#DejaVuSans-Bold-20" x="2962.84375"/>
     <use xlink:href="#DejaVuSans-Bold-64" x="2997.658203"/>
     <use xlink:href="#DejaVuSans-Bold-61" x="3069.240234"/>
     <use xlink:href="#DejaVuSans-Bold-74" x="3136.720703"/>
     <use xlink:href="#DejaVuSans-Bold-61" x="3184.523438"/>
     <use xlink:href="#DejaVuSans-Bold-5d" x="3252.003906"/>
    </g>
   </g>
   <g id="line2d_13">
    <path d="M 49.445069 243.622726 
L 54.326267 235.298811 
L 62.461597 232.128148 
L 78.732256 211.513459 
L 111.273575 182.471574 
L 176.356213 161.11776 
L 273.98017 161.841252 
L 359.563839 154.909406 
" clip-path="url(#p1077ca2886)" style="fill: none; stroke: #2e86ab; stroke-width: 2; stroke-linecap: square"/>
    <defs>
     <path id="m75fbef2fe5" d="M 0 2.5 
C 0.663008 2.5 1.29895 2.236584 1.767767 1.767767 
C 2.236584 1.29895 2.5 0.663008 2.5 0 
C 2.5 -0.663008 2.236584 -1.29895 1.767767 -1.767767 
C 1.29895 -2.236584 0.663008 -2.5 0 -2.5 
C -0.663008 -2.5 -1.29895 -2.236584 -1.767767 -1.767767 
C -2.236584 -1.29895 -2.5 -0.663008 -2.5 0 
C -2.5 0.663008 -2.236584 1.29895 -1.767767 1.767767 
C -1.29895 2.236584 -0.663008 2.5 0 2.5 
z
" style="stroke: #2e86ab"/>
    </defs>
    <g clip-path="url(#p1077ca2886)">
     <use xlink:href="#m75fbef2fe5" x="49.445069" y="243.622726" style="fill: #2e86ab; stroke: #2e86ab"/>
     <use xlink:href="#m75fbef2fe5" x="54.326267" y="235.298811" style="fill: #2e86ab; stroke: #2e86ab"/>
     <use xlink:href="#m75fbef2fe5" x="62.461597" y="232.128148" style="fill: #2e86ab; stroke: #2e86ab"/>
     <use xlink:href="#m75fbef2fe5" x="78.732256" y="211.513459" style="fill: #2e86ab; stroke: #2e86ab"/>
     <use xlink:href="#m75fbef2fe5" x="111.273575" y="182.471574" style="fill: #2e86ab; stroke: #2e86ab"/>
     <use xlink:href="#m75fbef2fe5" x="176.356213" y="161.11776" style="fill: #2e86ab; stroke: #2e86ab"/>
     <use xlink:href="#m75fbef2fe5" x="273.98017" y="161.841252" style="fill: #2e86ab; stroke: #2e86ab"/>
     <use xlink:href="#m75fbef2fe5" x="359.563839" y="154.909406" style="fill: #2e86ab; stroke: #2e86ab"/>
    </g>
   </g>
   <g id="legend_1">
    <g id="patch_5">
     <path d="M 51.790938 94.2385 
L 163.969687 94.2385 
Q 165.569687 94.2385 165.569687 92.6385 
L 165.569687 81.696 
Q 165.569687 80.096 163.969687 80.096 
L 51.790938 80.096 
Q 50.190938 80.096 50.190938 81.696 
L 50.190938 92.6385 
Q 50.190938 94.2385 51.790938 94.2385 
z
" style="fill: #ffffff; opacity: 0.6; stroke: #cccccc; stroke-linejoin: miter"/>
    </g>
    <g id="line2d_14">
     <path d="M 53.390938 86.57475 
L 61.390938 86.57475 
L 69.390938 86.57475 
" style="fill: none; stroke-dasharray: 4.44,1.92; stroke-dashoffset: 0; stroke: #ffb703; stroke-opacity: 0.8; stroke-width: 1.2"/>
    </g>
    <g id="text_15">
     <!-- Full corpus (n=9,630) -->
     <g transform="translate(75.790938 89.37475) scale(0.08 -0.08)">
      <defs>
       <path id="DejaVuSans-46" d="M 628 4666 
L 3309 4666 
L 3309 4134 
L 1259 4134 
L 1259 2759 
L 3109 2759 
L 3109 2228 
L 1259 2228 
L 1259 0 
L 628 0 
L 628 4666 
z
" transform="scale(0.015625)"/>
       <path id="DejaVuSans-3d" d="M 678 2906 
L 4684 2906 
L 4684 2381 
L 678 2381 
L 678 2906 
z
M 678 1631 
L 4684 1631 
L 4684 1100 
L 678 1100 
L 678 1631 
z
" transform="scale(0.015625)"/>
       <path id="DejaVuSans-2c" d="M 750 794 
L 1409 794 
L 1409 256 
L 897 -744 
L 494 -744 
L 750 256 
L 750 794 
z
" transform="scale(0.015625)"/>
       <path id="DejaVuSans-33" d="M 2597 2516 
Q 3050 2419 3304 2112 
Q 3559 1806 3559 1356 
Q 3559 666 3084 287 
Q 2609 -91 1734 -91 
Q 1441 -91 1130 -33 
Q 819 25 488 141 
L 488 750 
Q 750 597 1062 519 
Q 1375 441 1716 441 
Q 2309 441 2620 675 
Q 2931 909 2931 1356 
Q 2931 1769 2642 2001 
Q 2353 2234 1838 2234 
L 1294 2234 
L 1294 2753 
L 1863 2753 
Q 2328 2753 2575 2939 
Q 2822 3125 2822 3475 
Q 2822 3834 2567 4026 
Q 2313 4219 1838 4219 
Q 1578 4219 1281 4162 
Q 984 4106 628 3988 
L 628 4550 
Q 988 4650 1302 4700 
Q 1616 4750 1894 4750 
Q 2613 4750 3031 4423 
Q 3450 4097 3450 3541 
Q 3450 3153 3228 2886 
Q 3006 2619 2597 2516 
z
" transform="scale(0.015625)"/>
      </defs>
      <use xlink:href="#DejaVuSans-46"/>
      <use xlink:href="#DejaVuSans-75" x="52.019531"/>
      <use xlink:href="#DejaVuSans-6c" x="115.398438"/>
      <use xlink:href="#DejaVuSans-6c" x="143.181641"/>
      <use xlink:href="#DejaVuSans-20" x="170.964844"/>
      <use xlink:href="#DejaVuSans-63" x="202.751953"/>
      <use xlink:href="#DejaVuSans-6f" x="257.732422"/>
      <use xlink:href="#DejaVuSans-72" x="318.914062"/>
      <use xlink:href="#DejaVuSans-70" x="360.027344"/>
      <use xlink:href="#DejaVuSans-75" x="423.503906"/>
      <use xlink:href="#DejaVuSans-73" x="486.882812"/>
      <use xlink:href="#DejaVuSans-20" x="538.982422"/>
      <use xlink:href="#DejaVuSans-28" x="570.769531"/>
      <use xlink:href="#DejaVuSans-6e" x="609.783203"/>
      <use xlink:href="#DejaVuSans-3d" x="673.162109"/>
      <use xlink:href="#DejaVuSans-39" x="756.951172"/>
      <use xlink:href="#DejaVuSans-2c" x="820.574219"/>
      <use xlink:href="#DejaVuSans-36" x="852.361328"/>
      <use xlink:href="#DejaVuSans-33" x="915.984375"/>
      <use xlink:href="#DejaVuSans-30" x="979.607422"/>
      <use xlink:href="#DejaVuSans-29" x="1043.230469"/>
     </g>
    </g>
   </g>
  </g>
  <g id="axes_2">
   <g id="patch_6">
    <path d="M 436.790937 314.76 
L 765.832484 314.76 
L 765.832484 76.096 
L 436.790937 76.096 
z
" style="fill: #ffffff"/>
   </g>
   <g id="matplotlib.axis_3">
    <g id="xtick_7">
     <g id="line2d_15">
      <g>
       <use xlink:href="#m9ff04734bd" x="436.790937" y="314.76" style="fill: #444444; stroke: #444444; stroke-width: 0.8"/>
      </g>
     </g>
     <g id="text_16">
      <!-- 0 -->
      <g style="fill: #444444" transform="translate(433.927812 328.598594) scale(0.09 -0.09)">
       <use xlink:href="#DejaVuSans-30"/>
      </g>
     </g>
    </g>
    <g id="xtick_8">
     <g id="line2d_16">
      <g>
       <use xlink:href="#m9ff04734bd" x="501.873575" y="314.76" style="fill: #444444; stroke: #444444; stroke-width: 0.8"/>
      </g>
     </g>
     <g id="text_17">
      <!-- 2000 -->
      <g style="fill: #444444" transform="translate(490.421075 328.598594) scale(0.09 -0.09)">
       <use xlink:href="#DejaVuSans-32"/>
       <use xlink:href="#DejaVuSans-30" x="63.623047"/>
       <use xlink:href="#DejaVuSans-30" x="127.246094"/>
       <use xlink:href="#DejaVuSans-30" x="190.869141"/>
      </g>
     </g>
    </g>
    <g id="xtick_9">
     <g id="line2d_17">
      <g>
       <use xlink:href="#m9ff04734bd" x="566.956213" y="314.76" style="fill: #444444; stroke: #444444; stroke-width: 0.8"/>
      </g>
     </g>
     <g id="text_18">
      <!-- 4000 -->
      <g style="fill: #444444" transform="translate(555.503713 328.598594) scale(0.09 -0.09)">
       <use xlink:href="#DejaVuSans-34"/>
       <use xlink:href="#DejaVuSans-30" x="63.623047"/>
       <use xlink:href="#DejaVuSans-30" x="127.246094"/>
       <use xlink:href="#DejaVuSans-30" x="190.869141"/>
      </g>
     </g>
    </g>
    <g id="xtick_10">
     <g id="line2d_18">
      <g>
       <use xlink:href="#m9ff04734bd" x="632.038851" y="314.76" style="fill: #444444; stroke: #444444; stroke-width: 0.8"/>
      </g>
     </g>
     <g id="text_19">
      <!-- 6000 -->
      <g style="fill: #444444" transform="translate(620.586351 328.598594) scale(0.09 -0.09)">
       <use xlink:href="#DejaVuSans-36"/>
       <use xlink:href="#DejaVuSans-30" x="63.623047"/>
       <use xlink:href="#DejaVuSans-30" x="127.246094"/>
       <use xlink:href="#DejaVuSans-30" x="190.869141"/>
      </g>
     </g>
    </g>
    <g id="xtick_11">
     <g id="line2d_19">
      <g>
       <use xlink:href="#m9ff04734bd" x="697.121489" y="314.76" style="fill: #444444; stroke: #444444; stroke-width: 0.8"/>
      </g>
     </g>
     <g id="text_20">
      <!-- 8000 -->
      <g style="fill: #444444" transform="translate(685.668989 328.598594) scale(0.09 -0.09)">
       <use xlink:href="#DejaVuSans-38"/>
       <use xlink:href="#DejaVuSans-30" x="63.623047"/>
       <use xlink:href="#DejaVuSans-30" x="127.246094"/>
       <use xlink:href="#DejaVuSans-30" x="190.869141"/>
      </g>
     </g>
    </g>
    <g id="xtick_12">
     <g id="line2d_20">
      <g>
       <use xlink:href="#m9ff04734bd" x="762.204127" y="314.76" style="fill: #444444; stroke: #444444; stroke-width: 0.8"/>
      </g>
     </g>
     <g id="text_21">
      <!-- 10000 -->
      <g style="fill: #444444" transform="translate(747.888502 328.598594) scale(0.09 -0.09)">
       <use xlink:href="#DejaVuSans-31"/>
       <use xlink:href="#DejaVuSans-30" x="63.623047"/>
       <use xlink:href="#DejaVuSans-30" x="127.246094"/>
       <use xlink:href="#DejaVuSans-30" x="190.869141"/>
       <use xlink:href="#DejaVuSans-30" x="254.492188"/>
      </g>
     </g>
    </g>
    <g id="text_22">
     <!-- Training corpus size (number of table-summary pairs) -->
     <g style="fill: #333333" transform="translate(466.961711 346.06875) scale(0.1 -0.1)">
      <use xlink:href="#DejaVuSans-54"/>
      <use xlink:href="#DejaVuSans-72" x="46.333984"/>
      <use xlink:href="#DejaVuSans-61" x="87.447266"/>
      <use xlink:href="#DejaVuSans-69" x="148.726562"/>
      <use xlink:href="#DejaVuSans-6e" x="176.509766"/>
      <use xlink:href="#DejaVuSans-69" x="239.888672"/>
      <use xlink:href="#DejaVuSans-6e" x="267.671875"/>
      <use xlink:href="#DejaVuSans-67" x="331.050781"/>
      <use xlink:href="#DejaVuSans-20" x="394.527344"/>
      <use xlink:href="#DejaVuSans-63" x="426.314453"/>
      <use xlink:href="#DejaVuSans-6f" x="481.294922"/>
      <use xlink:href="#DejaVuSans-72" x="542.476562"/>
      <use xlink:href="#DejaVuSans-70" x="583.589844"/>
      <use xlink:href="#DejaVuSans-75" x="647.066406"/>
      <use xlink:href="#DejaVuSans-73" x="710.445312"/>
      <use xlink:href="#DejaVuSans-20" x="762.544922"/>
      <use xlink:href="#DejaVuSans-73" x="794.332031"/>
      <use xlink:href="#DejaVuSans-69" x="846.431641"/>
      <use xlink:href="#DejaVuSans-7a" x="874.214844"/>
      <use xlink:href="#DejaVuSans-65" x="926.705078"/>
      <use xlink:href="#DejaVuSans-20" x="988.228516"/>
      <use xlink:href="#DejaVuSans-28" x="1020.015625"/>
      <use xlink:href="#DejaVuSans-6e" x="1059.029297"/>
      <use xlink:href="#DejaVuSans-75" x="1122.408203"/>
      <use xlink:href="#DejaVuSans-6d" x="1185.787109"/>
      <use xlink:href="#DejaVuSans-62" x="1283.199219"/>
      <use xlink:href="#DejaVuSans-65" x="1346.675781"/>
      <use xlink:href="#DejaVuSans-72" x="1408.199219"/>
      <use xlink:href="#DejaVuSans-20" x="1449.3125"/>
      <use xlink:href="#DejaVuSans-6f" x="1481.099609"/>
      <use xlink:href="#DejaVuSans-66" x="1542.28125"/>
      <use xlink:href="#DejaVuSans-20" x="1577.486328"/>
      <use xlink:href="#DejaVuSans-74" x="1609.273438"/>
      <use xlink:href="#DejaVuSans-61" x="1648.482422"/>
      <use xlink:href="#DejaVuSans-62" x="1709.761719"/>
      <use xlink:href="#DejaVuSans-6c" x="1773.238281"/>
      <use xlink:href="#DejaVuSans-65" x="1801.021484"/>
      <use xlink:href="#DejaVuSans-2d" x="1862.544922"/>
      <use xlink:href="#DejaVuSans-73" x="1898.628906"/>
      <use xlink:href="#DejaVuSans-75" x="1950.728516"/>
      <use xlink:href="#DejaVuSans-6d" x="2014.107422"/>
      <use xlink:href="#DejaVuSans-6d" x="2111.519531"/>
      <use xlink:href="#DejaVuSans-61" x="2208.931641"/>
      <use xlink:href="#DejaVuSans-72" x="2270.210938"/>
      <use xlink:href="#DejaVuSans-79" x="2311.324219"/>
      <use xlink:href="#DejaVuSans-20" x="2370.503906"/>
      <use xlink:href="#DejaVuSans-70" x="2402.291016"/>
      <use xlink:href="#DejaVuSans-61" x="2465.767578"/>
      <use xlink:href="#DejaVuSans-69" x="2527.046875"/>
      <use xlink:href="#DejaVuSans-72" x="2554.830078"/>
      <use xlink:href="#DejaVuSans-73" x="2595.943359"/>
      <use xlink:href="#DejaVuSans-29" x="2648.042969"/>
     </g>
    </g>
   </g>
   <g id="matplotlib.axis_4">
    <g id="ytick_6">
     <g id="line2d_21">
      <g>
       <use xlink:href="#ma7dac9a0ee" x="436.790937" y="314.76" style="fill: #444444; stroke: #444444; stroke-width: 0.8"/>
      </g>
     </g>
     <g id="text_23">
      <!-- 0.6 -->
      <g style="fill: #444444" transform="translate(415.478125 318.179297) scale(0.09 -0.09)">
       <use xlink:href="#DejaVuSans-30"/>
       <use xlink:href="#DejaVuSans-2e" x="63.623047"/>
       <use xlink:href="#DejaVuSans-36" x="95.410156"/>
      </g>
     </g>
    </g>
    <g id="ytick_7">
     <g id="line2d_22">
      <g>
       <use xlink:href="#ma7dac9a0ee" x="436.790937" y="261.723556" style="fill: #444444; stroke: #444444; stroke-width: 0.8"/>
      </g>
     </g>
     <g id="text_24">
      <!-- 0.7 -->
      <g style="fill: #444444" transform="translate(415.478125 265.142852) scale(0.09 -0.09)">
       <use xlink:href="#DejaVuSans-30"/>
       <use xlink:href="#DejaVuSans-2e" x="63.623047"/>
       <use xlink:href="#DejaVuSans-37" x="95.410156"/>
      </g>
     </g>
    </g>
    <g id="ytick_8">
     <g id="line2d_23">
      <g>
       <use xlink:href="#ma7dac9a0ee" x="436.790937" y="208.687111" style="fill: #444444; stroke: #444444; stroke-width: 0.8"/>
      </g>
     </g>
     <g id="text_25">
      <!-- 0.8 -->
      <g style="fill: #444444" transform="translate(415.478125 212.106408) scale(0.09 -0.09)">
       <use xlink:href="#DejaVuSans-30"/>
       <use xlink:href="#DejaVuSans-2e" x="63.623047"/>
       <use xlink:href="#DejaVuSans-38" x="95.410156"/>
      </g>
     </g>
    </g>
    <g id="ytick_9">
     <g id="line2d_24">
      <g>
       <use xlink:href="#ma7dac9a0ee" x="436.790937" y="155.650667" style="fill: #444444; stroke: #444444; stroke-width: 0.8"/>
      </g>
     </g>
     <g id="text_26">
      <!-- 0.9 -->
      <g style="fill: #444444" transform="translate(415.478125 159.069964) scale(0.09 -0.09)">
       <use xlink:href="#DejaVuSans-30"/>
       <use xlink:href="#DejaVuSans-2e" x="63.623047"/>
       <use xlink:href="#DejaVuSans-39" x="95.410156"/>
      </g>
     </g>
    </g>
    <g id="ytick_10">
     <g id="line2d_25">
      <g>
       <use xlink:href="#ma7dac9a0ee" x="436.790937" y="102.614222" style="fill: #444444; stroke: #444444; stroke-width: 0.8"/>
      </g>
     </g>
     <g id="text_27">
      <!-- 1.0 -->
      <g style="fill: #444444" transform="translate(415.478125 106.033519) scale(0.09 -0.09)">
       <use xlink:href="#DejaVuSans-31"/>
       <use xlink:href="#DejaVuSans-2e" x="63.623047"/>
       <use xlink:href="#DejaVuSans-30" x="95.410156"/>
      </g>
     </g>
    </g>
    <g id="text_28">
     <!-- Safety Score (composite) -->
     <g style="fill: #333333" transform="translate(405.398438 258.447531) rotate(-90) scale(0.1 -0.1)">
      <defs>
       <path id="DejaVuSans-53" d="M 3425 4513 
L 3425 3897 
Q 3066 4069 2747 4153 
Q 2428 4238 2131 4238 
Q 1616 4238 1336 4038 
Q 1056 3838 1056 3469 
Q 1056 3159 1242 3001 
Q 1428 2844 1947 2747 
L 2328 2669 
Q 3034 2534 3370 2195 
Q 3706 1856 3706 1288 
Q 3706 609 3251 259 
Q 2797 -91 1919 -91 
Q 1588 -91 1214 -16 
Q 841 59 441 206 
L 441 856 
Q 825 641 1194 531 
Q 1563 422 1919 422 
Q 2459 422 2753 634 
Q 3047 847 3047 1241 
Q 3047 1584 2836 1778 
Q 2625 1972 2144 2069 
L 1759 2144 
Q 1053 2284 737 2584 
Q 422 2884 422 3419 
Q 422 4038 858 4394 
Q 1294 4750 2059 4750 
Q 2388 4750 2728 4690 
Q 3069 4631 3425 4513 
z
" transform="scale(0.015625)"/>
      </defs>
      <use xlink:href="#DejaVuSans-53"/>
      <use xlink:href="#DejaVuSans-61" x="63.476562"/>
      <use xlink:href="#DejaVuSans-66" x="124.755859"/>
      <use xlink:href="#DejaVuSans-65" x="159.960938"/>
      <use xlink:href="#DejaVuSans-74" x="221.484375"/>
      <use xlink:href="#DejaVuSans-79" x="260.693359"/>
      <use xlink:href="#DejaVuSans-20" x="319.873047"/>
      <use xlink:href="#DejaVuSans-53" x="351.660156"/>
      <use xlink:href="#DejaVuSans-63" x="415.136719"/>
      <use xlink:href="#DejaVuSans-6f" x="470.117188"/>
      <use xlink:href="#DejaVuSans-72" x="531.298828"/>
      <use xlink:href="#DejaVuSans-65" x="570.162109"/>
      <use xlink:href="#DejaVuSans-20" x="631.685547"/>
      <use xlink:href="#DejaVuSans-28" x="663.472656"/>
      <use xlink:href="#DejaVuSans-63" x="702.486328"/>
      <use xlink:href="#DejaVuSans-6f" x="757.466797"/>
      <use xlink:href="#DejaVuSans-6d" x="818.648438"/>
      <use xlink:href="#DejaVuSans-70" x="916.060547"/>
      <use xlink:href="#DejaVuSans-6f" x="979.537109"/>
      <use xlink:href="#DejaVuSans-73" x="1040.71875"/>
      <use xlink:href="#DejaVuSans-69" x="1092.818359"/>
      <use xlink:href="#DejaVuSans-74" x="1120.601562"/>
      <use xlink:href="#DejaVuSans-65" x="1159.810547"/>
      <use xlink:href="#DejaVuSans-29" x="1221.333984"/>
     </g>
    </g>
   </g>
   <g id="line2d_26">
    <path d="M 750.163839 314.76 
L 750.163839 76.096 
" clip-path="url(#p750595f0a5)" style="fill: none; stroke-dasharray: 4.44,1.92; stroke-dashoffset: 0; stroke: #ffb703; stroke-opacity: 0.8; stroke-width: 1.2"/>
   </g>
   <g id="patch_7">
    <path d="M 436.790937 314.76 
L 436.790937 76.096 
" style="fill: none; stroke: #cccccc; stroke-width: 0.8; stroke-linejoin: miter; stroke-linecap: square"/>
   </g>
   <g id="patch_8">
    <path d="M 436.790937 314.76 
L 765.832484 314.76 
" style="fill: none; stroke: #cccccc; stroke-width: 0.8; stroke-linejoin: miter; stroke-linecap: square"/>
   </g>
   <g id="PolyCollection_2">
    <defs>
     <path id="mbee67b828a" d="M 440.045069 -107.361614 
L 440.045069 -65.038532 
L 444.926267 -70.484659 
L 453.061597 -84.052902 
L 469.332256 -105.987612 
L 501.873575 -131.900787 
L 566.956213 -157.716478 
L 664.58017 -167.255372 
L 750.163839 -174.5613 
L 750.163839 -206.775637 
L 750.163839 -206.775637 
L 664.58017 -202.259425 
L 566.956213 -195.902718 
L 501.873575 -172.208485 
L 469.332256 -147.356039 
L 453.061597 -125.951693 
L 444.926267 -112.648633 
L 440.045069 -107.361614 
z
" style="stroke: #2e86ab; stroke-opacity: 0.2"/>
    </defs>
    <g clip-path="url(#p750595f0a5)">
     <use xlink:href="#mbee67b828a" x="0" y="355.348437" style="fill: #2e86ab; fill-opacity: 0.2; stroke: #2e86ab; stroke-opacity: 0.2"/>
    </g>
   </g>
   <g id="text_29">
    <!-- Safety Score (composite) -->
    <g style="fill: #1a1a2e" transform="translate(522.998586 53.692469) scale(0.11 -0.11)">
     <use xlink:href="#DejaVuSans-Bold-53"/>
     <use xlink:href="#DejaVuSans-Bold-61" x="72.021484"/>
     <use xlink:href="#DejaVuSans-Bold-66" x="139.501953"/>
     <use xlink:href="#DejaVuSans-Bold-65" x="183.007812"/>
     <use xlink:href="#DejaVuSans-Bold-74" x="250.830078"/>
     <use xlink:href="#DejaVuSans-Bold-79" x="298.632812"/>
     <use xlink:href="#DejaVuSans-Bold-20" x="363.818359"/>
     <use xlink:href="#DejaVuSans-Bold-53" x="398.632812"/>
     <use xlink:href="#DejaVuSans-Bold-63" x="470.654297"/>
     <use xlink:href="#DejaVuSans-Bold-6f" x="529.931641"/>
     <use xlink:href="#DejaVuSans-Bold-72" x="598.632812"/>
     <use xlink:href="#DejaVuSans-Bold-65" x="647.949219"/>
     <use xlink:href="#DejaVuSans-Bold-20" x="715.771484"/>
     <use xlink:href="#DejaVuSans-Bold-28" x="750.585938"/>
     <use xlink:href="#DejaVuSans-Bold-63" x="796.289062"/>
     <use xlink:href="#DejaVuSans-Bold-6f" x="855.566406"/>
     <use xlink:href="#DejaVuSans-Bold-6d" x="924.267578"/>
     <use xlink:href="#DejaVuSans-Bold-70" x="1028.466797"/>
     <use xlink:href="#DejaVuSans-Bold-6f" x="1100.048828"/>
     <use xlink:href="#DejaVuSans-Bold-73" x="1168.75"/>
     <use xlink:href="#DejaVuSans-Bold-69" x="1228.271484"/>
     <use xlink:href="#DejaVuSans-Bold-74" x="1262.548828"/>
     <use xlink:href="#DejaVuSans-Bold-65" x="1310.351562"/>
     <use xlink:href="#DejaVuSans-Bold-29" x="1378.173828"/>
    </g>
    <!-- [ILLUSTRATIVE — run scripts/run_loo_eval.py for real data] -->
    <g style="fill: #1a1a2e" transform="translate(419.939758 66.096) scale(0.11 -0.11)">
     <use xlink:href="#DejaVuSans-Bold-5b"/>
     <use xlink:href="#DejaVuSans-Bold-49" x="45.703125"/>
     <use xlink:href="#DejaVuSans-Bold-4c" x="82.910156"/>
     <use xlink:href="#DejaVuSans-Bold-4c" x="146.630859"/>
     <use xlink:href="#DejaVuSans-Bold-55" x="206.726562"/>
     <use xlink:href="#DejaVuSans-Bold-53" x="287.927734"/>
     <use xlink:href="#DejaVuSans-Bold-54" x="359.949219"/>
     <use xlink:href="#DejaVuSans-Bold-52" x="428.162109"/>
     <use xlink:href="#DejaVuSans-Bold-41" x="505.164062"/>
     <use xlink:href="#DejaVuSans-Bold-54" x="574.806641"/>
     <use xlink:href="#DejaVuSans-Bold-49" x="643.019531"/>
     <use xlink:href="#DejaVuSans-Bold-56" x="680.226562"/>
     <use xlink:href="#DejaVuSans-Bold-45" x="757.619141"/>
     <use xlink:href="#DejaVuSans-Bold-20" x="825.929688"/>
     <use xlink:href="#DejaVuSans-Bold-2014" x="860.744141"/>
     <use xlink:href="#DejaVuSans-Bold-20" x="960.744141"/>
     <use xlink:href="#DejaVuSans-Bold-72" x="995.558594"/>
     <use xlink:href="#DejaVuSans-Bold-75" x="1044.875"/>
     <use xlink:href="#DejaVuSans-Bold-6e" x="1116.066406"/>
     <use xlink:href="#DejaVuSans-Bold-20" x="1187.257812"/>
     <use xlink:href="#DejaVuSans-Bold-73" x="1222.072266"/>
     <use xlink:href="#DejaVuSans-Bold-63" x="1281.59375"/>
     <use xlink:href="#DejaVuSans-Bold-72" x="1340.871094"/>
     <use xlink:href="#DejaVuSans-Bold-69" x="1390.1875"/>
     <use xlink:href="#DejaVuSans-Bold-70" x="1424.464844"/>
     <use xlink:href="#DejaVuSans-Bold-74" x="1496.046875"/>
     <use xlink:href="#DejaVuSans-Bold-73" x="1543.849609"/>
     <use xlink:href="#DejaVuSans-Bold-2f" x="1603.371094"/>
     <use xlink:href="#DejaVuSans-Bold-72" x="1639.894531"/>
     <use xlink:href="#DejaVuSans-Bold-75" x="1689.210938"/>
     <use xlink:href="#DejaVuSans-Bold-6e" x="1760.402344"/>
     <use xlink:href="#DejaVuSans-Bold-5f" x="1831.59375"/>
     <use xlink:href="#DejaVuSans-Bold-6c" x="1881.59375"/>
     <use xlink:href="#DejaVuSans-Bold-6f" x="1915.871094"/>
     <use xlink:href="#DejaVuSans-Bold-6f" x="1984.572266"/>
     <use xlink:href="#DejaVuSans-Bold-5f" x="2053.273438"/>
     <use xlink:href="#DejaVuSans-Bold-65" x="2103.273438"/>
     <use xlink:href="#DejaVuSans-Bold-76" x="2171.095703"/>
     <use xlink:href="#DejaVuSans-Bold-61" x="2236.28125"/>
     <use xlink:href="#DejaVuSans-Bold-6c" x="2303.761719"/>
     <use xlink:href="#DejaVuSans-Bold-2e" x="2338.039062"/>
     <use xlink:href="#DejaVuSans-Bold-70" x="2376.027344"/>
     <use xlink:href="#DejaVuSans-Bold-79" x="2447.609375"/>
     <use xlink:href="#DejaVuSans-Bold-20" x="2512.794922"/>
     <use xlink:href="#DejaVuSans-Bold-66" x="2547.609375"/>
     <use xlink:href="#DejaVuSans-Bold-6f" x="2591.115234"/>
     <use xlink:href="#DejaVuSans-Bold-72" x="2659.816406"/>
     <use xlink:href="#DejaVuSans-Bold-20" x="2709.132812"/>
     <use xlink:href="#DejaVuSans-Bold-72" x="2743.947266"/>
     <use xlink:href="#DejaVuSans-Bold-65" x="2793.263672"/>
     <use xlink:href="#DejaVuSans-Bold-61" x="2861.085938"/>
     <use xlink:href="#DejaVuSans-Bold-6c" x="2928.566406"/>
     <use xlink:href="#DejaVuSans-Bold-20" x="2962.84375"/>
     <use xlink:href="#DejaVuSans-Bold-64" x="2997.658203"/>
     <use xlink:href="#DejaVuSans-Bold-61" x="3069.240234"/>
     <use xlink:href="#DejaVuSans-Bold-74" x="3136.720703"/>
     <use xlink:href="#DejaVuSans-Bold-61" x="3184.523438"/>
     <use xlink:href="#DejaVuSans-Bold-5d" x="3252.003906"/>
    </g>
   </g>
   <g id="line2d_27">
    <path d="M 440.045069 269.148365 
L 444.926267 263.781791 
L 453.061597 250.34614 
L 469.332256 228.676612 
L 501.873575 203.293802 
L 566.956213 178.538839 
L 664.58017 170.591039 
L 750.163839 164.679969 
" clip-path="url(#p750595f0a5)" style="fill: none; stroke: #2e86ab; stroke-width: 2; stroke-linecap: square"/>
    <g clip-path="url(#p750595f0a5)">
     <use xlink:href="#m75fbef2fe5" x="440.045069" y="269.148365" style="fill: #2e86ab; stroke: #2e86ab"/>
     <use xlink:href="#m75fbef2fe5" x="444.926267" y="263.781791" style="fill: #2e86ab; stroke: #2e86ab"/>
     <use xlink:href="#m75fbef2fe5" x="453.061597" y="250.34614" style="fill: #2e86ab; stroke: #2e86ab"/>
     <use xlink:href="#m75fbef2fe5" x="469.332256" y="228.676612" style="fill: #2e86ab; stroke: #2e86ab"/>
     <use xlink:href="#m75fbef2fe5" x="501.873575" y="203.293802" style="fill: #2e86ab; stroke: #2e86ab"/>
     <use xlink:href="#m75fbef2fe5" x="566.956213" y="178.538839" style="fill: #2e86ab; stroke: #2e86ab"/>
     <use xlink:href="#m75fbef2fe5" x="664.58017" y="170.591039" style="fill: #2e86ab; stroke: #2e86ab"/>
     <use xlink:href="#m75fbef2fe5" x="750.163839" y="164.679969" style="fill: #2e86ab; stroke: #2e86ab"/>
    </g>
   </g>
   <g id="legend_2">
    <g id="patch_9">
     <path d="M 442.390938 94.2385 
L 554.569687 94.2385 
Q 556.169688 94.2385 556.169688 92.6385 
L 556.169688 81.696 
Q 556.169688 80.096 554.569687 80.096 
L 442.390938 80.096 
Q 440.790937 80.096 440.790937 81.696 
L 440.790937 92.6385 
Q 440.790937 94.2385 442.390938 94.2385 
z
" style="fill: #ffffff; opacity: 0.6; stroke: #cccccc; stroke-linejoin: miter"/>
    </g>
    <g id="line2d_28">
     <path d="M 443.990937 86.57475 
L 451.990937 86.57475 
L 459.990937 86.57475 
" style="fill: none; stroke-dasharray: 4.44,1.92; stroke-dashoffset: 0; stroke: #ffb703; stroke-opacity: 0.8; stroke-width: 1.2"/>
    </g>
    <g id="text_30">
     <!-- Full corpus (n=9,630) -->
     <g transform="translate(466.390937 89.37475) scale(0.08 -0.08)">
      <use xlink:href="#DejaVuSans-46"/>
      <use xlink:href="#DejaVuSans-75" x="52.019531"/>
      <use xlink:href="#DejaVuSans-6c" x="115.398438"/>
      <use xlink:href="#DejaVuSans-6c" x="143.181641"/>
      <use xlink:href="#DejaVuSans-20" x="170.964844"/>
      <use xlink:href="#DejaVuSans-63" x="202.751953"/>
      <use xlink:href="#DejaVuSans-6f" x="257.732422"/>
      <use xlink:href="#DejaVuSans-72" x="318.914062"/>
      <use xlink:href="#DejaVuSans-70" x="360.027344"/>
      <use xlink:href="#DejaVuSans-75" x="423.503906"/>
      <use xlink:href="#DejaVuSans-73" x="486.882812"/>
      <use xlink:href="#DejaVuSans-20" x="538.982422"/>
      <use xlink:href="#DejaVuSans-28" x="570.769531"/>
      <use xlink:href="#DejaVuSans-6e" x="609.783203"/>
      <use xlink:href="#DejaVuSans-3d" x="673.162109"/>
      <use xlink:href="#DejaVuSans-39" x="756.951172"/>
      <use xlink:href="#DejaVuSans-2c" x="820.574219"/>
      <use xlink:href="#DejaVuSans-36" x="852.361328"/>
      <use xlink:href="#DejaVuSans-33" x="915.984375"/>
      <use xlink:href="#DejaVuSans-30" x="979.607422"/>
      <use xlink:href="#DejaVuSans-29" x="1043.230469"/>
     </g>
    </g>
   </g>
  </g>
  <g id="text_31">
   <!-- Figure 7: Learning Curve — Performance vs Training Corpus Size -->
   <g transform="translate(191.818359 15.558281) scale(0.11 -0.11)">
    <defs>
     <path id="DejaVuSans-Bold-46" d="M 588 4666 
L 3834 4666 
L 3834 3756 
L 1791 3756 
L 1791 2888 
L 3713 2888 
L 3713 1978 
L 1791 1978 
L 1791 0 
L 588 0 
L 588 4666 
z
" transform="scale(0.015625)"/>
     <path id="DejaVuSans-Bold-67" d="M 2919 594 
Q 2688 288 2409 144 
Q 2131 0 1766 0 
Q 1125 0 706 504 
Q 288 1009 288 1791 
Q 288 2575 706 3076 
Q 1125 3578 1766 3578 
Q 2131 3578 2409 3434 
Q 2688 3291 2919 2981 
L 2919 3500 
L 4044 3500 
L 4044 353 
Q 4044 -491 3511 -936 
Q 2978 -1381 1966 -1381 
Q 1638 -1381 1331 -1331 
Q 1025 -1281 716 -1178 
L 716 -306 
Q 1009 -475 1290 -558 
Q 1572 -641 1856 -641 
Q 2406 -641 2662 -400 
Q 2919 -159 2919 353 
L 2919 594 
z
M 2181 2772 
Q 1834 2772 1640 2515 
Q 1447 2259 1447 1791 
Q 1447 1309 1634 1061 
Q 1822 813 2181 813 
Q 2531 813 2725 1069 
Q 2919 1325 2919 1791 
Q 2919 2259 2725 2515 
Q 2531 2772 2181 2772 
z
" transform="scale(0.015625)"/>
     <path id="DejaVuSans-Bold-37" d="M 428 4666 
L 3944 4666 
L 3944 3988 
L 2125 0 
L 953 0 
L 2675 3781 
L 428 3781 
L 428 4666 
z
" transform="scale(0.015625)"/>
     <path id="DejaVuSans-Bold-3a" d="M 716 3500 
L 1844 3500 
L 1844 2291 
L 716 2291 
L 716 3500 
z
M 716 1209 
L 1844 1209 
L 1844 0 
L 716 0 
L 716 1209 
z
" transform="scale(0.015625)"/>
     <path id="DejaVuSans-Bold-43" d="M 4288 256 
Q 3956 84 3597 -3 
Q 3238 -91 2847 -91 
Q 1681 -91 1000 561 
Q 319 1213 319 2328 
Q 319 3447 1000 4098 
Q 1681 4750 2847 4750 
Q 3238 4750 3597 4662 
Q 3956 4575 4288 4403 
L 4288 3438 
Q 3953 3666 3628 3772 
Q 3303 3878 2944 3878 
Q 2300 3878 1931 3465 
Q 1563 3053 1563 2328 
Q 1563 1606 1931 1193 
Q 2300 781 2944 781 
Q 3303 781 3628 887 
Q 3953 994 4288 1222 
L 4288 256 
z
" transform="scale(0.015625)"/>
     <path id="DejaVuSans-Bold-50" d="M 588 4666 
L 2584 4666 
Q 3475 4666 3951 4270 
Q 4428 3875 4428 3144 
Q 4428 2409 3951 2014 
Q 3475 1619 2584 1619 
L 1791 1619 
L 1791 0 
L 588 0 
L 588 4666 
z
M 1791 3794 
L 1791 2491 
L 2456 2491 
Q 2806 2491 2997 2661 
Q 3188 2831 3188 3144 
Q 3188 3456 2997 3625 
Q 2806 3794 2456 3794 
L 1791 3794 
z
" transform="scale(0.015625)"/>
     <path id="DejaVuSans-Bold-7a" d="M 366 3500 
L 3419 3500 
L 3419 2719 
L 1575 800 
L 3419 800 
L 3419 0 
L 288 0 
L 288 781 
L 2131 2700 
L 366 2700 
L 366 3500 
z
" transform="scale(0.015625)"/>
    </defs>
    <use xlink:href="#DejaVuSans-Bold-46"/>
    <use xlink:href="#DejaVuSans-Bold-69" x="68.310547"/>
    <use xlink:href="#DejaVuSans-Bold-67" x="102.587891"/>
    <use xlink:href="#DejaVuSans-Bold-75" x="174.169922"/>
    <use xlink:href="#DejaVuSans-Bold-72" x="245.361328"/>
    <use xlink:href="#DejaVuSans-Bold-65" x="294.677734"/>
    <use xlink:href="#DejaVuSans-Bold-20" x="362.5"/>
    <use xlink:href="#DejaVuSans-Bold-37" x="397.314453"/>
    <use xlink:href="#DejaVuSans-Bold-3a" x="466.894531"/>
    <use xlink:href="#DejaVuSans-Bold-20" x="506.884766"/>
    <use xlink:href="#DejaVuSans-Bold-4c" x="541.699219"/>
    <use xlink:href="#DejaVuSans-Bold-65" x="605.419922"/>
    <use xlink:href="#DejaVuSans-Bold-61" x="673.242188"/>
    <use xlink:href="#DejaVuSans-Bold-72" x="740.722656"/>
    <use xlink:href="#DejaVuSans-Bold-6e" x="790.039062"/>
    <use xlink:href="#DejaVuSans-Bold-69" x="861.230469"/>
    <use xlink:href="#DejaVuSans-Bold-6e" x="895.507812"/>
    <use xlink:href="#DejaVuSans-Bold-67" x="966.699219"/>
    <use xlink:href="#DejaVuSans-Bold-20" x="1038.28125"/>
    <use xlink:href="#DejaVuSans-Bold-43" x="1073.095703"/>
    <use xlink:href="#DejaVuSans-Bold-75" x="1146.484375"/>
    <use xlink:href="#DejaVuSans-Bold-72" x="1217.675781"/>
    <use xlink:href="#DejaVuSans-Bold-76" x="1266.992188"/>
    <use xlink:href="#DejaVuSans-Bold-65" x="1332.177734"/>
    <use xlink:href="#DejaVuSans-Bold-20" x="1400"/>
    <use xlink:href="#DejaVuSans-Bold-2014" x="1434.814453"/>
    <use xlink:href="#DejaVuSans-Bold-20" x="1534.814453"/>
    <use xlink:href="#DejaVuSans-Bold-50" x="1569.628906"/>
    <use xlink:href="#DejaVuSans-Bold-65" x="1642.919922"/>
    <use xlink:href="#DejaVuSans-Bold-72" x="1710.742188"/>
    <use xlink:href="#DejaVuSans-Bold-66" x="1760.058594"/>
    <use xlink:href="#DejaVuSans-Bold-6f" x="1803.564453"/>
    <use xlink:href="#DejaVuSans-Bold-72" x="1872.265625"/>
    <use xlink:href="#DejaVuSans-Bold-6d" x="1921.582031"/>
    <use xlink:href="#DejaVuSans-Bold-61" x="2025.78125"/>
    <use xlink:href="#DejaVuSans-Bold-6e" x="2093.261719"/>
    <use xlink:href="#DejaVuSans-Bold-63" x="2164.453125"/>
    <use xlink:href="#DejaVuSans-Bold-65" x="2223.730469"/>
    <use xlink:href="#DejaVuSans-Bold-20" x="2291.552734"/>
    <use xlink:href="#DejaVuSans-Bold-76" x="2326.367188"/>
    <use xlink:href="#DejaVuSans-Bold-73" x="2391.552734"/>
    <use xlink:href="#DejaVuSans-Bold-20" x="2451.074219"/>
    <use xlink:href="#DejaVuSans-Bold-54" x="2485.888672"/>
    <use xlink:href="#DejaVuSans-Bold-72" x="2543.101562"/>
    <use xlink:href="#DejaVuSans-Bold-61" x="2592.417969"/>
    <use xlink:href="#DejaVuSans-Bold-69" x="2659.898438"/>
    <use xlink:href="#DejaVuSans-Bold-6e" x="2694.175781"/>
    <use xlink:href="#DejaVuSans-Bold-69" x="2765.367188"/>
    <use xlink:href="#DejaVuSans-Bold-6e" x="2799.644531"/>
    <use xlink:href="#DejaVuSans-Bold-67" x="2870.835938"/>
    <use xlink:href="#DejaVuSans-Bold-20" x="2942.417969"/>
    <use xlink:href="#DejaVuSans-Bold-43" x="2977.232422"/>
    <use xlink:href="#DejaVuSans-Bold-6f" x="3050.621094"/>
    <use xlink:href="#DejaVuSans-Bold-72" x="3119.322266"/>
    <use xlink:href="#DejaVuSans-Bold-70" x="3168.638672"/>
    <use xlink:href="#DejaVuSans-Bold-75" x="3240.220703"/>
    <use xlink:href="#DejaVuSans-Bold-73" x="3311.412109"/>
    <use xlink:href="#DejaVuSans-Bold-20" x="3370.933594"/>
    <use xlink:href="#DejaVuSans-Bold-53" x="3405.748047"/>
    <use xlink:href="#DejaVuSans-Bold-69" x="3477.769531"/>
    <use xlink:href="#DejaVuSans-Bold-7a" x="3512.046875"/>
    <use xlink:href="#DejaVuSans-Bold-65" x="3570.25"/>
   </g>
   <!-- (Leave-One-Out cross-validation) -->
   <g transform="translate(289.094453 27.961812) scale(0.11 -0.11)">
    <defs>
     <path id="DejaVuSans-Bold-2d" d="M 347 2297 
L 2309 2297 
L 2309 1388 
L 347 1388 
L 347 2297 
z
" transform="scale(0.015625)"/>
     <path id="DejaVuSans-Bold-4f" d="M 2719 3878 
Q 2169 3878 1866 3472 
Q 1563 3066 1563 2328 
Q 1563 1594 1866 1187 
Q 2169 781 2719 781 
Q 3272 781 3575 1187 
Q 3878 1594 3878 2328 
Q 3878 3066 3575 3472 
Q 3272 3878 2719 3878 
z
M 2719 4750 
Q 3844 4750 4481 4106 
Q 5119 3463 5119 2328 
Q 5119 1197 4481 553 
Q 3844 -91 2719 -91 
Q 1597 -91 958 553 
Q 319 1197 319 2328 
Q 319 3463 958 4106 
Q 1597 4750 2719 4750 
z
" transform="scale(0.015625)"/>
    </defs>
    <use xlink:href="#DejaVuSans-Bold-28"/>
    <use xlink:href="#DejaVuSans-Bold-4c" x="45.703125"/>
    <use xlink:href="#DejaVuSans-Bold-65" x="109.423828"/>
    <use xlink:href="#DejaVuSans-Bold-61" x="177.246094"/>
    <use xlink:href="#DejaVuSans-Bold-76" x="244.726562"/>
    <use xlink:href="#DejaVuSans-Bold-65" x="309.912109"/>
    <use xlink:href="#DejaVuSans-Bold-2d" x="377.734375"/>
    <use xlink:href="#DejaVuSans-Bold-4f" x="419.238281"/>
    <use xlink:href="#DejaVuSans-Bold-6e" x="504.248047"/>
    <use xlink:href="#DejaVuSans-Bold-65" x="575.439453"/>
    <use xlink:href="#DejaVuSans-Bold-2d" x="643.261719"/>
    <use xlink:href="#DejaVuSans-Bold-4f" x="684.765625"/>
    <use xlink:href="#DejaVuSans-Bold-75" x="769.775391"/>
    <use xlink:href="#DejaVuSans-Bold-74" x="840.966797"/>
    <use xlink:href="#DejaVuSans-Bold-20" x="888.769531"/>
    <use xlink:href="#DejaVuSans-Bold-63" x="923.583984"/>
    <use xlink:href="#DejaVuSans-Bold-72" x="982.861328"/>
    <use xlink:href="#DejaVuSans-Bold-6f" x="1032.177734"/>
    <use xlink:href="#DejaVuSans-Bold-73" x="1100.878906"/>
    <use xlink:href="#DejaVuSans-Bold-73" x="1160.400391"/>
    <use xlink:href="#DejaVuSans-Bold-2d" x="1219.921875"/>
    <use xlink:href="#DejaVuSans-Bold-76" x="1261.425781"/>
    <use xlink:href="#DejaVuSans-Bold-61" x="1326.611328"/>
    <use xlink:href="#DejaVuSans-Bold-6c" x="1394.091797"/>
    <use xlink:href="#DejaVuSans-Bold-69" x="1428.369141"/>
    <use xlink:href="#DejaVuSans-Bold-64" x="1462.646484"/>
    <use xlink:href="#DejaVuSans-Bold-61" x="1534.228516"/>
    <use xlink:href="#DejaVuSans-Bold-74" x="1601.708984"/>
    <use xlink:href="#DejaVuSans-Bold-69" x="1649.511719"/>
    <use xlink:href="#DejaVuSans-Bold-6f" x="1683.789062"/>
    <use xlink:href="#DejaVuSans-Bold-6e" x="1752.490234"/>
    <use xlink:href="#DejaVuSans-Bold-29" x="1823.681641"/>
   </g>
  </g>
 </g>
 <defs>
  <clipPath id="p1077ca2886">
   <rect x="46.190938" y="76.096" width="329.041547" height="238.664"/>
  </clipPath>
  <clipPath id="p750595f0a5">
   <rect x="436.790937" y="76.096" width="329.041547" height="238.664"/>
  </clipPath>
 </defs>
</svg>
